EBGaramond12-Regular.sfdir
StartChar: exclam
Encoding: 833 33 832
GlifName: exclam
Width: 250
VWidth: 0
Flags: W
LayerCount: 2
Back
SplineSet
123 205 m 256
 133 205 139 222 141 244 c 256
 153 357 171 535 171 598 c 256
 171 625 153 649 126 649 c 256
 99 649 79 625 79 598 c 256
 79 535 93 358 105 244 c 256
 108 215 113 205 123 205 c 256
125 -14 m 256
 158 -14 185 13 185 46 c 256
 185 79 158 106 125 106 c 256
 92 106 65 79 65 46 c 256
 65 13 92 -14 125 -14 c 256
EndSplineSet
Fore
SplineSet
123 205 m 256
 133 205 139 222 141 244 c 256
 153 357 171 531 171 594 c 256
 171 623 153 649 126 649 c 256
 99 649 79 623 79 594 c 256
 79 531 93 358 105 244 c 256
 108 215 113 205 123 205 c 256
125 -14 m 256
 158 -14 185 13 185 46 c 256
 185 79 158 106 125 106 c 256
 92 106 65 79 65 46 c 256
 65 13 92 -14 125 -14 c 256
EndSplineSet
PickledDataWithLists: "(dp0
Vpublic.markColor
p1
V0.67,0.95,0.38,1
p2
s."
Substitution2: "'smcp' Lowercase to Small Capitals lookup 22 subtable" exclam.sc
Substitution2: "'c2sc' Capitals to Small Capitals lookup 21 subtable" exclam.sc
Substitution2: "'ordn' Ordinals lookup 15 subtable" exclam.ordn
Substitution2: "'sups' Superscript lookup 9 subtable" exclam.sups
Substitution2: "'sinf' Scientific Inferiors lookup 8 subtable" exclam.sinf
Substitution2: "'subs' Subscript lookup 7 subtable" exclam.subs
Comment: "+AAoA-exclam+AAoA"
EndChar
StartChar: numbersign
Encoding: 1167 35 1166
GlifName: numbersign
Width: 468
VWidth: 0
Flags: W
LayerCount: 2
Back
SplineSet
-20 -88 m 256
 -7 -88 12 -86 19 -73 c 258
 108 106 l 257
 221 112 l 257
 137 -62 l 257
 136 -65 l 258
 134 -71 137 -77 143 -77 c 256
 156 -77 174 -75 180 -62 c 258
 265 114 l 257
 320 117 l 258
 342 118 362 155 363 165 c 256
 364 172 360 177 353 177 c 257
 294 174 l 257
 361 312 l 257
 415 315 l 258
 437 316 456 354 457 364 c 256
 458 371 454 375 447 375 c 257
 391 372 l 257
 473 544 l 258
 474 546 474 547 475 549 c 256
 478 555 474 561 469 561 c 256
 455 561 436 558 429 544 c 258
 344 370 l 257
 235 364 l 257
 317 533 l 257
 317 535 319 536 319 538 c 256
 319 544 319 550 314 550 c 256
 300 550 279 547 272 533 c 258
 189 362 l 257
 120 359 l 258
 100 358 86 321 85 311 c 256
 84 304 89 299 96 299 c 257
 157 302 l 257
 91 164 l 257
 26 161 l 258
 4 160 -8 123 -9 113 c 256
 -10 106 -6 101 1 101 c 257
 61 104 l 257
 -27 -73 l 257
 -28 -76 l 258
 -30 -82 -26 -88 -20 -88 c 256
137 166 m 257
 204 304 l 257
 315 310 l 257
 250 172 l 257
 137 166 l 257
EndSplineSet
Fore
SplineSet
60 -79 m 256
 73 -79 87 -77 90 -64 c 258
 134 115 l 257
 248 121 l 257
 205 -53 l 257
 205 -56 l 258
 205 -62 209 -68 215 -68 c 256
 228 -68 242 -66 245 -53 c 258
 288 123 l 257
 346 126 l 258
 368 127 377 164 377 174 c 256
 377 181 371 186 364 186 c 257
 303 183 l 257
 337 321 l 257
 393 324 l 258
 415 325 424 363 424 373 c 256
 424 380 418 384 411 384 c 257
 352 381 l 257
 394 553 l 257
 394 555 395 556 395 558 c 256
 395 564 392 570 387 570 c 256
 373 570 357 567 354 553 c 258
 311 379 l 257
 198 373 l 257
 239 542 l 257
 239 544 240 545 240 547 c 256
 240 553 237 559 232 559 c 256
 218 559 202 556 199 542 c 258
 157 371 l 257
 88 368 l 258
 67 367 64 330 64 320 c 256
 64 313 71 308 78 308 c 257
 142 311 l 257
 108 173 l 257
 41 170 l 258
 20 169 17 132 17 122 c 256
 17 115 24 110 31 110 c 257
 94 113 l 257
 50 -64 l 257
 50 -67 l 258
 50 -73 54 -79 60 -79 c 256
149 175 m 257
 183 313 l 257
 296 319 l 257
 263 181 l 257
 149 175 l 257
EndSplineSet
PickledDataWithLists: "(dp0
Vpublic.markColor
p1
V0.67,0.95,0.38,1
p2
s."
Substitution2: "'smcp' Lowercase to Small Capitals lookup 22 subtable" numbersign.sc
Substitution2: "'c2sc' Capitals to Small Capitals lookup 21 subtable" numbersign.sc
Substitution2: "'ordn' Ordinals lookup 15 subtable" numbersign.ordn
Substitution2: "'sups' Superscript lookup 9 subtable" numbersign.sups
Substitution2: "'sinf' Scientific Inferiors lookup 8 subtable" numbersign.sinf
Substitution2: "'subs' Subscript lookup 7 subtable" numbersign.subs
Comment: "+AAoA-numbersign+AAoA"
EndChar
StartChar: dollar
Encoding: 738 36 737
GlifName: dollar
Width: 441
VWidth: 0
Flags: W
LayerCount: 2
Back
SplineSet
619 -116 m 256
 630 -116 643 -112 644 -101 c 258
 653 -25 l 257
 654 -20 659 -19 662 -19 c 256
 815 -19 868 87 868 167 c 256
 868 247 825 290 718 366 c 256
 704 376 704 377 705 385 c 258
 733 613 l 257
 733 615 735 618 737 618 c 256
 768 618 806 566 820 515 c 256
 824 500 841 490 846 490 c 256
 851 490 856 506 856 515 c 256
 856 550 849 588 842 622 c 256
 840 632 835 642 824 644 c 256
 809 647 785 655 745 658 c 257
 740 659 739 662 739 665 c 257
 740 674 745 714 746 724 c 257
 746 731 740 739 733 739 c 256
 720 739 706 735 704 722 c 258
 697 665 l 257
 697 662 693 659 687 659 c 256
 567 659 501 577 501 497 c 256
 501 417 572 366 639 316 c 256
 651 307 651 302 651 299 c 257
 619 28 l 258
 619 24 615 24 611 26 c 256
 551 56 524 138 510 165 c 256
 507 171 505 174 499 174 c 256
 488 174 479 166 479 158 c 257
 481 122 499 45 508 22 c 256
 510 17 515 11 524 7 c 256
 548 -4 571 -9 607 -15 c 257
 610 -15 613 -19 613 -22 c 257
 610 -49 606 -75 603 -102 c 257
 603 -109 611 -116 619 -116 c 256
668 18 m 256
 662 18 660 20 660 28 c 257
 690 273 l 258
 690 277 693 280 697 278 c 256
 752 251 783 200 783 148 c 256
 783 54 724 18 668 18 c 256
657 403 m 257
 619 432 578 476 578 517 c 256
 578 585 627 622 685 627 c 257
 690 627 692 624 692 619 c 257
 666 405 l 257
 666 403 665 399 657 403 c 257
194 15 m 256
 317 15 398 87 398 194 c 256
 398 284 329 329 263 367 c 256
 193 409 134 443 134 497 c 256
 134 572 182 595 239 595 c 256
 292 595 325 564 351 501 c 256
 354 494 366 489 378 489 c 256
 385 489 392 491 392 499 c 256
 392 527 380 562 373 588 c 256
 370 597 363 607 353 610 c 256
 333 618 300 633 255 633 c 256
 122 633 56 557 56 466 c 256
 56 379 139 336 212 292 c 256
 279 253 319 231 319 158 c 256
 319 91 272 52 207 52 c 256
 153 52 98 84 73 176 c 256
 72 184 65 186 58 186 c 256
 48 186 40 182 40 174 c 257
 42 149 42 104 49 79 c 256
 51 72 57 66 61 61 c 257
 96 33 141 15 194 15 c 256
159 19 m 257
 162 19 165 15 165 12 c 257
 162 -15 158 -41 155 -68 c 257
 155 -75 163 -82 171 -82 c 256
 182 -82 195 -78 196 -67 c 258
 205 9 l 257
 206 14 211 15 214 15 c 1280
264 366 m 257
 250 376 250 377 251 385 c 258
 275 582 l 257
 275 584 277 587 279 587 c 1280
290 630 m 257
 285 631 284 634 284 637 c 257
 285 646 290 687 291 697 c 257
 291 704 285 712 278 712 c 256
 265 712 251 708 249 695 c 258
 242 638 l 257
 242 635 238 632 232 632 c 1280
185 307 m 257
 197 298 197 293 197 290 c 257
 170 63 l 258
 170 59 166 59 162 61 c 1280
219 53 m 257
 213 53 211 55 211 63 c 257
 236 269 l 258
 236 273 239 276 243 274 c 1280
227 594 m 257
 232 594 234 591 234 586 c 257
 212 405 l 257
 212 403 211 399 203 403 c 1281
EndSplineSet
Fore
SplineSet
171 -82 m 256
 182 -82 195 -78 196 -67 c 258
 205 9 l 258
 206 14 209 16 214 16 c 256
 326 23 398 93 398 194 c 256
 398 284 329 329 263 367 c 257
 249 377 250 377 251 385 c 258
 275 583 l 257
 275 585 277 588 279 588 c 256
 310 575 332 546 351 501 c 256
 354 494 366 489 378 489 c 256
 385 489 392 491 392 499 c 256
 392 527 380 562 373 588 c 256
 370 597 363 607 353 610 c 256
 338 616 317 625 290 630 c 256
 285 631 284 634 284 637 c 256
 285 646 290 687 291 697 c 257
 291 704 285 712 278 712 c 256
 265 712 251 708 249 695 c 258
 242 638 l 258
 242 635 238 632 232 632 c 256
 115 625 56 552 56 466 c 256
 56 390 120 346 185 308 c 256
 197 301 198 296 197 291 c 258
 170 62 l 258
 170 58 165 58 161 60 c 257
 124 75 91 110 73 176 c 256
 72 184 65 186 58 186 c 256
 48 186 40 182 40 174 c 257
 42 149 42 104 49 79 c 256
 51 72 57 66 61 61 c 256
 88 40 121 24 158 18 c 256
 161 18 166 15 165 9 c 257
 156 -62 l 258
 154 -75 163 -82 171 -82 c 256
219 53 m 257
 213 53 211 55 211 63 c 257
 236 269 l 258
 236 273 239 276 243 274 c 257
 290 245 319 219 319 158 c 256
 319 95 278 57 219 53 c 257
203 404 m 257
 162 432 134 460 134 497 c 256
 134 567 175 591 227 595 c 257
 232 595 234 592 234 587 c 257
 212 405 l 257
 212 403 211 400 203 404 c 257
EndSplineSet
PickledDataWithLists: "(dp0
Vcom.schriftgestaltung.Glyphs.glyph.leftMetricsKey
p1
VS
p2
sVcom.schriftgestaltung.Glyphs.glyph.rightMetricsKey
p3
g2
sVpublic.markColor
p4
V0.67,0.95,0.38,1
p5
s."
Substitution2: "'smcp' Lowercase to Small Capitals lookup 22 subtable" dollar.sc
Substitution2: "'c2sc' Capitals to Small Capitals lookup 21 subtable" dollar.sc
Substitution2: "'ordn' Ordinals lookup 15 subtable" dollar.ordn
Substitution2: "'sups' Superscript lookup 9 subtable" dollar.sups
Substitution2: "'sinf' Scientific Inferiors lookup 8 subtable" dollar.sinf
Substitution2: "'subs' Subscript lookup 7 subtable" dollar.subs
Comment: "+AAoA-dollar+AAoA"
EndChar
StartChar: percent
Encoding: 1266 37 1265
GlifName: percent
Width: 650
VWidth: 0
Flags: W
LayerCount: 2
Back
SplineSet
498 638 m 258
 86 -11 l 257
 85 -12 85 -13 85 -14 c 256
 85 -20 94 -26 102 -26 c 256
 117 -26 130 -24 138 -11 c 258
 550 638 l 257
 551 639 551 641 551 642 c 256
 551 648 544 655 537 655 c 256
 520 655 507 652 498 638 c 258
144 630 m 256
 53 630 -1 534 -1 448 c 256
 -1 356 40 268 126 268 c 256
 221 268 269 365 269 459 c 256
 269 544 227 630 144 630 c 256
133 603 m 256
 174 603 199 509 199 442 c 256
 199 378 181 292 137 292 c 256
 92 292 69 392 69 463 c 256
 69 524 94 603 133 603 c 256
511 348 m 256
 420 348 366 252 366 166 c 256
 366 74 407 -14 493 -14 c 256
 588 -14 636 83 636 177 c 256
 636 262 594 348 511 348 c 256
500 321 m 256
 541 321 566 227 566 160 c 256
 566 96 548 10 504 10 c 256
 459 10 436 110 436 181 c 256
 436 242 461 321 500 321 c 256
EndSplineSet
Fore
Refer: 3208 -1 N 1 0 0 1 0 0 2
Refer: 897 8260 N 1 0 0 1 284 0 2
Refer: 3208 -1 N 1 0 0 1 350 -280 2
PickledDataWithLists: "(dp0
Vcom.schriftgestaltung.Glyphs.ComponentInfo
p1
(lp2
(dp3
Valignment
p4
I-1
sVindex
p5
I0
sVname
p6
Vzero.ordn
p7
sa(dp8
g4
I-1
sg5
I1
sg6
Vfraction
p9
sa(dp10
g4
I-1
sg5
I2
sg6
Vzero.ordn
p11
sasVcom.schriftgestaltung.Glyphs.glyph.leftMetricsKey
p12
Vzero.ordn
p13
sVcom.schriftgestaltung.Glyphs.glyph.rightMetricsKey
p14
Vzero.ordn
p15
sVpublic.markColor
p16
V0.67,0.95,0.38,1
p17
s."
Substitution2: "'smcp' Lowercase to Small Capitals lookup 22 subtable" percent.sc
Substitution2: "'c2sc' Capitals to Small Capitals lookup 21 subtable" percent.sc
Substitution2: "'ordn' Ordinals lookup 15 subtable" percent.ordn
Substitution2: "'sups' Superscript lookup 9 subtable" percent.sups
Substitution2: "'sinf' Scientific Inferiors lookup 8 subtable" percent.sinf
Substitution2: "'subs' Subscript lookup 7 subtable" percent.subs
Comment: "+AAoA-percent+AAoA"
EndChar
StartChar: ampersand
Encoding: 536 38 535
GlifName: ampersand
Width: 756
VWidth: 0
Flags: W
LayerCount: 2
Back
SplineSet
212 -15 m 256
 305 -15 350 48 413 116 c 257
 419 122 l 257
 432 101 l 258
 483 21 511 -15 586 -15 c 256
 641 -15 708 31 708 40 c 256
 708 50 707 62 698 62 c 256
 692 62 686 60 681 57 c 257
 658 42 649 34 621 34 c 256
 546 34 518 80 476 141 c 258
 459 165 l 257
 459 165 625 342 638 353 c 256
 654 367 680 382 711 384 c 257
 720 385 736 395 736 403 c 256
 736 407 727 412 724 412 c 256
 700 412 658 397 628 397 c 256
 613 397 563 402 557 402 c 256
 553 402 535 401 535 391 c 256
 535 388 544 381 547 380 c 257
 564 377 575 360 575 352 c 256
 575 337 513 253 465 202 c 258
 447 183 l 257
 435 201 l 258
 395 259 354 290 305 346 c 258
 296 356 l 257
 310 361 l 258
 371 384 407 433 407 496 c 256
 407 559 347 599 284 599 c 256
 215 599 147 559 147 489 c 256
 147 430 191 389 210 367 c 257
 225 351 l 257
 205 342 l 258
 109 298 37 229 37 123 c 256
 37 34 124 -15 212 -15 c 256
232 50 m 256
 171 50 117 96 117 157 c 256
 117 216 126 290 219 326 c 258
 240 334 l 257
 252 321 l 258
 309 259 362 210 395 159 c 258
 407 140 l 257
 398 131 l 258
 349 79 304 50 232 50 c 256
279 376 m 257
 264 393 l 257
 252 408 207 460 207 513 c 256
 207 548 242 571 277 571 c 256
 319 571 347 529 347 493 c 256
 347 451 338 403 292 382 c 258
 279 376 l 257
EndSplineSet
Fore
SplineSet
212 -15 m 256
 305 -15 350 48 413 116 c 257
 419 122 l 257
 432 101 l 258
 483 21 511 -15 586 -15 c 256
 641 -15 715 34 715 51 c 256
 715 60 712 63 703 63 c 256
 697 63 691 61 686 58 c 256
 662 44 636 40 608 40 c 256
 557 40 518 80 476 141 c 258
 459 165 l 257
 459 165 625 342 638 353 c 256
 654 367 680 382 711 384 c 257
 720 385 736 395 736 403 c 256
 736 407 727 412 724 412 c 256
 700 412 658 397 628 397 c 256
 613 397 563 402 557 402 c 256
 553 402 535 401 535 391 c 256
 535 388 544 381 547 380 c 257
 564 377 575 360 575 352 c 256
 575 337 513 253 465 202 c 258
 447 183 l 257
 435 201 l 258
 395 259 356 291 305 346 c 258
 292 360 l 257
 306 365 l 258
 372 389 412 426 411 477 c 256
 411 529 370 599 284 599 c 256
 215 599 145 554 145 484 c 256
 145 425 191 389 210 367 c 257
 225 351 l 257
 205 342 l 258
 109 298 38 233 38 127 c 256
 38 45 109 -15 212 -15 c 256
238 50 m 256
 165 50 115 99 115 160 c 256
 115 219 126 290 219 326 c 258
 240 334 l 257
 252 321 l 258
 309 259 362 210 395 159 c 258
 407 140 l 257
 398 131 l 258
 349 79 304 50 238 50 c 256
279 376 m 257
 263 393 l 258
 211 448 203 469 203 509 c 256
 203 545 239 573 279 573 c 256
 325 573 347 528 347 482 c 256
 347 442 329 399 292 382 c 258
 279 376 l 257
EndSplineSet
PickledDataWithLists: "(dp0
Vpublic.markColor
p1
V0.67,0.95,0.38,1
p2
s."
Substitution2: "'smcp' Lowercase to Small Capitals lookup 22 subtable" ampersand.sc
Substitution2: "'c2sc' Capitals to Small Capitals lookup 21 subtable" ampersand.sc
Substitution2: "'ordn' Ordinals lookup 15 subtable" ampersand.ordn
Substitution2: "'sups' Superscript lookup 9 subtable" ampersand.sups
Substitution2: "'sinf' Scientific Inferiors lookup 8 subtable" ampersand.sinf
Substitution2: "'subs' Subscript lookup 7 subtable" ampersand.subs
Comment: "+AAoA-ampersand+AAoA"
EndChar
StartChar: quotesingle
Encoding: 1331 39 1330
GlifName: quotesingle
Width: 200
VWidth: 0
Flags: W
LayerCount: 2
Fore
SplineSet
72 444 m 256
 77 444 86 457 91 469 c 256
 106 505 138 592 138 644 c 256
 138 661 134 676 124 676 c 256
 108 676 97 668 81 655 c 257
 73 648 62 634 62 620 c 256
 62 619 66 560 66 524 c 256
 66 506 66 488 65 467 c 257
 65 458 67 444 72 444 c 256
EndSplineSet
PickledDataWithLists: "(dp0
Vpublic.markColor
p1
V0.67,0.95,0.38,1
p2
s."
Substitution2: "'smcp' Lowercase to Small Capitals lookup 22 subtable" quotesingle.sc
Substitution2: "'c2sc' Capitals to Small Capitals lookup 21 subtable" quotesingle.sc
Substitution2: "'ordn' Ordinals lookup 15 subtable" quotesingle.ordn
Substitution2: "'sups' Superscript lookup 9 subtable" quotesingle.sups
Substitution2: "'sinf' Scientific Inferiors lookup 8 subtable" quotesingle.sinf
Substitution2: "'subs' Subscript lookup 7 subtable" quotesingle.subs
Comment: "+AAoA-quotesingle+AAoA"
EndChar
StartChar: parenleft
Encoding: 1251 40 1250
GlifName: parenleft
Width: 315
VWidth: 0
Flags: W
LayerCount: 2
Back
SplineSet
237 -214 m 256
 250 -214 264 -206 264 -192 c 256
 264 -190 250 -175 248 -173 c 256
 177 -102 100 111 100 281 c 256
 100 451 181 599 252 670 c 256
 254 672 265 687 265 689 c 256
 265 698 250 705 243 705 c 256
 233 705 222 700 216 694 c 256
 145 623 40 439 40 269 c 256
 40 99 149 -136 220 -207 c 256
 225 -212 231 -214 237 -214 c 256
EndSplineSet
Fore
SplineSet
237 -214 m 256
 250 -214 264 -206 264 -192 c 256
 264 -190 250 -175 249 -173 c 256
 188 -102 123 111 123 281 c 256
 123 451 191 599 252 670 c 256
 254 672 265 687 265 689 c 256
 265 698 250 705 243 705 c 256
 233 705 222 700 216 694 c 256
 145 623 40 439 40 269 c 256
 40 99 149 -136 220 -207 c 256
 225 -212 231 -214 237 -214 c 256
EndSplineSet
PickledDataWithLists: "(dp0
Vpublic.markColor
p1
V0.67,0.95,0.38,1
p2
s."
Substitution2: "'ss04' Style Set 4 lookup 33 subtable" uni2619
Substitution2: "'ss02' Style Set 2 lookup 30 subtable" uni261C
Substitution2: "'smcp' Lowercase to Small Capitals lookup 22 subtable" parenleft.sc
Substitution2: "'c2sc' Capitals to Small Capitals lookup 21 subtable" parenleft.sc
Substitution2: "'ordn' Ordinals lookup 15 subtable" parenleft.ordn
Substitution2: "'sups' Superscript lookup 9 subtable" parenleft.sups
Substitution2: "'sinf' Scientific Inferiors lookup 8 subtable" parenleft.sinf
Substitution2: "'subs' Subscript lookup 7 subtable" parenleft.subs
Comment: "+AAoA-parenleft+AAoA"
EndChar
StartChar: asterisk
Encoding: 573 42 572
GlifName: asterisk
Width: 340
VWidth: 0
Flags: W
LayerCount: 2
Back
SplineSet
184 372 m 256
 196 372 201 383 201 394 c 257
 200 429 198 459 195 487 c 257
 221 476 250 466 282 452 c 257
 285 451 287 451 290 451 c 256
 299 451 307 455 307 465 c 256
 307 472 302 480 295 483 c 257
 264 501 239 513 213 525 c 257
 286 583 l 257
 291 588 295 594 295 600 c 256
 295 610 285 614 277 614 c 256
 273 614 269 613 266 610 c 257
 236 592 210 576 187 560 c 257
 174 652 l 258
 173 661 166 670 157 670 c 256
 145 670 140 659 140 648 c 256
 141 613 143 583 146 555 c 257
 120 566 91 576 59 590 c 257
 56 591 54 591 51 591 c 256
 42 591 34 587 34 577 c 256
 34 570 39 562 46 559 c 257
 77 541 102 529 128 517 c 257
 55 459 l 257
 50 454 46 448 46 442 c 256
 46 432 56 428 64 428 c 256
 68 428 72 429 75 432 c 257
 105 450 131 466 154 482 c 257
 167 390 l 258
 168 381 175 372 184 372 c 256
EndSplineSet
Fore
SplineSet
184 372 m 256
 196 372 201 383 201 394 c 257
 200 429 198 459 195 487 c 257
 221 476 250 466 282 452 c 256
 290 449 307 451 307 465 c 256
 307 472 302 480 295 483 c 257
 264 501 239 513 213 525 c 257
 286 583 l 257
 291 588 295 594 295 600 c 256
 295 610 285 614 277 614 c 256
 273 614 269 613 266 610 c 257
 236 592 210 576 187 560 c 257
 174 652 l 258
 173 661 166 670 157 670 c 256
 145 670 140 659 140 648 c 256
 141 613 143 583 146 555 c 257
 120 566 91 576 59 590 c 257
 51 593 34 591 34 577 c 256
 34 570 39 562 46 559 c 257
 77 541 102 529 128 517 c 257
 55 459 l 257
 50 454 46 448 46 442 c 256
 46 432 56 428 64 428 c 256
 68 428 72 429 75 432 c 257
 105 450 131 466 154 482 c 257
 167 390 l 258
 168 381 175 372 184 372 c 256
EndSplineSet
PickledDataWithLists: "(dp0
Vpublic.markColor
p1
V0.67,0.95,0.38,1
p2
s."
Substitution2: "'ss04' Style Set 4 lookup 33 subtable" uni2766
Substitution2: "'smcp' Lowercase to Small Capitals lookup 22 subtable" asterisk.sc
Substitution2: "'c2sc' Capitals to Small Capitals lookup 21 subtable" asterisk.sc
Substitution2: "'ordn' Ordinals lookup 15 subtable" asterisk.ordn
Substitution2: "'sups' Superscript lookup 9 subtable" asterisk.sups
Substitution2: "'sinf' Scientific Inferiors lookup 8 subtable" asterisk.sinf
Substitution2: "'subs' Subscript lookup 7 subtable" asterisk.subs
Comment: "+AAoA-asterisk+AAoA"
EndChar
StartChar: plus
Encoding: 1289 43 1288
GlifName: plus
Width: 590
VWidth: 0
Flags: W
LayerCount: 2
Fore
SplineSet
282 -8 m 256
 291 -8 330 -5 330 16 c 258
 330 218 l 258
 330 221 331 222 334 222 c 258
 519 222 l 258
 538 222 550 245 550 262 c 256
 550 268 544 272 537 272 c 258
 332 272 l 258
 330 272 330 273 330 278 c 258
 330 469 l 258
 330 476 323 482 316 482 c 256
 310 482 270 473 270 451 c 258
 270 280 l 258
 270 274 269 272 263 272 c 258
 74 272 l 258
 56 272 50 243 50 234 c 256
 50 228 57 222 64 222 c 258
 266 222 l 258
 269 222 270 220 270 217 c 258
 270 6 l 258
 270 -1 276 -8 282 -8 c 256
EndSplineSet
PickledDataWithLists: "(dp0
Vpublic.markColor
p1
V0.67,0.95,0.38,1
p2
s."
Substitution2: "'smcp' Lowercase to Small Capitals lookup 22 subtable" plus.sc
Substitution2: "'c2sc' Capitals to Small Capitals lookup 21 subtable" plus.sc
Substitution2: "'ordn' Ordinals lookup 15 subtable" plus.ordn
Substitution2: "'sups' Superscript lookup 9 subtable" plus.sups
Substitution2: "'sinf' Scientific Inferiors lookup 8 subtable" plus.sinf
Substitution2: "'subs' Subscript lookup 7 subtable" plus.subs
Comment: "+AAoA-plus+AAoA"
EndChar
StartChar: comma
Encoding: 698 44 697
GlifName: comma
Width: 230
VWidth: 0
Flags: W
LayerCount: 2
Fore
SplineSet
38 -147 m 256
 89 -147 182 -81 182 20 c 256
 182 76 147 117 99 117 c 256
 70 117 44 98 44 71 c 256
 44 49 62 32 91 29 c 256
 113 27 130 1 130 -15 c 256
 130 -85 77 -115 34 -124 c 256
 25 -126 20 -131 20 -136 c 256
 20 -142 26 -147 38 -147 c 256
EndSplineSet
PickledDataWithLists: "(dp0
Vpublic.markColor
p1
V0.67,0.95,0.38,1
p2
s."
Substitution2: "'smcp' Lowercase to Small Capitals lookup 22 subtable" comma.sc
Substitution2: "'c2sc' Capitals to Small Capitals lookup 21 subtable" comma.sc
Substitution2: "'ordn' Ordinals lookup 15 subtable" comma.ordn
Substitution2: "'sups' Superscript lookup 9 subtable" comma.sups
Substitution2: "'sinf' Scientific Inferiors lookup 8 subtable" comma.sinf
Substitution2: "'subs' Subscript lookup 7 subtable" comma.subs
Comment: "+AAoA-comma+AAoA"
EndChar
StartChar: hyphen
Encoding: 985 45 984
GlifName: hyphen
Width: 274
VWidth: 0
Flags: W
LayerCount: 2
Fore
SplineSet
35 170 m 257
 103 176 164 186 224 195 c 256
 240 197 245 224 245 249 c 256
 245 253 241 255 237 255 c 257
 173 248 109 239 45 230 c 257
 35 229 29 198 29 176 c 256
 29 172 30 170 35 170 c 257
EndSplineSet
PickledDataWithLists: "(dp0
Vpublic.markColor
p1
V0.67,0.95,0.38,1
p2
s."
Substitution2: "'smcp' Lowercase to Small Capitals lookup 22 subtable" hyphen.sc
Substitution2: "'c2sc' Capitals to Small Capitals lookup 21 subtable" hyphen.sc
Substitution2: "'ordn' Ordinals lookup 15 subtable" hyphen.ordn
Substitution2: "'sups' Superscript lookup 9 subtable" hyphen.sups
Substitution2: "'sinf' Scientific Inferiors lookup 8 subtable" hyphen.sinf
Substitution2: "'subs' Subscript lookup 7 subtable" hyphen.subs
Comment: "+AAoA-hyphen+AAoA"
EndChar
StartChar: period
Encoding: 1272 46 1271
GlifName: period
Width: 230
VWidth: 0
Flags: W
LayerCount: 2
Fore
SplineSet
115 -14 m 256
 145 -14 170 11 170 41 c 256
 170 71 145 96 115 96 c 256
 85 96 60 71 60 41 c 256
 60 11 85 -14 115 -14 c 256
EndSplineSet
PickledDataWithLists: "(dp0
Vpublic.markColor
p1
V0.67,0.95,0.38,1
p2
s."
Substitution2: "'smcp' Lowercase to Small Capitals lookup 22 subtable" period.sc
Substitution2: "'c2sc' Capitals to Small Capitals lookup 21 subtable" period.sc
Substitution2: "'ordn' Ordinals lookup 15 subtable" period.ordn
Substitution2: "'sups' Superscript lookup 9 subtable" period.sups
Substitution2: "'sinf' Scientific Inferiors lookup 8 subtable" period.sinf
Substitution2: "'subs' Subscript lookup 7 subtable" period.subs
Comment: "+AAoA-period+AAoA"
EndChar
StartChar: one
Encoding: 1208 49 1207
GlifName: one
Width: 480
VWidth: 0
Flags: W
LayerCount: 2
Back
SplineSet
112 -3 m 256
 166 -3 197 2 251 2 c 256
 304 2 329 -3 386 -3 c 256
 394 -3 400 2 400 8 c 256
 400 14 391 19 383 21 c 256
 301 40 289 46 289 97 c 258
 289 557 l 258
 289 585 290 608 293 628 c 256
 294 633 287 637 281 637 c 256
 279 637 277 637 276 636 c 257
 226 596 197 581 137 574 c 256
 123 572 112 565 112 556 c 256
 112 545 125 540 138 539 c 256
 181 536 211 529 211 491 c 258
 211 109 l 258
 211 50 189 38 112 22 c 256
 104 20 97 14 97 9 c 256
 97 3 102 -3 112 -3 c 256
EndSplineSet
Fore
SplineSet
107 -3 m 256
 161 -3 203 2 257 2 c 256
 310 2 347 -3 404 -3 c 256
 412 -3 418 2 418 8 c 256
 418 14 409 19 401 21 c 256
 319 41 295 46 295 97 c 258
 295 557 l 258
 295 585 296 608 299 628 c 257
 300 633 293 637 287 637 c 256
 285 637 283 637 282 636 c 256
 237 591 192 583 132 574 c 256
 118 572 107 565 107 556 c 256
 107 545 120 540 133 539 c 256
 176 536 217 529 217 491 c 258
 217 109 l 258
 217 50 183 41 107 22 c 256
 99 20 92 14 92 9 c 256
 92 3 97 -3 107 -3 c 256
EndSplineSet
PickledDataWithLists: "(dp0
Vpublic.markColor
p1
V0.67,0.95,0.38,1
p2
s."
Substitution2: "'case' Case-Sensitive Forms lookup 25 subtable" one.lf
Substitution2: "'smcp' Lowercase to Small Capitals lookup 22 subtable" one.sc
Substitution2: "'c2sc' Capitals to Small Capitals lookup 21 subtable" one.sc
Substitution2: "'onum' Oldstyle Figures lookup 19 subtable" one.tosf
Substitution2: "'pnum' Proportional Numbers lookup 17 subtable" one.lf
Substitution2: "'ordn' Ordinals lookup 15 subtable" one.ordn
Substitution2: "UP subtable" one.numr
Substitution2: "'sups' Superscript lookup 9 subtable" onesuperior
Substitution2: "'sinf' Scientific Inferiors lookup 8 subtable" oneinferior
Substitution2: "'subs' Subscript lookup 7 subtable" one.subs
Comment: "+AAoA-one.tablining+AAoA"
EndChar
StartChar: two
Encoding: 1480 50 1479
GlifName: two
Width: 480
VWidth: 0
Flags: W
LayerCount: 2
Back
SplineSet
77 482 m 257
 88 505 148 568 215 568 c 256
 272 568 314 515 314 445 c 256
 314 325 230 236 200 205 c 258
 29 28 l 258
 23 22 21 15 21 9 c 256
 21 3 24 -2 29 -2 c 256
 49 -2 178 3 273 3 c 256
 324 3 392 -3 412 -3 c 256
 419 -3 426 0 430 21 c 256
 439 74 460 120 460 125 c 256
 460 130 459 134 455 133 c 257
 441 131 433 119 428 111 c 256
 403 71 390 67 333 64 c 256
 298 62 257 61 219 61 c 256
 182 61 148 62 126 64 c 256
 118 65 104 70 113 76 c 257
 178 123 400 323 400 461 c 256
 400 556 341 630 245 630 c 256
 130 630 57 520 47 493 c 256
 44 484 54 468 60 468 c 256
 66 468 73 475 77 482 c 257
EndSplineSet
Fore
Refer: 1481 -1 N 1 0 0 1 -4 0 2
PickledDataWithLists: "(dp0
Vcom.schriftgestaltung.Glyphs.ComponentInfo
p1
(lp2
(dp3
Valignment
p4
I-1
sVindex
p5
I0
sVname
p6
Vtwo.lf
p7
sasVpublic.markColor
p8
V0.67,0.95,0.38,1
p9
s."
Substitution2: "'case' Case-Sensitive Forms lookup 25 subtable" two.lf
Substitution2: "'smcp' Lowercase to Small Capitals lookup 22 subtable" two.sc
Substitution2: "'c2sc' Capitals to Small Capitals lookup 21 subtable" two.sc
Substitution2: "'onum' Oldstyle Figures lookup 19 subtable" two.tosf
Substitution2: "'pnum' Proportional Numbers lookup 17 subtable" two.lf
Substitution2: "'ordn' Ordinals lookup 15 subtable" two.ordn
Substitution2: "UP subtable" two.numr
Substitution2: "'sups' Superscript lookup 9 subtable" twosuperior
Substitution2: "'sinf' Scientific Inferiors lookup 8 subtable" twoinferior
Substitution2: "'subs' Subscript lookup 7 subtable" two.subs
Comment: "+AAoA-two.tablining+AAoA"
EndChar
StartChar: three
Encoding: 1457 51 1456
GlifName: three
Width: 480
VWidth: 0
Flags: W
LayerCount: 2
Back
SplineSet
55 0 m 256
 55 -20 104 -38 141 -38 c 256
 284 -38 429 53 429 203 c 256
 429 302 355 357 277 360 c 257
 272 360 272 364 276 366 c 257
 354 411 381 468 381 516 c 256
 381 588 308 630 252 630 c 256
 163 630 94 575 62 502 c 257
 59 496 54 482 62 482 c 256
 76 482 89 499 92 503 c 256
 126 546 156 570 208 570 c 256
 261 570 302 521 302 466 c 256
 302 395 199 343 176 332 c 256
 163 326 151 315 146 298 c 256
 144 291 156 285 163 289 c 256
 186 302 213 304 228 304 c 256
 321 304 344 222 344 146 c 256
 344 68 289 0 188 0 c 256
 154 0 132 18 111 39 c 256
 103 47 96 51 84 51 c 256
 62 51 55 22 55 0 c 256
EndSplineSet
Fore
Refer: 1458 -1 N 1 0 0 1 10 0 2
PickledDataWithLists: "(dp0
Vcom.schriftgestaltung.Glyphs.ComponentInfo
p1
(lp2
(dp3
Valignment
p4
I-1
sVindex
p5
I0
sVname
p6
Vthree.lf
p7
sasVpublic.markColor
p8
V0.67,0.95,0.38,1
p9
s."
Substitution2: "'case' Case-Sensitive Forms lookup 25 subtable" three.lf
Substitution2: "'smcp' Lowercase to Small Capitals lookup 22 subtable" three.sc
Substitution2: "'c2sc' Capitals to Small Capitals lookup 21 subtable" three.sc
Substitution2: "'onum' Oldstyle Figures lookup 19 subtable" three.tosf
Substitution2: "'pnum' Proportional Numbers lookup 17 subtable" three.lf
Substitution2: "'ordn' Ordinals lookup 15 subtable" three.ordn
Substitution2: "UP subtable" three.numr
Substitution2: "'sups' Superscript lookup 9 subtable" threesuperior
Substitution2: "'sinf' Scientific Inferiors lookup 8 subtable" threeinferior
Substitution2: "'subs' Subscript lookup 7 subtable" three.subs
Comment: "+AAoA-three.tablining+AAoA"
EndChar
StartChar: less
Encoding: 1081 60 1080
GlifName: less
Width: 560
VWidth: 0
Flags: W
LayerCount: 2
Fore
SplineSet
487 -2 m 258
 494 -5 507 -6 507 7 c 256
 507 16 502 46 483 55 c 258
 133 229 l 257
 130 230 129 233 132 234 c 257
 475 408 l 258
 495 418 506 447 506 459 c 256
 506 465 503 469 497 469 c 256
 496 469 492 468 489 466 c 258
 86 268 l 258
 66 258 53 231 53 222 c 256
 53 216 77 203 94 195 c 258
 487 -2 l 258
EndSplineSet
PickledDataWithLists: "(dp0
Vpublic.markColor
p1
V0.67,0.95,0.38,1
p2
s."
Substitution2: "'ss04' Style Set 4 lookup 33 subtable" bullet.03
Substitution2: "'ss02' Style Set 2 lookup 30 subtable" bullet.02
Substitution2: "'smcp' Lowercase to Small Capitals lookup 22 subtable" less.sc
Substitution2: "'c2sc' Capitals to Small Capitals lookup 21 subtable" less.sc
Substitution2: "'ordn' Ordinals lookup 15 subtable" less.ordn
Substitution2: "'sups' Superscript lookup 9 subtable" less.sups
Substitution2: "'sinf' Scientific Inferiors lookup 8 subtable" less.sinf
Substitution2: "'subs' Subscript lookup 7 subtable" less.subs
Comment: "+AAoA-less+AAoA"
EndChar
StartChar: equal
Encoding: 817 61 816
GlifName: equal
Width: 566
VWidth: 0
Flags: W
LayerCount: 2
Fore
SplineSet
64 314 m 258
 484 314 l 258
 500 314 516 339 516 353 c 256
 516 359 508 364 502 364 c 258
 74 364 l 258
 56 364 50 335 50 326 c 256
 50 320 57 314 64 314 c 258
64 143 m 258
 484 143 l 258
 500 143 516 164 516 182 c 256
 516 188 508 193 502 193 c 258
 74 193 l 258
 56 193 50 164 50 155 c 256
 50 149 57 143 64 143 c 258
EndSplineSet
PickledDataWithLists: "(dp0
Vpublic.markColor
p1
V0.67,0.95,0.38,1
p2
s."
Substitution2: "'smcp' Lowercase to Small Capitals lookup 22 subtable" equal.sc
Substitution2: "'c2sc' Capitals to Small Capitals lookup 21 subtable" equal.sc
Substitution2: "'ordn' Ordinals lookup 15 subtable" equal.ordn
Substitution2: "'sups' Superscript lookup 9 subtable" equal.sups
Substitution2: "'sinf' Scientific Inferiors lookup 8 subtable" equal.sinf
Substitution2: "'subs' Subscript lookup 7 subtable" equal.subs
Comment: "+AAoA-equal+AAoA"
EndChar
StartChar: greater
Encoding: 943 62 942
GlifName: greater
Width: 560
VWidth: 0
Flags: W
LayerCount: 2
Back
SplineSet
64 -6 m 257
 504 195 l 258
 524 204 537 232 537 241 c 256
 537 247 513 260 496 268 c 257
 75 465 l 258
 69 468 64 469 64 469 c 258
 58 469 53 461 53 456 c 256
 53 447 58 417 77 408 c 258
 457 234 l 257
 460 233 461 230 458 229 c 257
 85 55 l 258
 65 46 54 16 54 4 c 256
 54 -1 58 -6 64 -6 c 257
EndSplineSet
Fore
Refer: 1080 60 N -1 0 0 -1 560 465 2
PickledDataWithLists: "(dp0
Vcom.schriftgestaltung.Glyphs.glyph.leftMetricsKey
p1
V=|less
p2
sVcom.schriftgestaltung.Glyphs.glyph.rightMetricsKey
p3
V=|less
p4
sVpublic.markColor
p5
V0.67,0.95,0.38,1
p6
s."
Substitution2: "'ss04' Style Set 4 lookup 33 subtable" uni2767.01
Substitution2: "'ss02' Style Set 2 lookup 30 subtable" bullet.01
Substitution2: "'smcp' Lowercase to Small Capitals lookup 22 subtable" greater.sc
Substitution2: "'c2sc' Capitals to Small Capitals lookup 21 subtable" greater.sc
Substitution2: "'ordn' Ordinals lookup 15 subtable" greater.ordn
Substitution2: "'sups' Superscript lookup 9 subtable" greater.sups
Substitution2: "'sinf' Scientific Inferiors lookup 8 subtable" greater.sinf
Substitution2: "'subs' Subscript lookup 7 subtable" greater.subs
Comment: "+AAoA-greater+AAoA"
EndChar
StartChar: question
Encoding: 1310 63 1309
GlifName: question
Width: 376
VWidth: 0
Flags: W
LayerCount: 2
Fore
SplineSet
136 181 m 256
 146 181 151 194 151 204 c 256
 152 236 155 265 183 283 c 256
 215 304 225 310 269 334 c 256
 289 345 311 369 311 418 c 256
 311 469 274 555 218 611 c 256
 185 644 143 661 110 661 c 256
 93 661 70 644 70 625 c 256
 70 598 91 569 112 569 c 256
 122 569 129 570 136 571 c 256
 143 572 150 573 159 573 c 256
 227 572 260 524 260 458 c 256
 260 429 227 401 199 387 c 256
 136 355 98 331 98 297 c 256
 98 252 108 231 114 210 c 256
 118 194 129 181 136 181 c 256
150 -14 m 256
 183 -14 210 13 210 46 c 256
 210 79 183 106 150 106 c 256
 117 106 90 79 90 46 c 256
 90 13 117 -14 150 -14 c 256
EndSplineSet
PickledDataWithLists: "(dp0
Vpublic.markColor
p1
V0.67,0.95,0.38,1
p2
s."
Substitution2: "'smcp' Lowercase to Small Capitals lookup 22 subtable" question.sc
Substitution2: "'c2sc' Capitals to Small Capitals lookup 21 subtable" question.sc
Substitution2: "'ordn' Ordinals lookup 15 subtable" question.ordn
Substitution2: "'sups' Superscript lookup 9 subtable" question.sups
Substitution2: "'sinf' Scientific Inferiors lookup 8 subtable" question.sinf
Substitution2: "'subs' Subscript lookup 7 subtable" question.subs
Comment: "+AAoA-question+AAoA"
EndChar
StartChar: at
Encoding: 579 64 578
GlifName: at
Width: 749
VWidth: 0
Flags: W
LayerCount: 2
Fore
SplineSet
382 -131 m 256
 490 -131 632 -41 632 -17 c 256
 632 -8 627 -4 618 -4 c 256
 613 -4 606 -9 600 -14 c 256
 550 -56 458 -91 393 -91 c 256
 234 -91 97 32 97 191 c 256
 97 360 236 467 394 467 c 256
 533 467 652 359 652 220 c 256
 652 137 588 84 518 84 c 256
 504 84 500 98 500 113 c 256
 500 122 502 131 503 140 c 257
 524 272 l 258
 527 288 537 328 546 352 c 257
 549 356 532 360 528 360 c 256
 518 360 513 341 503 341 c 256
 499 341 495 342 480 347 c 256
 468 351 435 355 415 355 c 256
 305 355 204 277 204 156 c 256
 204 86 256 47 322 47 c 256
 385 47 428 84 438 84 c 256
 448 84 451 47 492 47 c 256
 599 47 699 118 699 235 c 256
 699 384 563 507 414 507 c 256
 223 507 50 395 50 181 c 256
 50 -3 204 -131 382 -131 c 256
358 81 m 256
 320 81 275 103 275 175 c 256
 275 273 336 325 393 325 c 256
 436 325 465 304 465 267 c 256
 465 263 465 259 464 255 c 257
 445 152 l 258
 439 121 430 111 418 103 c 256
 398 89 382 81 358 81 c 256
EndSplineSet
Substitution2: "'smcp' Lowercase to Small Capitals lookup 22 subtable" at.sc
Substitution2: "'c2sc' Capitals to Small Capitals lookup 21 subtable" at.sc
Substitution2: "'ordn' Ordinals lookup 15 subtable" at.ordn
Substitution2: "'sups' Superscript lookup 9 subtable" at.sups
Substitution2: "'sinf' Scientific Inferiors lookup 8 subtable" at.sinf
Substitution2: "'subs' Subscript lookup 7 subtable" at.subs
Comment: "+AAoA-at+AAoA"
EndChar
StartChar: A
Encoding: 1 65 1
GlifName: A_
Width: 692
VWidth: 0
Flags: W
AnchorPoint: "bottom.cap" 335 -30 basechar 0
AnchorPoint: "top.cap" 363 675 basechar 0
LayerCount: 2
Back
SplineSet
27 -5 m 256
 60 -5 103 1 147 1 c 256
 184 1 220 -1 238 -1 c 256
 255 -1 267 2 267 10 c 256
 267 19 257 24 234 30 c 256
 202 38 176 58 176 87 c 256
 176 100 207 200 216 226 c 256
 221 240 227 244 233 244 c 258
 424 244 l 258
 442 244 448 243 451 233 c 256
 466 183 489 105 489 76 c 256
 489 54 472 38 428 31 c 256
 410 28 395 21 395 12 c 256
 395 4 407 0 424 0 c 256
 448 0 490 1 529 1 c 256
 574 1 640 -5 668 -5 c 256
 685 -5 697 -3 697 5 c 256
 697 14 687 24 664 28 c 256
 624 35 591 48 563 128 c 256
 530 223 449 459 385 662 c 256
 382 670 381 678 378 684 c 257
 377 686 374 686 373 685 c 257
 369 679 366 659 354 651 c 256
 342 643 330 640 318 636 c 257
 316 615 311 597 304 578 c 256
 236 393 192 279 117 108 c 256
 95 58 65 41 31 31 c 256
 9 24 -2 17 -2 8 c 256
 -2 0 10 -5 27 -5 c 256
262 287 m 258
 249 287 241 287 241 294 c 256
 241 296 242 299 243 302 c 257
 333 542 l 258
 337 553 339 559 341 559 c 256
 344 559 346 553 350 541 c 258
 429 302 l 257
 430 298 431 294 431 292 c 256
 431 287 427 287 417 287 c 258
 262 287 l 258
EndSplineSet
Fore
SplineSet
27 -5 m 256
 60 -5 103 1 147 1 c 256
 184 1 220 -1 238 -1 c 256
 255 -1 267 2 267 10 c 256
 267 19 257 24 234 30 c 256
 202 38 176 58 176 87 c 256
 176 100 208 205 217 231 c 256
 222 245 228 249 234 249 c 258
 423 249 l 258
 441 249 447 248 450 238 c 256
 465 188 489 105 489 76 c 256
 489 54 472 38 428 31 c 256
 410 28 395 21 395 12 c 256
 395 4 407 0 424 0 c 256
 448 0 490 1 529 1 c 256
 574 1 640 -5 668 -5 c 256
 685 -5 697 -3 697 5 c 256
 697 14 687 24 664 28 c 256
 624 35 591 48 563 128 c 256
 530 223 449 459 385 662 c 256
 382 670 381 678 378 684 c 257
 377 686 374 686 373 685 c 257
 369 679 366 659 354 651 c 256
 342 643 330 640 318 636 c 257
 316 615 311 597 304 578 c 256
 236 393 192 279 117 108 c 256
 95 58 65 41 31 31 c 256
 9 24 -2 17 -2 8 c 256
 -2 0 10 -5 27 -5 c 256
261 282 m 258
 248 282 240 282 240 289 c 256
 240 291 241 294 242 297 c 257
 333 542 l 258
 337 553 339 559 341 559 c 256
 344 559 346 553 350 541 c 258
 428 297 l 257
 429 293 430 289 430 287 c 256
 430 282 426 282 416 282 c 258
 261 282 l 258
EndSplineSet
PickledDataWithLists: "(dp0
Vpublic.markColor
p1
V0.67,0.95,0.38,1
p2
s."
Substitution2: "'c2pc' Capitals to Petite Capitals lookup 23 subtable" A.pc
Substitution2: "'c2sc' Capitals to Small Capitals lookup 21 subtable" A.sc
Substitution2: "'ordn' Ordinals lookup 15 subtable" A.ordn
Substitution2: "'sups' Superscript lookup 9 subtable" A.sups
Substitution2: "'sinf' Scientific Inferiors lookup 8 subtable" A.sinf
Substitution2: "'subs' Subscript lookup 7 subtable" A.subs
Comment: "+AAoA-A+AAoA"
EndChar
StartChar: B
Encoding: 35 66 35
GlifName: B_
Width: 587
VWidth: 0
Flags: W
AnchorPoint: "bottom.cap" 266 -30 basechar 0
AnchorPoint: "top.cap" 258 675 basechar 0
LayerCount: 2
Fore
SplineSet
48 -5 m 256
 106 -5 126 0 178 0 c 256
 218 0 255 -4 273 -4 c 256
 349 -4 401 9 443 30 c 256
 484 51 547 84 547 194 c 256
 547 310 465 339 405 359 c 256
 399 361 400 367 405 369 c 256
 438 382 451 391 472 412 c 256
 487 427 506 463 506 508 c 256
 506 617 430 657 274 657 c 256
 216 657 201 652 163 652 c 256
 122 652 113 653 59 653 c 256
 42 653 30 650 30 642 c 256
 30 633 40 624 63 622 c 256
 112 618 130 597 130 549 c 258
 130 99 l 258
 130 51 102 33 52 24 c 256
 29 20 19 15 19 6 c 256
 19 -2 31 -5 48 -5 c 256
287 37 m 256
 236 37 208 52 208 108 c 258
 208 307 l 258
 208 320 222 343 265 343 c 256
 325 343 361 328 379 318 c 256
 406 303 453 266 453 189 c 256
 453 103 375 37 287 37 c 256
254 371 m 256
 238 371 208 373 208 408 c 258
 208 582 l 258
 208 612 219 627 274 627 c 256
 397 627 420 552 420 495 c 256
 420 437 389 408 375 400 c 256
 334 377 290 371 254 371 c 256
EndSplineSet
PickledDataWithLists: "(dp0
Vpublic.markColor
p1
V0.67,0.95,0.38,1
p2
s."
Substitution2: "'c2pc' Capitals to Petite Capitals lookup 23 subtable" B.pc
Substitution2: "'c2sc' Capitals to Small Capitals lookup 21 subtable" B.sc
Substitution2: "'ordn' Ordinals lookup 15 subtable" B.ordn
Substitution2: "'sups' Superscript lookup 9 subtable" B.sups
Substitution2: "'sinf' Scientific Inferiors lookup 8 subtable" B.sinf
Substitution2: "'subs' Subscript lookup 7 subtable" B.subs
Comment: "+AAoA-B+AAoA"
EndChar
StartChar: C
Encoding: 44 67 44
GlifName: C_
Width: 710
VWidth: 0
Flags: W
AnchorPoint: "bottom.cap" 392 -30 basechar 0
AnchorPoint: "top.cap" 401 675 basechar 0
LayerCount: 2
Back
SplineSet
386 -15 m 256
 447 -15 518 -6 564 14 c 256
 584 21 585 22 594 41 c 256
 606 70 620 122 620 138 c 256
 620 159 597 157 588 141 c 256
 548 62 491 16 400 16 c 256
 244 16 146 184 146 347 c 256
 146 494 247 632 394 632 c 256
 446 632 492 620 523 598 c 256
 556 574 571 539 581 487 c 256
 586 464 614 473 613 488 c 256
 611 540 608 572 605 603 c 256
 603 621 596 632 577 637 c 256
 513 654 482 663 410 663 c 256
 217 663 46 517 46 323 c 256
 46 119 210 -15 386 -15 c 256
EndSplineSet
Fore
SplineSet
407 -15 m 256
 472 -15 547 -6 596 14 c 256
 617 21 618 22 628 41 c 256
 640 70 655 122 655 138 c 256
 655 159 630 158 621 141 c 256
 577 62 518 16 422 16 c 256
 256 16 147 184 147 347 c 256
 147 494 259 632 415 632 c 256
 470 632 519 620 552 598 c 256
 587 574 601 538 614 487 c 256
 620 464 649 473 648 488 c 256
 646 540 642 572 639 603 c 256
 637 621 630 632 610 637 c 256
 542 654 509 663 432 663 c 256
 227 663 46 517 46 323 c 256
 46 119 220 -15 407 -15 c 256
EndSplineSet
PickledDataWithLists: "(dp0
Vpublic.markColor
p1
V0.67,0.95,0.38,1
p2
s."
Substitution2: "'c2pc' Capitals to Petite Capitals lookup 23 subtable" C.pc
Substitution2: "'c2sc' Capitals to Small Capitals lookup 21 subtable" C.sc
Substitution2: "'ordn' Ordinals lookup 15 subtable" C.ordn
Substitution2: "'sups' Superscript lookup 9 subtable" C.sups
Substitution2: "'sinf' Scientific Inferiors lookup 8 subtable" C.sinf
Substitution2: "'subs' Subscript lookup 7 subtable" C.subs
Comment: "+AAoA-C+AAoA"
EndChar
StartChar: D
Encoding: 69 68 69
GlifName: D_
Width: 754
VWidth: 0
Flags: W
AnchorPoint: "bottom.cap" 363 -30 basechar 0
AnchorPoint: "top.cap" 364 675 basechar 0
LayerCount: 2
Fore
SplineSet
371 -7 m 256
 562 -7 719 150 719 342 c 256
 719 517 611 659 340 659 c 256
 313 659 212 651 169 651 c 256
 121 651 109 653 58 653 c 256
 41 653 29 649 29 640 c 256
 29 629 39 626 62 622 c 256
 112 613 129 597 129 549 c 258
 129 99 l 258
 129 51 112 33 62 24 c 256
 39 20 29 19 29 8 c 256
 29 -2 41 -5 58 -5 c 256
 111 -5 123 0 163 0 c 256
 242 0 351 -7 371 -7 c 256
359 28 m 256
 284 28 209 40 209 121 c 258
 209 567 l 258
 209 627 258 628 345 628 c 256
 482 628 624 517 624 325 c 256
 624 151 515 28 359 28 c 256
EndSplineSet
PickledDataWithLists: "(dp0
Vpublic.markColor
p1
V0.67,0.95,0.38,1
p2
s."
Substitution2: "'c2pc' Capitals to Petite Capitals lookup 23 subtable" D.pc
Substitution2: "'c2sc' Capitals to Small Capitals lookup 21 subtable" D.sc
Substitution2: "'ordn' Ordinals lookup 15 subtable" D.ordn
Substitution2: "'sups' Superscript lookup 9 subtable" D.sups
Substitution2: "'sinf' Scientific Inferiors lookup 8 subtable" D.sinf
Substitution2: "'subs' Subscript lookup 7 subtable" D.subs
Comment: "+AAoA-D+AAoA"
EndChar
StartChar: E
Encoding: 81 69 81
GlifName: E_
Width: 564
VWidth: 0
Flags: W
AnchorPoint: "bottom.cap" 293 -30 basechar 0
AnchorPoint: "top.cap" 298 675 basechar 0
LayerCount: 2
Back
SplineSet
66 -5 m 256
 120 -5 136 1 181 1 c 256
 281 1 380 -5 508 -5 c 256
 516 -5 520 3 522 12 c 257
 529 38 539 110 539 128 c 256
 539 136 535 141 528 142 c 256
 521 143 516 137 512 129 c 256
 492 90 477 66 455 52 c 256
 435 39 408 35 364 35 c 258
 290 35 l 258
 245 35 224 51 224 102 c 258
 224 294 l 258
 224 317 235 320 258 320 c 258
 351 320 l 258
 377 320 389 306 397 275 c 256
 402 254 410 243 420 243 c 256
 428 243 429 251 429 260 c 256
 429 268 427 317 427 337 c 256
 427 353 430 398 430 407 c 256
 430 417 422 423 417 423 c 256
 409 423 403 416 399 401 c 256
 389 364 380 352 341 352 c 258
 242 352 l 258
 232 352 224 362 224 374 c 258
 224 586 l 258
 224 605 249 618 260 618 c 258
 391 618 l 258
 416 618 439 612 458 591 c 256
 467 581 473 558 480 536 c 256
 482 529 484 526 491 526 c 256
 497 526 505 529 505 541 c 256
 505 568 497 606 490 644 c 257
 489 651 479 653 472 653 c 256
 467 653 432 652 387 651 c 256
 345 651 294 650 250 650 c 256
 180 650 148 653 73 653 c 256
 56 653 44 650 44 642 c 256
 44 633 54 626 77 622 c 256
 127 613 144 597 144 549 c 258
 144 99 l 258
 144 51 120 33 70 24 c 256
 47 20 37 15 37 6 c 256
 37 -2 49 -5 66 -5 c 256
EndSplineSet
Fore
SplineSet
66 -5 m 256
 120 -5 136 1 181 1 c 256
 281 1 366 -5 494 -5 c 256
 502 -5 504 3 508 12 c 256
 520 39 539 110 539 128 c 256
 539 136 535 141 528 142 c 256
 521 143 516 137 512 129 c 256
 491 89 476 66 455 52 c 256
 434 39 407 35 364 35 c 258
 290 35 l 258
 245 35 224 51 224 102 c 258
 224 294 l 258
 224 317 235 320 258 320 c 258
 351 320 l 258
 377 320 389 306 397 275 c 256
 402 254 410 243 420 243 c 256
 428 243 429 251 429 260 c 256
 429 268 427 317 427 337 c 256
 427 353 430 398 430 407 c 256
 430 417 422 423 417 423 c 256
 409 423 403 416 399 401 c 256
 389 364 380 352 341 352 c 258
 242 352 l 258
 232 352 224 362 224 374 c 258
 224 586 l 258
 224 605 249 618 260 618 c 258
 391 618 l 258
 416 618 439 612 458 591 c 256
 467 581 473 558 480 536 c 256
 482 529 484 526 491 526 c 256
 497 526 505 529 505 541 c 256
 505 568 497 606 490 644 c 257
 489 651 479 653 472 653 c 256
 467 653 432 652 387 651 c 256
 345 651 294 650 250 650 c 256
 180 650 148 653 73 653 c 256
 56 653 44 650 44 642 c 256
 44 633 54 626 77 622 c 256
 127 613 144 597 144 549 c 258
 144 99 l 258
 144 51 120 33 70 24 c 256
 47 20 37 15 37 6 c 256
 37 -2 49 -5 66 -5 c 256
EndSplineSet
PickledDataWithLists: "(dp0
Vcom.schriftgestaltung.Glyphs.glyph.leftMetricsKey
p1
VH
p2
sVpublic.markColor
p3
V0.67,0.95,0.38,1
p4
s."
Substitution2: "'c2pc' Capitals to Petite Capitals lookup 23 subtable" E.pc
Substitution2: "'c2sc' Capitals to Small Capitals lookup 21 subtable" E.sc
Substitution2: "'ordn' Ordinals lookup 15 subtable" E.ordn
Substitution2: "'sups' Superscript lookup 9 subtable" E.sups
Substitution2: "'sinf' Scientific Inferiors lookup 8 subtable" E.sinf
Substitution2: "'subs' Subscript lookup 7 subtable" E.subs
Comment: "+AAoA-E+AAoA"
EndChar
StartChar: F
Encoding: 134 70 134
GlifName: F_
Width: 512
VWidth: 0
Flags: W
AnchorPoint: "bottom.cap" 185 -30 basechar 0
AnchorPoint: "top.cap" 280 675 basechar 0
LayerCount: 2
Fore
SplineSet
59 -5 m 256
 113 -5 136 2 185 2 c 256
 223 2 229 -5 283 -5 c 256
 300 -5 312 -2 312 6 c 256
 312 15 302 20 279 24 c 256
 229 33 215 58 213 101 c 256
 210 167 210 231 210 292 c 256
 210 309 221 316 234 317 c 256
 255 319 276 319 299 319 c 256
 315 319 332 318 349 318 c 256
 365 318 386 309 396 278 c 256
 398 271 406 255 419 255 c 256
 427 255 428 263 428 272 c 257
 426 301 425 320 425 340 c 256
 425 356 426 372 428 395 c 256
 429 404 420 411 415 411 c 256
 410 411 399 399 397 394 c 256
 387 371 365 353 336 353 c 256
 312 353 262 350 220 350 c 256
 211 350 210 361 210 372 c 257
 209 396 209 433 209 467 c 256
 209 502 209 542 210 567 c 256
 211 593 213 617 244 617 c 258
 371 617 l 258
 396 617 419 611 438 590 c 256
 447 580 455 563 461 541 c 256
 463 534 469 529 476 529 c 256
 482 529 485 538 485 550 c 256
 485 564 483 628 480 651 c 256
 479 658 469 660 462 660 c 256
 438 660 406 650 363 650 c 257
 322 650 276 650 237 650 c 256
 168 650 138 653 65 653 c 256
 48 653 36 650 36 642 c 256
 36 633 46 626 69 622 c 256
 119 613 130 582 130 522 c 258
 130 100 l 258
 130 51 113 33 63 24 c 256
 40 20 30 15 30 6 c 256
 30 -2 42 -5 59 -5 c 256
EndSplineSet
PickledDataWithLists: "(dp0
Vpublic.markColor
p1
V0.67,0.95,0.38,1
p2
s."
Substitution2: "'c2pc' Capitals to Petite Capitals lookup 23 subtable" F.pc
Substitution2: "'c2sc' Capitals to Small Capitals lookup 21 subtable" F.sc
Substitution2: "'ordn' Ordinals lookup 15 subtable" F.ordn
Substitution2: "'sups' Superscript lookup 9 subtable" F.sups
Substitution2: "'sinf' Scientific Inferiors lookup 8 subtable" F.sinf
Substitution2: "'subs' Subscript lookup 7 subtable" F.subs
Comment: "+AAoA-F+AAoA"
EndChar
StartChar: G
Encoding: 141 71 141
GlifName: G_
Width: 729
VWidth: 0
Flags: W
AnchorPoint: "bottom.cap" 399 -30 basechar 0
AnchorPoint: "top" 403 675 basechar 0
AnchorPoint: "top.cap" 413 675 basechar 0
LayerCount: 2
Back
SplineSet
392 -14 m 256
 519 -14 610 50 630 53 c 256
 644 55 644 67 644 72 c 256
 644 77 635 82 631 89 c 257
 628 95 625 98 625 105 c 258
 625 132 l 258
 625 157 626 178 630 207 c 256
 634 234 643 248 672 256 c 257
 677 257 693 265 693 274 c 256
 693 287 677 290 672 290 c 256
 636 290 618 286 583 286 c 256
 528 286 506 290 457 290 c 256
 452 290 437 283 437 273 c 256
 437 263 452 256 457 256 c 256
 477 256 538 247 555 225 c 256
 559 220 560 209 560 195 c 256
 560 177 558 154 558 137 c 256
 558 102 543 75 528 60 c 256
 516 48 483 23 406 23 c 256
 273 23 144 134 144 324 c 256
 144 482 249 625 404 625 c 256
 499 625 550 588 563 572 c 256
 579 553 586 540 594 519 c 257
 598 507 603 492 617 492 c 256
 625 492 632 502 632 512 c 256
 632 538 627 582 621 624 c 256
 619 639 463 663 413 663 c 256
 214 663 45 509 45 311 c 256
 45 126 207 -14 392 -14 c 256
EndSplineSet
Fore
SplineSet
392 -14 m 256
 519 -14 610 50 630 53 c 256
 644 55 644 67 644 72 c 256
 644 77 635 82 631 89 c 257
 628 95 625 98 625 105 c 258
 625 132 l 258
 625 157 626 178 630 207 c 256
 634 234 643 248 672 256 c 257
 677 257 693 265 693 274 c 256
 693 287 677 290 672 290 c 256
 636 290 618 286 583 286 c 256
 528 286 506 290 457 290 c 256
 452 290 437 283 437 273 c 256
 437 263 452 256 457 256 c 256
 477 256 538 247 555 225 c 256
 559 220 560 209 560 195 c 256
 560 177 558 154 558 137 c 256
 558 102 543 75 528 60 c 256
 516 48 483 23 406 23 c 256
 273 23 144 134 144 324 c 256
 144 482 249 625 404 625 c 256
 499 625 550 588 563 572 c 256
 579 553 586 540 594 519 c 257
 598 507 603 492 617 492 c 256
 625 492 632 502 632 512 c 256
 632 538 627 579 622 618 c 256
 621 625 619 627 613 630 c 256
 586 643 459 663 413 663 c 256
 214 663 45 509 45 311 c 256
 45 126 207 -14 392 -14 c 256
EndSplineSet
PickledDataWithLists: "(dp0
Vpublic.markColor
p1
V0.67,0.95,0.38,1
p2
s."
Substitution2: "'c2pc' Capitals to Petite Capitals lookup 23 subtable" G.pc
Substitution2: "'c2sc' Capitals to Small Capitals lookup 21 subtable" G.sc
Substitution2: "'ordn' Ordinals lookup 15 subtable" G.ordn
Substitution2: "'sups' Superscript lookup 9 subtable" G.sups
Substitution2: "'sinf' Scientific Inferiors lookup 8 subtable" G.sinf
Substitution2: "'subs' Subscript lookup 7 subtable" G.subs
Comment: "+AAoA-G+AAoA"
EndChar
StartChar: H
Encoding: 162 72 162
GlifName: H_
Width: 810
VWidth: 0
Flags: W
AnchorPoint: "bottom.cap" 405 -30 basechar 0
AnchorPoint: "top.cap" 405 675 basechar 0
LayerCount: 2
Fore
SplineSet
66 -5 m 256
 120 -5 133 0 176 0 c 256
 222 0 239 -5 293 -5 c 256
 310 -5 322 0 322 8 c 256
 322 17 313 20 290 24 c 256
 244 32 210 64 210 106 c 258
 210 296 l 258
 210 304 210 307 215 307 c 258
 597 307 l 258
 603 307 602 299 602 292 c 258
 602 97 l 258
 602 54 575 32 533 24 c 256
 510 20 501 17 501 8 c 256
 501 0 513 -5 530 -5 c 256
 584 -5 595 0 637 0 c 256
 678 0 687 -5 741 -5 c 256
 758 -5 770 0 770 8 c 256
 770 17 761 20 738 24 c 256
 688 33 682 51 682 100 c 258
 682 552 l 258
 682 590 685 613 735 622 c 256
 758 626 768 631 768 640 c 256
 768 648 758 653 739 653 c 256
 685 653 684 650 648 650 c 256
 603 650 586 653 532 653 c 256
 514 653 503 648 503 640 c 256
 503 631 513 626 536 622 c 256
 586 613 602 588 602 552 c 258
 602 357 l 258
 602 348 600 345 595 345 c 258
 224 345 l 258
 218 345 210 346 210 354 c 258
 210 551 l 258
 210 590 228 613 278 622 c 256
 301 626 311 631 311 640 c 256
 311 648 302 653 282 653 c 256
 228 653 217 650 176 650 c 256
 136 650 127 653 73 653 c 256
 53 653 44 648 44 640 c 256
 44 631 54 626 77 622 c 256
 127 613 130 597 130 551 c 258
 130 99 l 258
 130 51 119 33 69 24 c 256
 46 20 37 17 37 8 c 256
 37 0 49 -5 66 -5 c 256
EndSplineSet
PickledDataWithLists: "(dp0
Vpublic.markColor
p1
V0.67,0.95,0.38,1
p2
s."
Substitution2: "'c2pc' Capitals to Petite Capitals lookup 23 subtable" H.pc
Substitution2: "'c2sc' Capitals to Small Capitals lookup 21 subtable" H.sc
Substitution2: "'ordn' Ordinals lookup 15 subtable" H.ordn
Substitution2: "'sups' Superscript lookup 9 subtable" H.sups
Substitution2: "'sinf' Scientific Inferiors lookup 8 subtable" H.sinf
Substitution2: "'subs' Subscript lookup 7 subtable" H.subs
Comment: "+AAoA-H+AAoA"
EndChar
StartChar: I
Encoding: 177 73 177
GlifName: I_
Width: 340
VWidth: 0
Flags: W
AnchorPoint: "bottom.cap" 170 -30 basechar 0
AnchorPoint: "top.cap" 170 675 basechar 0
LayerCount: 2
Fore
SplineSet
48 -5 m 256
 102 -5 126 0 176 0 c 256
 222 0 239 -5 293 -5 c 256
 310 -5 322 -2 322 6 c 256
 322 15 312 20 289 24 c 256
 239 33 210 51 210 98 c 258
 210 550 l 258
 210 597 231 613 281 622 c 256
 304 626 314 633 314 642 c 256
 314 650 302 653 285 653 c 256
 231 653 219 650 176 650 c 256
 130 650 113 653 59 653 c 256
 42 653 30 650 30 642 c 256
 30 633 40 626 63 622 c 256
 113 613 130 597 130 550 c 258
 130 98 l 258
 130 51 102 33 52 24 c 256
 29 20 19 15 19 6 c 256
 19 -2 31 -5 48 -5 c 256
EndSplineSet
PickledDataWithLists: "(dp0
Vpublic.markColor
p1
V0.67,0.95,0.38,1
p2
s."
Substitution2: "'c2pc' Capitals to Petite Capitals lookup 23 subtable" I.pc
Substitution2: "'c2sc' Capitals to Small Capitals lookup 21 subtable" I.sc
Substitution2: "'ordn' Ordinals lookup 15 subtable" I.ordn
Substitution2: "'sups' Superscript lookup 9 subtable" I.sups
Substitution2: "'sinf' Scientific Inferiors lookup 8 subtable" I.sinf
Substitution2: "'subs' Subscript lookup 7 subtable" I.subs
Comment: "+AAoA-I+AAoA"
EndChar
StartChar: J
Encoding: 211 74 211
GlifName: J_
Width: 340
VWidth: 0
Flags: W
AnchorPoint: "top.cap" 164 675 basechar 0
LayerCount: 2
Back
SplineSet
34 -200 m 256
 73 -200 107 -180 134 -148 c 256
 182 -92 210 2 210 89 c 258
 210 551 l 258
 210 597 217 613 267 622 c 256
 290 626 300 633 300 642 c 256
 300 650 288 653 271 653 c 256
 217 653 214 650 177 650 c 256
 131 650 114 653 60 653 c 256
 43 653 31 650 31 642 c 256
 31 633 42 626 64 622 c 256
 112 613 130 597 130 551 c 258
 130 -1 l 258
 130 -98 111 -159 64 -159 c 256
 47 -159 34 -151 17 -129 c 256
 3 -111 -13 -104 -30 -104 c 256
 -45 -104 -69 -128 -69 -151 c 256
 -69 -182 -34 -200 34 -200 c 256
EndSplineSet
Fore
SplineSet
34 -200 m 256
 73 -200 104 -178 131 -146 c 256
 163 -108 210 -37 210 47 c 258
 210 551 l 258
 210 597 217 613 267 622 c 256
 290 626 300 633 300 642 c 256
 300 650 288 653 271 653 c 256
 217 653 214 650 177 650 c 256
 131 650 114 653 60 653 c 256
 43 653 31 650 31 642 c 256
 31 633 42 626 64 622 c 256
 112 613 130 597 130 551 c 258
 130 -1 l 258
 130 -98 111 -159 64 -159 c 256
 47 -159 34 -151 17 -129 c 256
 3 -111 -13 -104 -30 -104 c 256
 -45 -104 -69 -128 -69 -151 c 256
 -69 -182 -34 -200 34 -200 c 256
EndSplineSet
PickledDataWithLists: "(dp0
Vpublic.markColor
p1
V0.67,0.95,0.38,1
p2
s."
Substitution2: "'ss07' Style Set 7 lookup 36 subtable" J.hist
Substitution2: "'c2pc' Capitals to Petite Capitals lookup 23 subtable" J.pc
Substitution2: "'c2sc' Capitals to Small Capitals lookup 21 subtable" J.sc
Substitution2: "'hist' Historical Forms lookup 20 subtable" J.hist
Substitution2: "'ordn' Ordinals lookup 15 subtable" J.ordn
Substitution2: "'sups' Superscript lookup 9 subtable" J.sups
Substitution2: "'sinf' Scientific Inferiors lookup 8 subtable" J.sinf
Substitution2: "'subs' Subscript lookup 7 subtable" J.subs
Comment: "+AAoA-J+AAoA"
EndChar
StartChar: K
Encoding: 221 75 221
GlifName: K_
Width: 681
VWidth: 0
Flags: W
AnchorPoint: "bottom.cap" 348 -30 basechar 0
AnchorPoint: "top.cap" 342 675 basechar 0
LayerCount: 2
Fore
SplineSet
60 -5 m 256
 114 -5 137 2 186 2 c 256
 224 2 230 -5 284 -5 c 256
 301 -5 313 -2 313 6 c 256
 313 15 303 20 280 24 c 256
 230 33 218 67 216 110 c 256
 213 190 211 239 211 302 c 256
 211 309 210 323 215 323 c 256
 220 323 230 314 238 306 c 257
 450 72 l 258
 458 63 465 55 465 47 c 256
 465 39 457 32 437 27 c 257
 418 23 410 19 410 10 c 256
 410 2 422 -1 439 -1 c 256
 484 -1 495 0 520 0 c 256
 575 0 600 -5 659 -5 c 256
 676 -5 688 -2 688 6 c 256
 688 15 678 19 655 24 c 256
 598 36 588 47 545 95 c 258
 303 353 l 258
 296 360 293 366 298 371 c 257
 368 448 418 497 490 558 c 256
 536 597 592 615 642 624 c 256
 665 628 675 635 675 644 c 256
 675 651 666 655 653 655 c 256
 640 655 548 651 491 651 c 258
 437 651 l 258
 420 651 408 648 408 640 c 256
 408 631 416 626 439 620 c 256
 451 617 458 608 458 597 c 256
 458 588 453 577 443 567 c 258
 243 363 l 257
 236 355 223 345 216 345 c 256
 211 345 211 359 211 364 c 258
 211 551 l 258
 211 590 215 613 265 622 c 256
 288 626 298 633 298 642 c 256
 298 650 286 653 269 653 c 256
 215 653 210 651 172 651 c 256
 128 651 114 653 60 653 c 256
 43 653 31 650 31 642 c 256
 31 633 41 626 64 622 c 256
 114 613 131 597 131 551 c 258
 131 101 l 258
 131 51 114 33 64 24 c 256
 41 20 31 15 31 6 c 256
 31 -2 43 -5 60 -5 c 256
EndSplineSet
PickledDataWithLists: "(dp0
Vpublic.markColor
p1
V0.67,0.95,0.38,1
p2
s."
Substitution2: "'c2pc' Capitals to Petite Capitals lookup 23 subtable" K.pc
Substitution2: "'c2sc' Capitals to Small Capitals lookup 21 subtable" K.sc
Substitution2: "'ordn' Ordinals lookup 15 subtable" K.ordn
Substitution2: "'sups' Superscript lookup 9 subtable" K.sups
Substitution2: "'sinf' Scientific Inferiors lookup 8 subtable" K.sinf
Substitution2: "'subs' Subscript lookup 7 subtable" K.subs
Comment: "+AAoA-K+AAoA"
EndChar
StartChar: L
Encoding: 236 76 236
GlifName: L_
Width: 584
VWidth: 0
Flags: W
AnchorPoint: "bottom.cap" 311 -30 basechar 0
AnchorPoint: "top.cap" 187 675 basechar 0
LayerCount: 2
Fore
SplineSet
55 -5 m 257
 55 -5 140 0 190 0 c 256
 290 0 399 -5 533 -5 c 256
 543 -5 546 3 547 12 c 256
 551 54 560 87 574 139 c 257
 574 140 575 142 575 144 c 256
 575 152 571 162 563 162 c 256
 554 162 544 140 541 132 c 256
 524 96 515 84 489 61 c 256
 476 49 447 35 411 35 c 258
 287 35 l 258
 221 35 210 55 210 96 c 258
 210 567 l 258
 210 606 249 613 299 622 c 256
 322 626 332 633 332 642 c 256
 332 650 320 653 303 653 c 256
 249 653 226 650 177 650 c 256
 133 650 119 653 65 653 c 256
 48 653 36 650 36 642 c 256
 36 633 46 626 69 622 c 256
 119 613 130 608 130 560 c 258
 130 96 l 258
 130 52 101 34 49 24 c 257
 45 23 27 19 27 7 c 256
 27 0 37 -5 55 -5 c 257
EndSplineSet
PickledDataWithLists: "(dp0
Vpublic.markColor
p1
V0.67,0.95,0.38,1
p2
s."
Substitution2: "'c2pc' Capitals to Petite Capitals lookup 23 subtable" L.pc
Substitution2: "'c2sc' Capitals to Small Capitals lookup 21 subtable" L.sc
Substitution2: "'ordn' Ordinals lookup 15 subtable" L.ordn
Substitution2: "'sups' Superscript lookup 9 subtable" L.sups
Substitution2: "'sinf' Scientific Inferiors lookup 8 subtable" L.sinf
Substitution2: "'subs' Subscript lookup 7 subtable" L.subs
Comment: "+AAoA-L+AAoA"
EndChar
StartChar: M
Encoding: 254 77 254
GlifName: M_
Width: 901
VWidth: 0
Flags: W
AnchorPoint: "bottom.cap" 407 -30 basechar 0
AnchorPoint: "top.cap" 450 675 basechar 0
LayerCount: 2
Back
SplineSet
402 -10 m 256
 406 -10 411 -3 419 14 c 258
 641 464 l 258
 646 474 650 480 652 480 c 256
 655 480 657 475 657 464 c 257
 663 329 669 240 669 96 c 256
 669 49 657 29 618 24 c 256
 595 21 585 15 585 6 c 256
 585 -2 597 -5 614 -5 c 256
 668 -5 678 0 719 0 c 256
 765 0 782 -5 836 -5 c 256
 853 -5 865 -2 865 6 c 256
 865 15 855 20 832 24 c 256
 782 33 759 54 757 95 c 256
 749 246 735 382 735 568 c 256
 735 600 784 613 818 623 c 257
 824 625 844 635 844 646 c 256
 844 655 829 656 823 656 c 258
 820 656 l 258
 800 656 752 648 709 648 c 258
 673 648 l 258
 658 648 660 592 645 560 c 258
 448 150 l 258
 444 142 440 138 437 138 c 256
 433 138 429 143 425 153 c 258
 267 554 l 258
 257 581 249 647 231 647 c 256
 205 647 102 655 65 655 c 256
 59 655 42 654 42 644 c 256
 42 635 50 629 56 627 c 257
 80 621 119 616 139 593 c 256
 150 580 154 572 154 561 c 256
 154 555 155 548 155 538 c 256
 155 454 138 282 114 102 c 256
 112 89 102 33 52 24 c 256
 29 20 19 15 19 6 c 256
 19 -2 31 -5 48 -5 c 256
 102 -5 103 0 139 0 c 256
 176 0 179 -5 233 -5 c 256
 250 -5 262 -2 262 6 c 256
 262 15 252 20 229 24 c 256
 180 33 164 76 164 102 c 256
 164 238 177 330 196 471 c 256
 198 486 203 485 209 471 c 256
 284 296 336 172 388 16 c 256
 393 1 397 -10 402 -10 c 256
EndSplineSet
Fore
SplineSet
48 -5 m 256
 102 -5 103 0 139 0 c 256
 176 0 179 -5 233 -5 c 256
 250 -5 262 -2 262 6 c 256
 262 15 252 20 229 24 c 256
 188 32 164 66 164 102 c 256
 164 238 177 330 196 471 c 256
 197 478 206 478 209 471 c 256
 284 296 341 152 393 -4 c 256
 396 -13 408 -12 411 -5 c 258
 641 464 l 258
 648 477 655 478 657 464 c 257
 663 329 669 240 669 96 c 256
 669 49 657 29 618 24 c 256
 595 21 585 15 585 6 c 256
 585 -2 597 -5 614 -5 c 256
 668 -5 678 0 719 0 c 256
 765 0 782 -5 836 -5 c 256
 853 -5 865 -2 865 6 c 256
 865 15 855 20 832 24 c 256
 782 33 759 54 757 95 c 256
 749 246 735 382 735 568 c 256
 735 583 745 596 759 602 c 256
 777 610 800 618 818 625 c 256
 838 633 844 637 844 646 c 256
 844 655 829 656 823 656 c 256
 800 656 749 648 709 648 c 258
 673 648 l 258
 668 648 665 643 663 635 c 256
 659 614 651 582 645 560 c 257
 448 150 l 258
 443 140 429 143 425 153 c 258
 267 554 l 258
 257 579 252 607 245 631 c 256
 242 641 235 647 226 647 c 256
 200 647 102 655 76 655 c 256
 56 655 42 654 42 644 c 256
 42 635 51 627 64 624 c 256
 94 618 115 614 139 594 c 256
 152 583 153 572 154 561 c 256
 155 551 155 538 155 528 c 256
 155 444 138 282 114 102 c 256
 107 55 85 30 52 24 c 256
 29 20 19 15 19 6 c 256
 19 -2 31 -5 48 -5 c 256
EndSplineSet
PickledDataWithLists: "(dp0
Vpublic.markColor
p1
V0.67,0.95,0.38,1
p2
s."
Substitution2: "'c2pc' Capitals to Petite Capitals lookup 23 subtable" M.pc
Substitution2: "'c2sc' Capitals to Small Capitals lookup 21 subtable" M.sc
Substitution2: "'ordn' Ordinals lookup 15 subtable" M.ordn
Substitution2: "'sups' Superscript lookup 9 subtable" M.sups
Substitution2: "'sinf' Scientific Inferiors lookup 8 subtable" M.sinf
Substitution2: "'subs' Subscript lookup 7 subtable" M.subs
Comment: "+AAoA-M+AAoA"
EndChar
StartChar: N
Encoding: 263 78 263
GlifName: N_
Width: 792
VWidth: 0
Flags: W
AnchorPoint: "bottom.cap" 415 -30 basechar 0
AnchorPoint: "top.cap" 406 675 basechar 0
LayerCount: 2
Fore
SplineSet
668 -17 m 256
 678 -17 689 -13 689 8 c 256
 689 21 684 57 684 105 c 256
 684 263 685 550 686 568 c 256
 688 601 699 613 749 622 c 256
 772 626 782 633 782 642 c 256
 782 650 770 653 753 653 c 256
 692 653 686 650 638 650 c 256
 619 650 600 650 581 650 c 256
 564 650 540 647 540 639 c 256
 540 630 562 623 585 619 c 256
 607 615 642 590 643 564 c 257
 643 381 642 195 641 157 c 257
 640 142 636 136 631 136 c 256
 623 136 611 150 606 156 c 256
 586 180 232 609 213 636 c 257
 206 645 201 653 189 653 c 256
 117 653 113 656 35 658 c 256
 28 658 12 656 12 644 c 256
 12 632 37 622 43 620 c 256
 102 601 142 578 142 507 c 256
 142 342 132 182 124 107 c 256
 120 66 104 35 66 25 c 256
 43 19 33 15 33 6 c 256
 33 -2 45 -5 62 -5 c 256
 116 -5 117 0 153 0 c 256
 190 0 193 -5 247 -5 c 256
 264 -5 276 -2 276 6 c 256
 276 15 266 20 243 24 c 256
 193 33 179 68 179 104 c 256
 179 227 182 380 184 479 c 256
 184 487 186 500 193 500 c 256
 198 500 204 496 214 484 c 256
 237 456 564 71 582 46 c 256
 614 2 656 -17 668 -17 c 256
EndSplineSet
PickledDataWithLists: "(dp0
Vpublic.markColor
p1
V0.67,0.95,0.38,1
p2
s."
Substitution2: "'c2pc' Capitals to Petite Capitals lookup 23 subtable" N.pc
Substitution2: "'c2sc' Capitals to Small Capitals lookup 21 subtable" N.sc
Substitution2: "'ordn' Ordinals lookup 15 subtable" N.ordn
Substitution2: "'sups' Superscript lookup 9 subtable" N.sups
Substitution2: "'sinf' Scientific Inferiors lookup 8 subtable" N.sinf
Substitution2: "'subs' Subscript lookup 7 subtable" N.subs
Comment: "+AAoA-N+AAoA"
EndChar
StartChar: O
Encoding: 279 79 278
GlifName: O_
Width: 763
VWidth: 0
Flags: W
AnchorPoint: "bottom.cap" 372 -30 basechar 0
AnchorPoint: "top.cap" 391 675 basechar 0
LayerCount: 3
Back
SplineSet
377 -14 m 256
 599 -14 718 155 718 335 c 256
 718 532 562 664 386 664 c 256
 164 664 45 495 45 315 c 256
 45 118 201 -14 377 -14 c 256
391 26 m 256
 230 26 143 156 143 345 c 256
 143 514 220 623 370 623 c 256
 533 623 620 493 620 305 c 256
 620 135 543 26 391 26 c 256
EndSplineSet
Fore
SplineSet
377 -14 m 256
 599 -14 718 155 718 335 c 256
 718 532 562 664 386 664 c 256
 164 664 45 495 45 315 c 256
 45 118 201 -14 377 -14 c 256
392 26 m 256
 225 26 141 179 141 365 c 256
 141 521 219 622 370 622 c 256
 537 622 622 471 622 286 c 256
 622 129 545 26 392 26 c 256
EndSplineSet
PickledDataWithLists: "(dp0
Vpublic.markColor
p1
V0.67,0.95,0.38,1
p2
s."
Layer: 2
SplineSet
45 320 m 256
 45 130 205 -14 382 -14 c 256
 601 -14 718 155 718 335 c 256
 718 532 564 664 390 664 c 256
 166 664 45 501 45 320 c 256
375 625 m 256
 535 625 621 495 621 305 c 256
 621 134 545 25 395 25 c 256
 247 25 142 179 142 350 c 256
 142 490 227 625 375 625 c 256
EndSplineSet
PickledDataWithLists: "(dp0
Vpublic.markColor
p1
V0.67,0.95,0.38,1
p2
s."
Substitution2: "'c2pc' Capitals to Petite Capitals lookup 23 subtable" O.pc
Substitution2: "'c2sc' Capitals to Small Capitals lookup 21 subtable" O.sc
Substitution2: "'ordn' Ordinals lookup 15 subtable" O.ordn
Substitution2: "'sups' Superscript lookup 9 subtable" O.sups
Substitution2: "'sinf' Scientific Inferiors lookup 8 subtable" O.sinf
Substitution2: "'subs' Subscript lookup 7 subtable" O.subs
Comment: "+AAoA-O+AAoA"
EndChar
StartChar: P
Encoding: 317 80 316
GlifName: P_
Width: 552
VWidth: 0
Flags: W
AnchorPoint: "bottom.cap" 180 -30 basechar 0
AnchorPoint: "top.cap" 286 675 basechar 0
LayerCount: 2
Back
SplineSet
53 -5 m 256
 107 -5 132 2 183 2 c 256
 221 2 227 -5 281 -5 c 256
 298 -5 310 -2 310 6 c 256
 310 15 300 20 277 24 c 256
 227 33 210 63 210 111 c 258
 210 588 l 258
 210 618 236 630 274 630 c 256
 371 630 441 564 441 458 c 256
 441 340 400 285 320 285 c 256
 293 285 280 287 274 287 c 256
 267 287 258 278 258 273 c 256
 258 265 274 254 303 254 c 256
 456 254 527 342 527 465 c 256
 527 577 426 658 274 658 c 256
 246 658 203 652 163 652 c 256
 122 652 119 653 65 653 c 256
 48 653 36 650 36 642 c 256
 36 633 46 626 69 622 c 256
 119 613 130 582 130 522 c 258
 130 100 l 258
 130 51 107 33 57 24 c 256
 34 20 24 15 24 6 c 256
 24 -2 36 -5 53 -5 c 256
EndSplineSet
Fore
SplineSet
53 -5 m 256
 107 -5 132 2 183 2 c 256
 221 2 227 -5 281 -5 c 256
 298 -5 310 -2 310 6 c 256
 310 15 300 20 277 24 c 256
 227 33 210 63 210 111 c 258
 210 588 l 258
 210 618 236 630 274 630 c 256
 371 630 441 579 441 473 c 256
 441 355 400 285 320 285 c 256
 293 285 280 287 274 287 c 256
 267 287 258 278 258 273 c 256
 258 265 274 254 303 254 c 256
 456 254 527 357 527 480 c 256
 527 592 426 658 274 658 c 256
 246 658 203 652 163 652 c 256
 122 652 119 653 65 653 c 256
 48 653 36 650 36 642 c 256
 36 633 46 626 69 622 c 256
 119 613 130 582 130 522 c 258
 130 100 l 258
 130 51 107 33 57 24 c 256
 34 20 24 15 24 6 c 256
 24 -2 36 -5 53 -5 c 256
EndSplineSet
PickledDataWithLists: "(dp0
Vpublic.markColor
p1
V0.67,0.95,0.38,1
p2
s."
Substitution2: "'c2pc' Capitals to Petite Capitals lookup 23 subtable" P.pc
Substitution2: "'c2sc' Capitals to Small Capitals lookup 21 subtable" P.sc
Substitution2: "'ordn' Ordinals lookup 15 subtable" P.ordn
Substitution2: "'sups' Superscript lookup 9 subtable" P.sups
Substitution2: "'sinf' Scientific Inferiors lookup 8 subtable" P.sinf
Substitution2: "'subs' Subscript lookup 7 subtable" P.subs
Comment: "+AAoA-P+AAoA"
EndChar
StartChar: Q
Encoding: 332 81 331
GlifName: Q_
Width: 763
VWidth: 0
Flags: W
LayerCount: 2
Back
SplineSet
744 -248 m 256
 781 -248 823 -238 861 -215 c 256
 876 -206 879 -201 879 -189 c 256
 879 -183 874 -181 868 -181 c 256
 862 -181 855 -183 849 -185 c 257
 840 -189 817 -192 793 -192 c 256
 715 -192 665 -177 598 -129 c 256
 548 -93 510 -60 471 -18 c 257
 468 -15 467 -12 467 -9 c 256
 467 -7 468 -4 475 -2 c 256
 634 40 718 183 718 335 c 256
 718 532 562 664 386 664 c 256
 164 664 45 495 45 315 c 256
 45 151 141 61 250 10 c 256
 290 -9 347 -39 365 -54 c 256
 431 -106 471 -136 523 -173 c 256
 587 -219 648 -248 744 -248 c 256
392 26 m 256
 225 26 141 179 141 365 c 256
 141 521 219 622 370 622 c 256
 537 622 622 471 622 286 c 256
 622 129 545 26 392 26 c 256
EndSplineSet
Fore
SplineSet
744 -248 m 256
 781 -248 823 -238 861 -215 c 256
 876 -206 879 -201 879 -189 c 256
 879 -183 874 -181 868 -181 c 256
 862 -181 855 -183 849 -185 c 257
 840 -189 817 -192 793 -192 c 256
 715 -192 665 -177 598 -129 c 256
 548 -93 510 -60 471 -18 c 257
 468 -15 467 -12 467 -9 c 256
 467 -7 468 -4 475 -2 c 256
 634 40 718 183 718 335 c 256
 718 532 562 664 386 664 c 256
 164 664 45 495 45 315 c 256
 45 151 141 61 250 10 c 256
 278 -3 318 -15 365 -54 c 256
 430 -108 471 -136 523 -173 c 256
 587 -219 648 -248 744 -248 c 256
392 26 m 256
 225 26 141 179 141 365 c 256
 141 521 219 622 370 622 c 256
 537 622 622 471 622 286 c 256
 622 129 545 26 392 26 c 256
EndSplineSet
PickledDataWithLists: "(dp0
Vpublic.markColor
p1
V0.67,0.95,0.38,1
p2
s."
Substitution2: "'ss06' Style Set 6 lookup 35 subtable" Q.long
Substitution2: "'swsh' Swash lookup 28 subtable" Q.long
Substitution2: "'c2pc' Capitals to Petite Capitals lookup 23 subtable" Q.pc
Substitution2: "'c2sc' Capitals to Small Capitals lookup 21 subtable" Q.sc
Substitution2: "'ordn' Ordinals lookup 15 subtable" Q.ordn
Substitution2: "'sups' Superscript lookup 9 subtable" Q.sups
Substitution2: "'sinf' Scientific Inferiors lookup 8 subtable" Q.sinf
Substitution2: "'subs' Subscript lookup 7 subtable" Q.subs
Comment: "+AAoA-Q+AAoA"
EndChar
StartChar: R
Encoding: 343 82 342
GlifName: R_
Width: 713
VWidth: 0
Flags: W
AnchorPoint: "bottom.cap" 371 -30 basechar 0
AnchorPoint: "top.cap" 282 675 basechar 0
LayerCount: 2
Back
SplineSet
637 -21 m 256
 662 -21 718 -15 718 14 c 256
 718 22 713 25 703 25 c 256
 656 25 623 27 588 58 c 256
 494 143 447 218 385 312 c 256
 381 318 380 323 385 325 c 257
 440 353 503 403 503 493 c 256
 503 602 424 657 278 657 c 256
 220 657 201 652 163 652 c 256
 122 652 119 653 65 653 c 256
 48 653 36 650 36 642 c 256
 36 633 46 624 69 622 c 256
 126 616 130 602 130 526 c 258
 130 100 l 258
 130 51 107 33 57 24 c 256
 34 20 24 15 24 6 c 256
 24 -2 36 -5 53 -5 c 256
 107 -5 132 2 183 2 c 256
 221 2 227 -5 281 -5 c 256
 298 -5 310 -2 310 6 c 256
 310 15 300 20 277 24 c 256
 227 33 210 67 210 110 c 258
 210 282 l 258
 210 294 214 303 225 302 c 256
 243 300 275 294 304 280 c 256
 324 270 336 259 347 241 c 256
 416 129 450 93 499 33 c 256
 534 -10 580 -21 637 -21 c 256
263 329 m 256
 230 329 210 331 210 364 c 256
 210 444 211 500 212 534 c 256
 215 603 223 627 266 627 c 256
 392 627 413 558 413 477 c 256
 413 400 355 329 263 329 c 256
EndSplineSet
Fore
SplineSet
637 -21 m 256
 662 -21 718 -15 718 14 c 256
 718 22 713 25 703 25 c 256
 656 25 623 27 588 58 c 256
 494 143 447 218 385 312 c 256
 381 318 380 323 385 325 c 257
 440 353 503 403 503 493 c 256
 503 602 424 657 278 657 c 256
 220 657 201 652 163 652 c 256
 122 652 119 653 65 653 c 256
 48 653 36 650 36 642 c 256
 36 633 46 624 69 622 c 256
 126 616 130 602 130 526 c 258
 130 100 l 258
 130 51 107 33 57 24 c 256
 34 20 24 15 24 6 c 256
 24 -2 36 -5 53 -5 c 256
 107 -5 132 2 183 2 c 256
 221 2 227 -5 281 -5 c 256
 298 -5 310 -2 310 6 c 256
 310 15 300 20 277 24 c 256
 227 33 210 67 210 110 c 258
 210 286 l 258
 210 298 214 307 225 306 c 256
 243 304 275 299 304 285 c 256
 324 275 336 264 347 246 c 256
 416 134 450 93 499 33 c 256
 534 -10 580 -21 637 -21 c 256
263 329 m 256
 230 329 210 331 210 364 c 256
 210 444 211 500 212 534 c 256
 215 603 223 627 266 627 c 256
 392 627 413 558 413 477 c 256
 413 400 355 329 263 329 c 256
EndSplineSet
PickledDataWithLists: "(dp0
Vpublic.markColor
p1
V0.67,0.95,0.38,1
p2
s."
Substitution2: "'c2pc' Capitals to Petite Capitals lookup 23 subtable" R.pc
Substitution2: "'c2sc' Capitals to Small Capitals lookup 21 subtable" R.sc
Substitution2: "'ordn' Ordinals lookup 15 subtable" R.ordn
Substitution2: "'sups' Superscript lookup 9 subtable" R.sups
Substitution2: "'sinf' Scientific Inferiors lookup 8 subtable" R.sinf
Substitution2: "'subs' Subscript lookup 7 subtable" R.subs
Comment: "+AAoA-R+AAoA"
EndChar
StartChar: S
Encoding: 356 83 355
GlifName: S_
Width: 465
VWidth: 0
Flags: W
AnchorPoint: "bottom.cap" 226 -30 basechar 0
AnchorPoint: "top.cap" 269 675 basechar 0
LayerCount: 4
Fore
SplineSet
204 -16 m 256
 335 -16 422 61 422 180 c 256
 422 280 347 327 277 370 c 256
 202 416 137 456 137 516 c 256
 137 600 192 630 252 630 c 256
 309 630 344 591 372 521 c 256
 375 513 388 507 400 507 c 256
 408 507 415 510 415 518 c 256
 415 550 403 589 395 617 c 256
 392 627 384 638 374 642 c 256
 352 651 317 664 269 664 c 256
 128 664 60 583 60 482 c 256
 60 385 147 340 225 291 c 256
 296 247 338 221 338 139 c 256
 338 65 287 17 218 17 c 256
 161 17 102 57 76 160 c 256
 74 168 67 171 60 171 c 256
 49 171 40 166 40 157 c 257
 42 129 43 79 50 52 c 256
 52 44 58 37 63 32 c 257
 100 1 148 -16 204 -16 c 256
EndSplineSet
PickledDataWithLists: "(dp0
Vpublic.markColor
p1
V0.67,0.95,0.38,1
p2
s."
Layer: 3
SplineSet
223 17 m 256
 165 17 111 42 92 103 c 256
 82 135 71 169 62 169 c 256
 51 169 41 149 41 140 c 256
 41 104 48 48 59 25 c 257
 61 20 67 14 80 8 c 256
 97 0 141 -16 214 -16 c 256
 364 -16 422 80 422 160 c 256
 422 262 326 338 269 375 c 256
 218 408 136 459 136 523 c 256
 136 590 189 631 251 631 c 256
 307 631 353 598 363 540 c 256
 366 525 379 512 398 512 c 256
 403 512 405 522 405 537 c 256
 405 568 397 618 396 621 c 257
 394 631 388 644 379 644 c 256
 369 644 324 664 260 664 c 256
 140 664 59 584 59 497 c 256
 59 417 116 365 186 318 c 256
 268 263 338 198 338 132 c 256
 338 62 298 17 223 17 c 256
EndSplineSet
PickledDataWithLists: "(dp0
Vpublic.markColor
p1
V0.67,0.95,0.38,1
p2
s."
Substitution2: "'c2pc' Capitals to Petite Capitals lookup 23 subtable" S.pc
Substitution2: "'c2sc' Capitals to Small Capitals lookup 21 subtable" S.sc
Substitution2: "'ordn' Ordinals lookup 15 subtable" S.ordn
Substitution2: "'sups' Superscript lookup 9 subtable" S.sups
Substitution2: "'sinf' Scientific Inferiors lookup 8 subtable" S.sinf
Substitution2: "'subs' Subscript lookup 7 subtable" S.subs
Comment: "+AAoA-S+AAoA"
EndChar
StartChar: T
Encoding: 376 84 375
GlifName: T_
Width: 670
VWidth: 0
Flags: W
AnchorPoint: "bottom.cap" 328 -30 basechar 0
AnchorPoint: "top.cap" 340 675 basechar 0
LayerCount: 2
Back
SplineSet
214 -5 m 256
 268 -5 292 0 342 0 c 256
 388 0 405 -5 459 -5 c 256
 476 -5 488 -2 488 6 c 256
 488 15 478 20 455 24 c 256
 405 33 376 54 376 102 c 258
 376 495 l 258
 376 605 381 610 426 610 c 258
 527 610 l 258
 591 610 614 592 619 564 c 256
 624 538 628 523 638 523 c 256
 648 523 654 543 654 555 c 258
 654 567 l 258
 654 593 661 623 670 660 c 257
 670 662 671 666 671 669 c 256
 671 679 668 692 664 692 c 256
 649 692 634 670 614 656 c 256
 604 649 585 642 556 642 c 258
 175 642 l 258
 147 642 113 648 105 662 c 256
 99 673 85 694 80 694 c 256
 75 694 66 693 63 671 c 256
 57 629 51 604 32 566 c 256
 29 560 27 552 27 546 c 256
 27 539 29 533 34 533 c 256
 49 533 69 560 75 571 c 256
 89 597 125 610 157 610 c 258
 204 610 l 258
 238 610 256 610 275 606 c 256
 291 603 296 581 296 490 c 258
 296 102 l 258
 296 54 268 33 218 24 c 256
 195 20 185 15 185 6 c 256
 185 -2 197 -5 214 -5 c 256
EndSplineSet
Fore
SplineSet
214 -5 m 256
 268 -5 292 0 342 0 c 256
 388 0 405 -5 459 -5 c 256
 476 -5 488 -2 488 6 c 256
 488 15 478 20 455 24 c 256
 405 33 376 54 376 102 c 258
 376 495 l 258
 376 605 381 610 426 610 c 258
 527 610 l 258
 591 610 614 592 619 564 c 256
 624 538 628 523 638 523 c 256
 648 523 654 543 654 555 c 258
 654 567 l 258
 654 593 658 589 664 626 c 256
 665 632 668 647 668 654 c 256
 668 664 665 677 661 677 c 256
 645 677 638 665 622 657 c 256
 600 647 573 642 527 642 c 258
 175 642 l 258
 147 642 113 648 105 662 c 256
 99 673 85 694 80 694 c 256
 75 694 66 693 63 671 c 256
 57 629 51 604 32 566 c 256
 29 560 27 552 27 546 c 256
 27 539 29 533 34 533 c 256
 49 533 69 560 75 571 c 256
 89 597 125 610 157 610 c 258
 204 610 l 258
 238 610 256 610 275 606 c 256
 291 603 296 581 296 490 c 258
 296 102 l 258
 296 54 268 33 218 24 c 256
 195 20 185 15 185 6 c 256
 185 -2 197 -5 214 -5 c 256
EndSplineSet
PickledDataWithLists: "(dp0
Vpublic.markColor
p1
V0.67,0.95,0.38,1
p2
s."
Substitution2: "'c2pc' Capitals to Petite Capitals lookup 23 subtable" T.pc
Substitution2: "'c2sc' Capitals to Small Capitals lookup 21 subtable" T.sc
Substitution2: "'ordn' Ordinals lookup 15 subtable" T.ordn
Substitution2: "'sups' Superscript lookup 9 subtable" T.sups
Substitution2: "'sinf' Scientific Inferiors lookup 8 subtable" T.sinf
Substitution2: "'subs' Subscript lookup 7 subtable" T.subs
Comment: "+AAoA-T+AAoA"
EndChar
StartChar: U
Encoding: 396 85 395
GlifName: U_
Width: 738
VWidth: 0
Flags: W
AnchorPoint: "bottom.cap" 368 -30 basechar 0
AnchorPoint: "top.cap" 390 675 basechar 0
LayerCount: 2
Fore
SplineSet
372 -14 m 256
 519 -14 630 95 635 250 c 256
 638 342 638 432 645 547 c 256
 647 587 660 615 695 622 c 256
 718 627 728 633 728 642 c 256
 728 650 716 653 699 653 c 256
 676 653 650 650 618 650 c 256
 589 650 573 651 543 651 c 256
 526 651 514 648 514 640 c 256
 514 631 533 624 547 620 c 256
 575 612 587 562 588 511 c 256
 590 434 592 340 592 296 c 256
 592 140 530 36 393 36 c 256
 271 36 183 108 183 268 c 258
 183 549 l 258
 183 589 209 616 225 621 c 256
 247 628 258 632 258 641 c 256
 258 649 246 652 229 652 c 256
 208 652 180 650 149 650 c 256
 112 650 83 653 53 653 c 256
 36 653 24 650 24 642 c 256
 24 633 34 626 57 620 c 256
 79 614 103 595 103 547 c 258
 103 240 l 258
 103 87 193 -14 372 -14 c 256
EndSplineSet
PickledDataWithLists: "(dp0
Vpublic.markColor
p1
V0.67,0.95,0.38,1
p2
s."
Substitution2: "'c2pc' Capitals to Petite Capitals lookup 23 subtable" U.pc
Substitution2: "'c2sc' Capitals to Small Capitals lookup 21 subtable" U.sc
Substitution2: "'ordn' Ordinals lookup 15 subtable" U.ordn
Substitution2: "'sups' Superscript lookup 9 subtable" U.sups
Substitution2: "'sinf' Scientific Inferiors lookup 8 subtable" U.sinf
Substitution2: "'subs' Subscript lookup 7 subtable" U.subs
Substitution2: "'locl' Localized Forms in Latin lookup 5 subtable" U.LAT
Comment: "+AAoA-U+AAoA"
EndChar
StartChar: V
Encoding: 436 86 435
GlifName: V_
Width: 672
VWidth: 0
Flags: W
AnchorPoint: "bottom.cap" 298 -30 basechar 0
AnchorPoint: "top.cap" 339 675 basechar 0
LayerCount: 2
Back
SplineSet
318 -12 m 256
 322 -12 326 -9 328 -5 c 256
 339 19 355 69 359 79 c 258
 547 535 l 258
 562 571 596 611 645 622 c 256
 668 627 678 633 678 642 c 256
 678 650 666 653 649 653 c 256
 623 653 574 650 535 650 c 256
 497 650 462 651 436 651 c 256
 419 651 407 648 407 640 c 256
 407 631 426 624 440 620 c 256
 464 613 507 595 507 579 c 256
 507 575 501 551 499 547 c 257
 345 169 l 258
 344 166 343 165 340 165 c 256
 337 165 335 166 334 168 c 258
 195 533 l 257
 192 542 186 572 186 580 c 256
 186 598 219 615 249 621 c 256
 272 625 282 632 282 641 c 256
 282 649 270 652 253 652 c 256
 233 652 191 650 151 650 c 256
 105 650 60 653 29 653 c 256
 12 653 0 650 0 642 c 256
 0 633 11 627 33 620 c 256
 67 610 89 584 103 547 c 258
 286 56 l 258
 292 38 301 9 307 -5 c 256
 309 -10 314 -12 318 -12 c 256
EndSplineSet
Fore
SplineSet
318 -12 m 256
 322 -12 326 -9 328 -5 c 256
 339 19 355 69 359 79 c 258
 547 535 l 258
 562 571 596 611 645 622 c 256
 668 627 678 633 678 642 c 256
 678 650 666 653 649 653 c 256
 623 653 574 650 535 650 c 256
 497 650 462 651 436 651 c 256
 419 651 407 648 407 640 c 256
 407 631 420 623 440 620 c 256
 483 614 514 585 487 514 c 258
 350 154 l 258
 346 145 341 148 339 153 c 258
 195 533 l 257
 192 542 184 559 184 582 c 256
 184 605 211 617 249 621 c 256
 272 623 282 632 282 641 c 256
 282 649 270 652 253 652 c 256
 233 652 191 650 151 650 c 256
 105 650 60 653 29 653 c 256
 12 653 0 650 0 642 c 256
 0 633 11 627 33 620 c 256
 67 610 89 584 103 547 c 258
 286 56 l 258
 292 38 301 9 307 -5 c 256
 309 -10 314 -12 318 -12 c 256
EndSplineSet
Guideline: "" "" 343 531 90 0 0
PickledDataWithLists: "(dp0
Vpublic.markColor
p1
V0.67,0.95,0.38,1
p2
s."
Substitution2: "'c2pc' Capitals to Petite Capitals lookup 23 subtable" V.pc
Substitution2: "'c2sc' Capitals to Small Capitals lookup 21 subtable" V.sc
Substitution2: "'ordn' Ordinals lookup 15 subtable" V.ordn
Substitution2: "'sups' Superscript lookup 9 subtable" V.sups
Substitution2: "'sinf' Scientific Inferiors lookup 8 subtable" V.sinf
Substitution2: "'subs' Subscript lookup 7 subtable" V.subs
Comment: "+AAoA-V+AAoA"
EndChar
StartChar: W
Encoding: 87 87 38
GlifName: W_
Width: 916
VWidth: 0
Flags: HMW
AnchorPoint: "below_accent" 454 -100 basechar 0
AnchorPoint: "top_accent" 481 710 basechar 0
LayerCount: 3
Back
Fore
SplineSet
294 653 m 0
 325 653 352 650 388 650 c 0
 418 650 445 652 465 652 c 0
 482 652 494 649 494 641 c 0
 494 624 453 622 453 599 c 0
 453 596 454 594 455 591 c 0
 459 579 491 497 500 478 c 0
 504 469 506 465 509 465 c 0
 511 465 514 469 518 478 c 0
 534 514 553 574 558 591 c 0
 559 594 559 596 559 598 c 0
 559 622 522 624 522 641 c 0
 522 649 534 652 551 652 c 0
 580 652 584 650 603 650 c 0
 626 650 638 653 662 653 c 0
 679 653 691 650 691 642 c 0
 691 633 681 627 658 622 c 0
 615 612 607 602 590 574 c 0
 579 555 553 494 537 451 c 0
 533 441 530 429 530 420 c 0
 530 417 530 415 531 413 c 2
 634 148 l 2
 637 141 641 145 645 154 c 0
 678 242 722 388 767 541 c 0
 771 553 773 566 773 577 c 0
 773 597 765 614 743 620 c 0
 729 624 710 631 710 640 c 0
 710 648 722 651 739 651 c 0
 765 651 785 650 811 650 c 0
 844 650 876 653 901 653 c 0
 918 653 930 650 930 642 c 0
 930 633 920 627 897 622 c 0
 848 611 826 563 815 534 c 1
 654 58 l 2
 644 30 628 -12 622 -12 c 0
 617 -12 609 -2 605 7 c 8
 552 126 529 199 482 316 c 0
 478 325 476 323 471 310 c 0
 423 197 399 133 357 15 c 0
 352 1 343 -16 335 -16 c 0
 332 -16 326 -1 321 12 c 2
 105 554 l 9
 89 588 67 610 33 620 c 0
 11 627 0 633 0 642 c 0
 0 650 12 653 29 653 c 0
 60 653 84 650 118 650 c 0
 155 650 191 652 211 652 c 0
 228 652 240 649 240 641 c 0
 240 632 230 627 207 621 c 0
 191 617 187 603 187 588 c 0
 187 567 195 545 195 545 c 1
 256 389 292 303 359 152 c 0
 366 137 370 140 374 151 c 2
 452 344 l 2
 456 354 458 361 458 367 c 0
 458 375 455 383 450 396 c 2
 393 538 l 2
 376 581 332 610 298 620 c 0
 276 627 265 633 265 642 c 0
 265 650 277 653 294 653 c 0
EndSplineSet
Validated: 1
Substitution2: "c2sc subtable" W.sc
Substitution2: "sups subtable" W.sups
Substitution2: "sinf subtable" W.sinf
Substitution2: "ordn subtable" W.ordn
Substitution2: "subs subtable" W.subs
Position2: "rtbd subtable" dx=0 dy=0 dh=-34 dv=0
Position2: "lfbd subtable" dx=-34 dy=0 dh=-34 dv=0
Position2: "Single Positioning lookup 82 subtable" dx=0 dy=0 dh=135 dv=0
Position2: "Single Positioning lookup 81 subtable" dx=0 dy=0 dh=100 dv=0
Position2: "Single Positioning lookup 80 subtable" dx=0 dy=0 dh=80 dv=0
Position2: "Single Positioning lookup 79 subtable" dx=0 dy=0 dh=65 dv=0
Position2: "Single Positioning lookup 78 subtable" dx=0 dy=0 dh=45 dv=0
Position2: "Single Positioning lookup 77 subtable" dx=0 dy=0 dh=15 dv=0
Position2: "Single Positioning lookup 76 subtable" dx=0 dy=0 dh=60 dv=0
Position2: "Single Positioning lookup 75 subtable" dx=0 dy=0 dh=25 dv=0
Position2: "Single Positioning lookup 74 subtable" dx=0 dy=0 dh=15 dv=0
Position2: "Single Positioning lookup 73 subtable" dx=0 dy=0 dh=135 dv=0
Position2: "Single Positioning lookup 72 subtable" dx=0 dy=0 dh=100 dv=0
Position2: "Single Positioning lookup 71 subtable" dx=0 dy=0 dh=80 dv=0
Position2: "Single Positioning lookup 70 subtable" dx=0 dy=0 dh=65 dv=0
Position2: "Single Positioning lookup 69 subtable" dx=0 dy=0 dh=45 dv=0
Position2: "Single Positioning lookup 68 subtable" dx=0 dy=0 dh=15 dv=0
EndChar
StartChar: Y
Encoding: 464 89 463
GlifName: Y_
Width: 578
VWidth: 0
Flags: W
AnchorPoint: "bottom.cap" 305 -30 basechar 0
AnchorPoint: "top.cap" 320 675 basechar 0
LayerCount: 2
Back
SplineSet
182 -5 m 256
 236 -5 260 0 310 0 c 256
 356 0 373 -5 427 -5 c 256
 444 -5 456 -2 456 6 c 256
 456 15 446 20 423 24 c 256
 373 33 344 63 344 108 c 258
 344 256 l 258
 344 295 344 303 369 346 c 256
 415 425 426 443 480 526 c 256
 516 581 533 607 568 617 c 256
 596 625 621 633 621 642 c 256
 621 650 609 653 592 653 c 256
 569 653 529 650 488 650 c 256
 459 650 443 651 413 651 c 256
 396 651 384 648 384 640 c 256
 384 631 403 622 417 620 c 256
 436 617 458 610 458 585 c 256
 458 573 453 556 440 534 c 256
 406 474 386 442 356 395 c 256
 338 367 331 357 323 357 c 256
 317 357 309 369 295 395 c 258
 203 560 l 258
 194 576 190 588 190 596 c 256
 190 611 203 616 222 621 c 256
 244 626 255 632 255 641 c 256
 255 649 243 652 226 652 c 256
 205 652 177 650 146 650 c 256
 100 650 59 653 29 653 c 256
 12 653 0 650 0 642 c 256
 0 633 11 627 33 620 c 256
 67 610 107 546 122 522 c 258
 239 330 l 257
 244 321 264 283 264 256 c 258
 264 108 l 258
 264 60 236 33 186 24 c 256
 163 20 153 15 153 6 c 256
 153 -2 165 -5 182 -5 c 256
EndSplineSet
Fore
SplineSet
182 -5 m 256
 236 -5 260 0 310 0 c 256
 356 0 373 -5 427 -5 c 256
 444 -5 456 -2 456 6 c 256
 456 15 446 20 423 24 c 256
 373 33 344 63 344 108 c 258
 344 260 l 258
 344 299 343 307 369 350 c 256
 415 425 426 443 480 526 c 256
 516 581 533 607 568 617 c 256
 596 625 621 633 621 642 c 256
 621 650 609 653 592 653 c 256
 569 653 529 650 488 650 c 256
 459 650 443 651 413 651 c 256
 396 651 384 648 384 640 c 256
 384 631 403 622 417 620 c 256
 436 617 458 610 458 585 c 256
 458 573 453 556 440 534 c 256
 406 474 386 437 356 390 c 256
 338 362 331 352 323 352 c 256
 317 352 309 364 295 390 c 258
 203 560 l 258
 194 576 190 588 190 596 c 256
 190 611 203 616 222 621 c 256
 244 626 255 632 255 641 c 256
 255 649 243 652 226 652 c 256
 205 652 177 650 146 650 c 256
 100 650 59 653 29 653 c 256
 12 653 0 650 0 642 c 256
 0 633 11 627 33 620 c 256
 67 610 107 546 122 522 c 258
 239 330 l 257
 244 321 264 283 264 256 c 258
 264 108 l 258
 264 60 236 33 186 24 c 256
 163 20 153 15 153 6 c 256
 153 -2 165 -5 182 -5 c 256
EndSplineSet
PickledDataWithLists: "(dp0
Vpublic.markColor
p1
V0.67,0.95,0.38,1
p2
s."
Substitution2: "'c2pc' Capitals to Petite Capitals lookup 23 subtable" Y.pc
Substitution2: "'c2sc' Capitals to Small Capitals lookup 21 subtable" Y.sc
Substitution2: "'ordn' Ordinals lookup 15 subtable" Y.ordn
Substitution2: "'sups' Superscript lookup 9 subtable" Y.sups
Substitution2: "'sinf' Scientific Inferiors lookup 8 subtable" Y.sinf
Substitution2: "'subs' Subscript lookup 7 subtable" Y.subs
Comment: "+AAoA-Y+AAoA"
EndChar
StartChar: Z
Encoding: 479 90 478
GlifName: Z_
Width: 603
VWidth: 0
Flags: W
AnchorPoint: "bottom.cap" 302 -30 basechar 0
AnchorPoint: "top.cap" 315 675 basechar 0
LayerCount: 2
Back
SplineSet
533 -5 m 256
 543 -5 547 4 551 12 c 256
 562 36 588 139 588 150 c 256
 588 159 585 163 579 163 c 256
 569 163 560 150 557 142 c 257
 529 76 481 45 433 41 c 256
 386 38 337 36 292 36 c 256
 248 36 208 38 179 41 c 257
 172 42 168 50 168 58 c 256
 168 62 169 67 171 70 c 256
 295 262 371 364 509 550 c 258
 570 631 l 258
 574 636 565 649 559 649 c 256
 485 647 411 646 328 646 c 256
 283 646 235 646 183 647 c 256
 154 647 118 649 110 655 c 256
 100 663 90 669 85 669 c 256
 80 669 71 667 70 652 c 256
 66 610 50 562 43 541 c 257
 40 533 36 522 36 514 c 256
 36 508 39 503 45 503 c 256
 60 503 68 523 73 535 c 257
 91 584 133 602 165 604 c 256
 190 606 228 606 267 606 c 256
 320 606 377 605 413 604 c 257
 428 603 432 600 432 596 c 256
 432 593 430 591 428 588 c 256
 301 395 222 290 86 104 c 256
 63 73 28 21 28 11 c 257
 28 11 29 -3 35 -3 c 258
 112 -3 l 258
 150 -3 191 -2 231 -2 c 256
 320 -2 419 -5 533 -5 c 256
EndSplineSet
Fore
SplineSet
533 -5 m 256
 543 -5 547 4 551 12 c 256
 562 36 588 147 588 158 c 256
 588 167 585 171 579 171 c 256
 569 171 560 158 557 150 c 256
 531 81 492 46 433 41 c 256
 386 38 337 36 292 36 c 256
 248 36 208 38 179 41 c 257
 172 42 168 50 168 58 c 256
 168 62 169 67 171 70 c 256
 295 262 371 364 509 550 c 258
 570 631 l 258
 574 636 565 649 559 649 c 256
 485 647 411 646 328 646 c 256
 283 646 235 646 202 646 c 256
 168 646 129 656 116 662 c 256
 105 667 90 676 85 676 c 256
 80 676 71 674 70 659 c 256
 67 617 50 562 43 541 c 257
 40 533 36 522 36 514 c 256
 36 508 39 503 45 503 c 256
 60 503 68 523 73 535 c 257
 91 584 139 606 171 609 c 256
 196 611 234 611 273 611 c 256
 326 611 383 610 419 609 c 257
 434 608 438 605 438 601 c 256
 438 598 436 596 434 593 c 256
 306 401 222 290 86 104 c 256
 63 73 28 21 28 11 c 257
 28 11 29 -3 35 -3 c 258
 112 -3 l 258
 150 -3 191 -2 231 -2 c 256
 320 -2 419 -5 533 -5 c 256
EndSplineSet
PickledDataWithLists: "(dp0
Vpublic.markColor
p1
V0.67,0.95,0.38,1
p2
s."
Substitution2: "'c2pc' Capitals to Petite Capitals lookup 23 subtable" Z.pc
Substitution2: "'c2sc' Capitals to Small Capitals lookup 21 subtable" Z.sc
Substitution2: "'ordn' Ordinals lookup 15 subtable" Z.ordn
Substitution2: "'sups' Superscript lookup 9 subtable" Z.sups
Substitution2: "'sinf' Scientific Inferiors lookup 8 subtable" Z.sinf
Substitution2: "'subs' Subscript lookup 7 subtable" Z.subs
Comment: "+AAoA-Z+AAoA"
EndChar
StartChar: bracketleft
Encoding: 625 91 624
GlifName: bracketleft
Width: 331
VWidth: 0
Flags: W
LayerCount: 2
Fore
SplineSet
141 -200 m 258
 285 -200 l 258
 297 -200 311 -197 311 -185 c 256
 311 -173 298 -169 285 -167 c 257
 206 -154 l 258
 194 -152 183 -139 183 -121 c 258
 183 642 l 258
 183 653 197 666 206 667 c 258
 285 673 l 258
 298 674 311 678 311 688 c 256
 311 698 302 701 293 701 c 258
 148 702 l 258
 116 702 110 702 110 668 c 258
 110 -175 l 258
 110 -199 118 -200 141 -200 c 258
EndSplineSet
PickledDataWithLists: "(dp0
Vpublic.markColor
p1
V0.67,0.95,0.38,1
p2
s."
Substitution2: "'smcp' Lowercase to Small Capitals lookup 22 subtable" bracketleft.sc
Substitution2: "'c2sc' Capitals to Small Capitals lookup 21 subtable" bracketleft.sc
Substitution2: "'ordn' Ordinals lookup 15 subtable" bracketleft.ordn
Substitution2: "'sups' Superscript lookup 9 subtable" bracketleft.sups
Substitution2: "'sinf' Scientific Inferiors lookup 8 subtable" bracketleft.sinf
Substitution2: "'subs' Subscript lookup 7 subtable" bracketleft.subs
Comment: "+AAoA-bracketleft+AAoA"
EndChar
StartChar: backslash
Encoding: 596 92 595
GlifName: backslash
Width: 399
VWidth: 0
Flags: W
LayerCount: 2
Back
SplineSet
362 -62 m 256
 370 -62 379 -57 379 -50 c 256
 379 -49 378 -48 378 -47 c 257
 81 648 l 258
 74 663 59 665 42 665 c 256
 35 665 28 659 28 652 c 256
 28 651 29 649 29 648 c 257
 326 -47 l 258
 332 -61 347 -62 362 -62 c 256
EndSplineSet
Fore
SplineSet
362 -62 m 256
 375 -62 382 -55 378 -47 c 258
 81 648 l 258
 74 663 59 665 42 665 c 256
 29 665 25 657 29 648 c 258
 326 -47 l 258
 332 -61 347 -62 362 -62 c 256
EndSplineSet
PickledDataWithLists: "(dp0
Vpublic.markColor
p1
V0.67,0.95,0.38,1
p2
s."
Substitution2: "'smcp' Lowercase to Small Capitals lookup 22 subtable" backslash.sc
Substitution2: "'c2sc' Capitals to Small Capitals lookup 21 subtable" backslash.sc
Substitution2: "'ordn' Ordinals lookup 15 subtable" backslash.ordn
Substitution2: "'sups' Superscript lookup 9 subtable" backslash.sups
Substitution2: "'sinf' Scientific Inferiors lookup 8 subtable" backslash.sinf
Substitution2: "'subs' Subscript lookup 7 subtable" backslash.subs
Comment: "+AAoA-backslash+AAoA"
EndChar
StartChar: asciicircum
Encoding: 561 94 560
GlifName: asciicircum
Width: 500
VWidth: 0
Flags: W
LayerCount: 2
Fore
SplineSet
57 284 m 256
 69 284 90 291 98 303 c 258
 244 514 l 257
 248 520 249 520 254 514 c 257
 402 302 l 258
 408 293 428 284 443 284 c 256
 452 284 454 297 449 305 c 257
 251 603 l 257
 248 603 l 257
 51 305 l 257
 49 302 48 298 48 295 c 256
 48 289 52 284 57 284 c 256
EndSplineSet
PickledDataWithLists: "(dp0
Vpublic.markColor
p1
V0.67,0.95,0.38,1
p2
s."
Substitution2: "'smcp' Lowercase to Small Capitals lookup 22 subtable" asciicircum.sc
Substitution2: "'c2sc' Capitals to Small Capitals lookup 21 subtable" asciicircum.sc
Substitution2: "'ordn' Ordinals lookup 15 subtable" asciicircum.ordn
Substitution2: "'sups' Superscript lookup 9 subtable" asciicircum.sups
Substitution2: "'sinf' Scientific Inferiors lookup 8 subtable" asciicircum.sinf
Substitution2: "'subs' Subscript lookup 7 subtable" asciicircum.subs
Comment: "+AAoA-asciicircum+AAoA"
EndChar
StartChar: underscore
Encoding: 1547 95 1546
GlifName: underscore
Width: 500
VWidth: 0
Flags: W
LayerCount: 2
Fore
SplineSet
487 -132 m 258
 24 -132 l 258
 6 -132 0 -161 0 -170 c 256
 0 -176 7 -182 14 -182 c 258
 469 -182 l 258
 485 -182 501 -157 501 -143 c 256
 501 -137 493 -132 487 -132 c 258
EndSplineSet
PickledDataWithLists: "(dp0
Vpublic.markColor
p1
V0.67,0.95,0.38,1
p2
s."
Substitution2: "'smcp' Lowercase to Small Capitals lookup 22 subtable" underscore.sc
Substitution2: "'c2sc' Capitals to Small Capitals lookup 21 subtable" underscore.sc
Substitution2: "'ordn' Ordinals lookup 15 subtable" underscore.ordn
Substitution2: "'sups' Superscript lookup 9 subtable" underscore.sups
Substitution2: "'sinf' Scientific Inferiors lookup 8 subtable" underscore.sinf
Substitution2: "'subs' Subscript lookup 7 subtable" underscore.subs
Comment: "+AAoA-underscore+AAoA"
EndChar
StartChar: grave
Encoding: 926 96 925
GlifName: grave
Width: 200
VWidth: 0
Flags: W
LayerCount: 2
Back
SplineSet
40 636 m 256
 40 617 98 582 178 471 c 256
 183 464 196 449 205 449 c 256
 214 449 218 453 218 462 c 256
 218 477 146 603 125 637 c 256
 114 655 97 664 75 664 c 256
 57 664 40 650 40 636 c 256
EndSplineSet
Fore
Refer: 931 768 N 1 0 0 1 100 0 2
PickledDataWithLists: "(dp0
Vcom.schriftgestaltung.Glyphs.ComponentInfo
p1
(lp2
(dp3
Valignment
p4
I-1
sVindex
p5
I0
sVname
p6
Vgravecomb
p7
sasVpublic.markColor
p8
V0.67,0.95,0.38,1
p9
s."
Substitution2: "'smcp' Lowercase to Small Capitals lookup 22 subtable" grave.sc
Substitution2: "'c2sc' Capitals to Small Capitals lookup 21 subtable" grave.sc
Substitution2: "'ordn' Ordinals lookup 15 subtable" grave.ordn
Substitution2: "'sups' Superscript lookup 9 subtable" grave.sups
Substitution2: "'sinf' Scientific Inferiors lookup 8 subtable" grave.sinf
Substitution2: "'subs' Subscript lookup 7 subtable" grave.subs
Comment: "+AAoA-grave+AAoA"
EndChar
StartChar: a
Encoding: 97 97 0
GlifName: a
Width: 399
VWidth: 0
Flags: HMW
AnchorPoint: "cedilla" 303 8 basechar 0
AnchorPoint: "ogonek" 341 18 basechar 0
AnchorPoint: "below_accent" 178 -100 basechar 0
AnchorPoint: "top_accent" 191 550 basechar 0
LayerCount: 3
Back
SplineSet
115 87 m 0
 115 49 145 32 164 32 c 0
 190 32 208 45 224 59 c 0
 231 65 236 74 236 99 c 9
 238 148 l 18
 239 163 235 168 227 168 c 0
 224 168 220 167 215 166 c 0
 139 144 115 110 115 87 c 0
318 -14 m 0
 261 -14 252 38 244 38 c 0
 231 38 203 -13 121 -14 c 0
 80 -14 35 26 35 65 c 0
 35 107 59 135 108 155 c 10
 210 197 l 18
 236 208 237 210 238 237 c 2
 240 299 l 26
 241 334 218 365 181 365 c 0
 157 365 128 347 120 333 c 0
 115 324 116 312 117 300 c 0
 118 286 70 270 48 264 c 0
 42 262 37 274 41 285 c 0
 50 310 55 321 80 343 c 0
 111 371 176 414 229 414 c 0
 277 414 312 372 311 325 c 10
 306 109 l 26
 305 76 312 32 342 32 c 0
 360 32 371 36 382 46 c 0
 389 53 400 44 397 34 c 0
 395 28 356 -14 318 -14 c 0
EndSplineSet
Fore
SplineSet
115 87 m 0
 115 49 145 32 164 32 c 0
 190 32 208 45 224 59 c 0
 231 65 235 74 236 99 c 10
 238 148 l 18
 239 163 237 169 229 169 c 0
 226 169 220 168 215 166 c 0
 138 140 115 110 115 87 c 0
342 32 m 0
 360 32 371 36 382 46 c 0
 388 52 398 45 398 37 c 0
 398 29 356 -14 318 -14 c 0
 261 -14 252 38 244 38 c 0
 231 38 203 -13 121 -14 c 0
 80 -14 35 26 35 65 c 0
 35 107 59 135 108 155 c 10
 210 197 l 18
 236 208 237 210 238 237 c 2
 240 301 l 2
 241 335 217 365 181 365 c 0
 157 365 128 347 120 333 c 0
 117 328 116 321 116 314 c 0
 116 309 117 305 117 300 c 0
 117 286 61 265 48 265 c 0
 42 265 40 271 40 274 c 0
 40 295 55 321 80 343 c 0
 111 371 176 414 229 414 c 0
 276 414 312 374 311 325 c 10
 306 109 l 18
 306 70 313 32 342 32 c 0
EndSplineSet
Validated: 33
Substitution2: "Single Substitution lookup 115 subtable" a.sc
Substitution2: "Smallcaps1 subtable" a.sc
AlternateSubs2: "alternate_a subtable" a.01
Substitution2: "sups subtable" a.sups
Substitution2: "sinf subtable" a.sinf
Substitution2: "ordn subtable" a.ordn
Substitution2: "subs subtable" a.subs
EndChar
StartChar: b
Encoding: 588 98 587
GlifName: b
Width: 515
VWidth: 0
Flags: W
AnchorPoint: "bottom" 253 -30 basechar 0
LayerCount: 2
Back
SplineSet
259 -14 m 256
 410 -14 480 100 480 217 c 256
 480 325 404 414 300 414 c 256
 266 414 204 397 154 355 c 257
 145 356 145 367 145 388 c 258
 145 593 l 258
 145 649 148 693 148 698 c 256
 148 701 145 705 142 705 c 256
 138 705 58 671 27 664 c 256
 23 663 20 658 20 652 c 256
 20 646 23 640 28 639 c 256
 61 632 75 601 75 566 c 258
 75 105 l 258
 75 52 68 11 68 9 c 256
 68 3 76 -3 84 -3 c 256
 89 -3 101 15 113 15 c 256
 127 15 197 -14 259 -14 c 256
282 17 m 256
 212 17 145 62 145 132 c 258
 145 253 l 258
 145 306 152 323 166 338 c 256
 188 362 237 373 265 373 c 256
 360 373 405 272 405 195 c 256
 405 94 358 17 282 17 c 256
EndSplineSet
Fore
SplineSet
259 -14 m 256
 390 -14 480 80 480 217 c 256
 480 328 401 414 300 414 c 256
 256 414 195 389 154 355 c 257
 147 356 145 362 145 388 c 258
 145 593 l 258
 145 649 148 693 148 698 c 256
 148 702 145 705 142 705 c 256
 140 705 137 704 133 702 c 256
 120 696 54 669 28 664 c 256
 23 663 16 661 16 654 c 256
 16 646 23 642 29 639 c 256
 56 627 75 601 75 566 c 258
 75 81 l 258
 75 56 68 21 68 9 c 256
 68 2 76 -3 82 -3 c 256
 85 -3 88 -1 91 2 c 256
 97 8 105 15 113 15 c 256
 120 15 144 7 173 -1 c 256
 199 -8 230 -14 259 -14 c 256
282 17 m 256
 212 17 145 62 145 132 c 258
 145 326 l 257
 174 353 214 372 267 372 c 256
 362 372 405 272 405 195 c 256
 405 94 358 17 282 17 c 256
EndSplineSet
PickledDataWithLists: "(dp0
Vcom.schriftgestaltung.Glyphs.glyph.rightMetricsKey
p1
Vo
p2
sVpublic.markColor
p3
V0.67,0.95,0.38,1
p4
s."
Substitution2: "'ss01' Style Set 1 lookup 29 subtable" B.pc
Substitution2: "'pcap' Lowercase to Petite Capitals lookup 24 subtable" b.pc
Substitution2: "'smcp' Lowercase to Small Capitals lookup 22 subtable" b.sc
Substitution2: "'ordn' Ordinals lookup 15 subtable" b.ordn
Substitution2: "'sups' Superscript lookup 9 subtable" b.sups
Substitution2: "'sinf' Scientific Inferiors lookup 8 subtable" b.sinf
Substitution2: "'subs' Subscript lookup 7 subtable" b.subs
Comment: "+AAoA-b+AAoA"
EndChar
StartChar: c
Encoding: 648 99 647
GlifName: c
Width: 407
VWidth: 0
Flags: W
AnchorPoint: "top" 237 440 basechar 0
LayerCount: 2
Back
SplineSet
213 -15 m 256
 274 -15 325 7 357 48 c 256
 367 61 372 71 372 79 c 256
 372 87 367 93 361 93 c 256
 358 93 354 91 351 88 c 256
 319 56 295 45 256 45 c 256
 171 45 104 118 104 212 c 256
 104 310 149 377 214 377 c 256
 258 377 269 372 308 330 c 256
 315 323 322 319 329 319 c 256
 346 319 372 343 372 360 c 256
 372 367 368 373 360 379 c 256
 328 402 289 414 246 414 c 256
 129 414 35 310 35 180 c 256
 35 69 112 -15 213 -15 c 256
EndSplineSet
Fore
SplineSet
213 -15 m 256
 274 -15 325 7 357 48 c 256
 367 61 372 71 372 79 c 256
 372 87 367 93 361 93 c 256
 358 93 354 91 351 88 c 256
 319 56 295 45 256 45 c 256
 171 45 104 118 104 212 c 256
 104 310 149 377 214 377 c 256
 238 377 279 352 308 330 c 256
 316 324 322 319 329 319 c 256
 346 319 372 343 372 360 c 256
 372 367 368 373 360 379 c 256
 328 402 289 414 246 414 c 256
 129 414 35 310 35 180 c 256
 35 69 112 -15 213 -15 c 256
EndSplineSet
PickledDataWithLists: "(dp0
Vpublic.markColor
p1
V0.67,0.95,0.38,1
p2
s."
Substitution2: "'ss01' Style Set 1 lookup 29 subtable" C.pc
Substitution2: "'pcap' Lowercase to Petite Capitals lookup 24 subtable" c.pc
Substitution2: "'smcp' Lowercase to Small Capitals lookup 22 subtable" c.sc
Substitution2: "'ordn' Ordinals lookup 15 subtable" c.ordn
Substitution2: "'sups' Superscript lookup 9 subtable" c.sups
Substitution2: "'sinf' Scientific Inferiors lookup 8 subtable" c.sinf
Substitution2: "'subs' Subscript lookup 7 subtable" c.subs
Comment: "+AAoA-c+AAoA"
EndChar
StartChar: d
Encoding: 708 100 707
GlifName: d
Width: 506
VWidth: 0
Flags: W
AnchorPoint: "bottom" 238 -30 basechar 0
LayerCount: 2
Back
SplineSet
213 -15 m 256
 286 -15 331 15 357 48 c 256
 365 58 372 69 372 79 c 256
 372 87 367 93 361 93 c 256
 357 93 354 91 351 88 c 256
 321 58 298 45 256 45 c 256
 160 45 104 130 104 212 c 256
 104 299 141 377 214 377 c 256
 264 377 274 366 308 330 c 256
 313 325 320 319 329 319 c 256
 346 319 372 343 372 360 c 256
 372 368 367 374 360 379 c 256
 328 402 289 414 246 414 c 256
 123 414 35 303 35 180 c 256
 35 77 105 -15 213 -15 c 256
EndSplineSet
Fore
SplineSet
357 -19 m 256
 361 -19 362 -19 373 -13 c 256
 420 7 453 16 490 21 c 256
 497 21 504 30 504 39 c 256
 504 47 499 49 486 48 c 256
 469 46 450 45 443 45 c 256
 428 45 422 64 422 110 c 258
 422 562 l 258
 422 652 429 686 429 698 c 257
 428 702 426 704 422 704 c 256
 419 704 414 703 409 701 c 256
 390 693 360 679 301 664 c 256
 295 662 293 657 293 652 c 256
 293 646 296 640 302 639 c 256
 334 633 352 620 352 566 c 258
 352 424 l 258
 352 406 348 400 345 400 c 256
 342 400 338 401 332 403 c 256
 317 408 287 414 260 414 c 256
 120 414 35 306 35 190 c 256
 35 89 106 -14 220 -14 c 256
 286 -14 331 26 351 57 c 257
 351 51 l 258
 351 34 346 4 346 -9 c 256
 346 -12 354 -19 357 -19 c 256
256 38 m 256
 212 38 106 62 106 213 c 256
 106 346 183 379 229 379 c 256
 303 379 352 321 352 267 c 258
 351 87 l 257
 326 58 291 38 256 38 c 256
EndSplineSet
PickledDataWithLists: "(dp0
Vcom.schriftgestaltung.Glyphs.glyph.leftMetricsKey
p1
Vo
p2
sVpublic.markColor
p3
V0.67,0.95,0.38,1
p4
s."
Substitution2: "'ss01' Style Set 1 lookup 29 subtable" D.pc
Substitution2: "'pcap' Lowercase to Petite Capitals lookup 24 subtable" d.pc
Substitution2: "'smcp' Lowercase to Small Capitals lookup 22 subtable" d.sc
Substitution2: "'ordn' Ordinals lookup 15 subtable" d.ordn
Substitution2: "'sups' Superscript lookup 9 subtable" d.sups
Substitution2: "'sinf' Scientific Inferiors lookup 8 subtable" d.sinf
Substitution2: "'subs' Subscript lookup 7 subtable" d.subs
Comment: "+AAoA-d+AAoA"
EndChar
StartChar: e
Encoding: 101 101 13
GlifName: e
Width: 390
VWidth: 0
Flags: HMW
AnchorPoint: "cedilla" 253 8 basechar 0
AnchorPoint: "ogonek" 292 18 basechar 0
AnchorPoint: "below_accent" 214 -100 basechar 0
AnchorPoint: "top_accent" 211 550 basechar 0
LayerCount: 3
Back
SplineSet
229 414 m 0xf4
 310 414 358 376 358 323 c 0xf8
 358 290 351 275 337 268 c 0
 323 261 303 257 281 257 c 18
 117 257 l 2
 101 257 92 254 92 220 c 0
 92 124 154 48 243 48 c 16
 268 48 307 54 333 88 c 0
 336 91 339 93 342 93 c 0
 349 93 356 85 354 77 c 0
 344 42 290 -14 198 -14 c 0
 107 -14 33 51 33 184 c 8
 33 299 119 414 229 414 c 0xf4
115 318 m 4
 112 313 111 308 111 303 c 0
 111 295 116 288 130 288 c 2
 212 288 l 10
 240 288 264 289 285 293 c 0
 292 294 293 308 293 319 c 2
 293 333 l 1
 290 365 256 383 213 383 c 0
 157 383 127 340 115 318 c 4
EndSplineSet
Fore
SplineSet
229 414 m 0
 306 414 360 376 360 302 c 0
 360 272 351 257 325 257 c 2
 117 257 l 2
 101 257 92 254 92 220 c 8
 92 130 153 46 243 46 c 16
 268 46 313 57 339 91 c 0
 342 94 347 98 350 98 c 0
 357 98 358 86 356 78 c 0
 346 43 290 -14 198 -14 c 0
 107 -14 30 70 30 203 c 8
 30 316 116 414 229 414 c 0
213 383 m 0
 157 383 111 329 111 303 c 0
 111 295 116 288 130 288 c 2
 212 288 l 10
 241 288 264 289 285 293 c 0
 292 294 295 310 295 321 c 8
 295 361 252 383 213 383 c 0
EndSplineSet
Validated: 1
Substitution2: "Single Substitution lookup 117 subtable" e.xtex3
Substitution2: "Single Substitution lookup 116 subtable" e.xtex1
Substitution2: "Single Substitution lookup 114 subtable" e.xtex2
Substitution2: "Single Substitution lookup 113 subtable" e.xtex2
Substitution2: "Smallcaps1 subtable" e.sc
Substitution2: "sups subtable" e.sups
Substitution2: "sinf subtable" e.sinf
Substitution2: "ordn subtable" e.ordn
Substitution2: "subs subtable" e.subs
EndChar
StartChar: f
Encoding: 842 102 841
GlifName: f
Width: 318
VWidth: 0
Flags: W
LayerCount: 2
Back
SplineSet
44 -3 m 256
 84 -3 92 2 127 2 c 256
 162 2 166 -3 206 -3 c 256
 219 -3 226 0 226 8 c 256
 226 18 217 21 203 24 c 256
 182 29 160 42 160 68 c 258
 160 335 l 258
 160 345 164 352 200 352 c 258
 296 352 l 258
 303 352 309 375 309 389 c 256
 309 395 308 400 305 400 c 258
 185 400 l 258
 172 400 160 404 160 422 c 258
 160 475 l 258
 160 610 206 665 268 665 c 256
 312 665 335 646 352 629 c 256
 365 617 374 606 386 606 c 256
 404 606 420 624 420 646 c 256
 420 698 359 706 310 706 c 256
 223 706 90 633 90 402 c 257
 70 392 61 384 31 376 c 257
 29 375 24 373 24 370 c 256
 24 363 34 353 38 352 c 257
 59 350 77 350 90 350 c 257
 90 68 l 258
 90 41 67 30 47 24 c 256
 33 20 24 18 24 8 c 256
 24 0 31 -3 44 -3 c 256
EndSplineSet
Fore
SplineSet
44 -3 m 256
 84 -3 92 2 127 2 c 256
 162 2 189 -3 229 -3 c 256
 242 -3 249 0 249 8 c 256
 249 18 240 22 226 24 c 256
 172 30 160 41 160 68 c 258
 160 339 l 258
 160 347 163 352 179 352 c 258
 294 352 l 258
 297 352 301 355 303 360 c 256
 307 368 309 380 309 389 c 256
 309 395 303 400 296 400 c 258
 171 400 l 258
 165 400 160 402 160 410 c 258
 160 498 l 258
 160 611 205 665 268 665 c 256
 312 665 335 646 352 629 c 256
 365 617 374 606 386 606 c 256
 404 606 420 619 420 646 c 256
 420 681 384 706 310 706 c 256
 223 706 90 637 90 406 c 257
 70 396 55 388 31 376 c 256
 29 375 24 373 24 370 c 256
 24 363 34 353 38 352 c 257
 59 350 77 350 90 350 c 257
 90 68 l 258
 90 41 78 31 47 24 c 256
 33 21 24 18 24 8 c 256
 24 0 31 -3 44 -3 c 256
EndSplineSet
PickledDataWithLists: "(dp0
Vpublic.markColor
p1
V0.67,0.95,0.38,1
p2
s."
Substitution2: "'ss01' Style Set 1 lookup 29 subtable" F.pc
Substitution2: "'pcap' Lowercase to Petite Capitals lookup 24 subtable" f.pc
Substitution2: "'smcp' Lowercase to Small Capitals lookup 22 subtable" f.sc
Substitution2: "'ordn' Ordinals lookup 15 subtable" f.ordn
Substitution2: "'sups' Superscript lookup 9 subtable" f.sups
Substitution2: "'sinf' Scientific Inferiors lookup 8 subtable" f.sinf
Substitution2: "'subs' Subscript lookup 7 subtable" f.subs
Substitution2: "'locl' Localized Forms in Latin lookup 4 subtable" f.DEU
Comment: "+AAoA-f+AAoA"
EndChar
StartChar: g
Encoding: 900 103 899
GlifName: g
Width: 435
VWidth: 0
Flags: W
AnchorPoint: "top" 215 440 basechar 0
LayerCount: 5
Back
SplineSet
195 -290 m 256
 296 -290 418 -187 418 -77 c 256
 418 2 322 19 236 24 c 256
 166 28 106 36 106 69 c 256
 106 82 136 107 154 124 c 257
 124 137 l 257
 105 106 75 90 63 81 c 256
 49 70 40 59 40 44 c 256
 40 -25 125 -31 207 -37 c 256
 295 -43 357 -58 357 -109 c 256
 357 -192 287 -250 209 -250 c 256
 130 -250 86 -200 86 -134 c 256
 86 -85 138 -53 167 -28 c 257
 126 -23 l 257
 106 -56 80 -70 58 -88 c 256
 43 -100 11 -129 11 -176 c 256
 11 -264 111 -290 195 -290 c 256
207 141 m 256
 150 141 111 207 111 270 c 256
 111 318 143 386 200 386 c 256
 256 386 295 325 295 265 c 256
 295 200 257 141 207 141 c 256
197 106 m 256
 286 106 360 192 360 295 c 256
 360 310 360 330 364 341 c 257
 378 343 369 349 426 349 c 256
 432 349 435 357 435 366 c 256
 435 375 433 388 426 388 c 256
 416 388 389 385 373 385 c 256
 353 385 340 385 320 389 c 256
 278 397 258 416 213 416 c 256
 122 416 39 351 39 258 c 256
 39 176 119 106 197 106 c 256
EndSplineSet
Fore
SplineSet
195 -290 m 256
 303 -290 418 -180 418 -77 c 256
 418 -16 359 17 236 24 c 256
 151 29 106 46 106 74 c 256
 106 88 129 109 158 120 c 257
 124 137 l 257
 113 119 109 116 63 81 c 256
 47 68 40 57 40 44 c 256
 40 -7 82 -28 207 -37 c 256
 313 -44 357 -65 357 -109 c 256
 357 -155 337 -198 304 -223 c 256
 280 -241 249 -250 209 -250 c 256
 140 -250 86 -208 86 -155 c 256
 86 -102 108 -69 172 -28 c 257
 130 -26 l 257
 97 -53 63 -79 44 -95 c 256
 21 -113 11 -135 11 -170 c 256
 11 -244 81 -290 195 -290 c 256
207 141 m 256
 155 141 111 200 111 270 c 256
 111 331 153 386 200 386 c 256
 249 386 295 333 295 275 c 256
 295 199 257 141 207 141 c 256
201 106 m 256
 287 106 360 193 360 295 c 256
 360 313 363 332 366 341 c 256
 368 346 378 349 396 349 c 258
 423 349 l 257
 425 349 428 351 431 354 c 256
 437 360 441 368 441 373 c 256
 441 382 435 388 428 388 c 256
 418 388 389 385 373 385 c 256
 353 385 338 386 306 395 c 256
 278 403 252 416 213 416 c 256
 122 416 39 351 39 258 c 256
 39 176 119 106 201 106 c 256
EndSplineSet
PickledDataWithLists: "(dp0
Vpublic.markColor
p1
V0.67,0.95,0.38,1
p2
s."
Layer: 4
SplineSet
195 -290 m 256
 296 -290 418 -187 418 -77 c 256
 418 7 322 16 195 28 c 256
 163 31 99 41 99 69 c 256
 99 82 122 102 143 118 c 257
 158.728 109.246 187 106 197 106 c 256
 286 106 360 192 360 295 c 256
 360 310 360 330 364 341 c 257
 378 343 369 349 426 349 c 256
 432 349 435 357 435 366 c 256
 435 375 433 388 426 388 c 256
 416 388 389 385 373 385 c 256
 353 385 340.351 385.057 320 389 c 256
 277.748 397.186 258 416 213 416 c 256
 122 416 39 351 39 258 c 256
 39 183 109.386 130.145 122 127 c 257
 107 104 82 95 63 81 c 256
 49 70 40 59 40 44 c 256
 40 -3 96 -24 130 -31 c 257
 115 -55 88 -72 60 -90 c 257
 43 -100 11 -129 11 -176 c 256
 11 -264 111 -290 195 -290 c 256
209 -250 m 256
 130 -250 82 -200 82 -134 c 256
 82 -118 89 -100 106 -80 c 257
 119 -67 144 -42 156 -34 c 257
 162 -32 172 -34 179 -34 c 257
 202 -35 252 -39 277 -44 c 256
 310 -51 357 -72 357 -109 c 256
 357 -192 287 -250 209 -250 c 256
207 141 m 256
 150 141 111 207.287 111 270 c 256
 111 318 142.979 386 200 386 c 256
 256 386 295 324.997 295 265 c 256
 295 200 257 141 207 141 c 256
EndSplineSet
PickledDataWithLists: "(dp0
Vpublic.markColor
p1
V0.67,0.95,0.38,1
p2
s."
Substitution2: "'ss01' Style Set 1 lookup 29 subtable" G.pc
Substitution2: "'pcap' Lowercase to Petite Capitals lookup 24 subtable" g.pc
Substitution2: "'smcp' Lowercase to Small Capitals lookup 22 subtable" g.sc
Substitution2: "'ordn' Ordinals lookup 15 subtable" g.ordn
Substitution2: "'sups' Superscript lookup 9 subtable" g.sups
Substitution2: "'sinf' Scientific Inferiors lookup 8 subtable" g.sinf
Substitution2: "'subs' Subscript lookup 7 subtable" g.subs
Comment: "+AAoA-g+AAoA"
EndChar
StartChar: h
Encoding: 104 104 4
GlifName: h
Width: 515
VWidth: 0
Flags: HMW
AnchorPoint: "cedilla" 130 8 basechar 0
AnchorPoint: "below_accent" 231 -100 basechar 0
AnchorPoint: "top_accent" 242 761 basechar 0
LayerCount: 3
Back
SplineSet
153 562 m 0
 153 499 153 439 153 388 c 0
 153 376 152 362 157 356 c 1
 176 375 242 414 305 414 c 0
 370 414 420 372 420 294 c 2
 420 84 l 2
 420 55 419 43 428 34 c 0
 437 23 461 25 468 21 c 8
 476 16 477 -3 468 -3 c 0
 429 -3 417 2 385 2 c 24
 351 2 336 -3 297 -3 c 0
 288 -3 288 16 297 21 c 0
 304 25 325 22 337 34 c 8
 349 46 350 59 350 77 c 18
 350 272 l 10
 350 323 299 362 256 362 c 0
 231 362 197 349 180 334 c 0
 160 316 153 309 153 268 c 0
 153 189 153 139 153 77 c 0
 153 61 155 46 166 34 c 0
 175 24 199 25 206 21 c 8
 214 16 215 -3 206 -3 c 0
 167 -3 152 2 118 2 c 24
 82 2 66 -3 27 -3 c 0
 18 -3 18 16 27 21 c 0
 34 25 58 22 70 34 c 8
 82 46 83 58 83 74 c 0
 83 344 83 375 83 566 c 0
 83 602 72 632 38 639 c 8
 28 641 28 662 37 664 c 16
 88 676 121 692 153 704 c 0
 158 706 160 702 162 698 c 0
 162 686 153 669 153 562 c 0
EndSplineSet
Fore
SplineSet
428 68 m 2
 428 41 449 30 469 24 c 0
 480 20 492 16 492 6 c 0
 492 -2 480 -3 472 -3 c 0
 432 -3 429 2 394 2 c 0
 359 2 356 -3 316 -3 c 0
 308 -3 296 -2 296 6 c 0
 296 16 308 20 319 24 c 0
 339 30 358 41 358 68 c 2
 358 272 l 10
 358 322 308 362 265 362 c 0
 240 362 201 355 182 340 c 0
 161 323 155 309 155 268 c 2
 155 65 l 1
 156 38 173 30 193 24 c 0
 204 20 216 16 216 6 c 0
 216 -2 204 -3 196 -3 c 0
 156 -3 155 2 120 2 c 0
 85 2 79 -3 39 -3 c 0
 32 -3 19 -2 19 6 c 0
 19 16 31 20 42 24 c 0
 62 30 84 38 85 65 c 1
 85 566 l 2
 85 602 74 632 40 639 c 0
 35 640 32 646 32 652 c 0
 32 658 35 663 39 664 c 0
 90 676 123 692 155 704 c 0
 156 704 157 705 157 705 c 1
 161 705 162 701 164 698 c 1
 164 686 155 669 155 562 c 2
 155 388 l 2
 155 376 158 357 163 351 c 1
 194 374 251 414 314 414 c 0
 379 414 428 356 428 278 c 2
 428 68 l 2
EndSplineSet
Validated: 1
Substitution2: "Single Substitution lookup 89 subtable" h.f_
Substitution2: "Single Substitution lookup 81 subtable" h.f_
Substitution2: "Smallcaps1 subtable" h.sc
Substitution2: "alternate_h subtable" h.01
Substitution2: "sups subtable" h.sups
Substitution2: "sinf subtable" h.sinf
Substitution2: "ordn subtable" h.ordn
Substitution2: "subs subtable" h.subs
EndChar
StartChar: i
Encoding: 992 105 991
GlifName: i
Width: 245
VWidth: 0
Flags: W
AnchorPoint: "bottom" 116 -30 basechar 0
AnchorPoint: "top" 124 440 basechar 0
LayerCount: 2
Back
SplineSet
44 -3 m 256
 83 -3 90 2 125 2 c 256
 160 2 168 -3 206 -3 c 256
 219 -3 226 0 226 8 c 256
 226 18 214 21 203 24 c 256
 176 31 160 39 160 62 c 258
 160 294 l 258
 160 339 165 388 169 429 c 257
 169 432 166 434 162 434 c 256
 154 434 111 393 44 377 c 256
 40 376 35 370 35 365 c 256
 35 359 40 353 45 352 c 256
 79 345 90 315 90 279 c 258
 90 62 l 258
 90 38 75 31 47 24 c 256
 36 21 24 18 24 8 c 256
 24 0 32 -3 44 -3 c 256
116 515 m 256
 145 515 167 537 167 565 c 256
 167 594 145 616 116 616 c 256
 88 616 66 594 66 565 c 256
 66 537 88 515 116 515 c 256
116 515 m 256
 145 515 167 537 167 565 c 256
 167 594 145 616 116 616 c 256
 88 616 66 594 66 565 c 256
 66 537 88 515 116 515 c 256
EndSplineSet
Fore
Refer: 747 305 N 1 0 0 1 0 0 2
Refer: 744 729 N 1 0 0 1 24 0 2
PickledDataWithLists: "(dp0
Vcom.schriftgestaltung.Glyphs.glyph.leftMetricsKey
p1
Vn
p2
sVpublic.markColor
p3
V0.67,0.95,0.38,1
p4
s."
Substitution2: "'ss01' Style Set 1 lookup 29 subtable" I.pc
Substitution2: "'pcap' Lowercase to Petite Capitals lookup 24 subtable" i.pc
Substitution2: "'smcp' Lowercase to Small Capitals lookup 22 subtable" i.sc
Substitution2: "'ordn' Ordinals lookup 15 subtable" i.ordn
Substitution2: "'sups' Superscript lookup 9 subtable" i.sups
Substitution2: "'sinf' Scientific Inferiors lookup 8 subtable" i.sinf
Substitution2: "'subs' Subscript lookup 7 subtable" i.subs
Substitution2: "'locl' Localized Forms in Latin lookup 6 subtable" i.TRK
Substitution2: "'locl' Localized Forms in Latin lookup 3 subtable" i.TRK
Substitution2: "'locl' Localized Forms in Latin lookup 2 subtable" i.TRK
Comment: "+AAoA-i+AAoA"
EndChar
StartChar: j
Encoding: 1031 106 1030
GlifName: j
Width: 226
VWidth: 0
Flags: W
AnchorPoint: "top" 116 440 basechar 0
LayerCount: 2
Back
SplineSet
-14 -287 m 256
 26 -287 89 -220 114 -152 c 256
 143 -72 144 29 144 91 c 258
 144 275 l 258
 144 320 147 388 151 429 c 257
 151 432 148 434 144 434 c 256
 136 434 91 393 24 377 c 256
 20 376 17 370 17 365 c 256
 17 359 20 353 25 352 c 256
 59 345 71 315 71 279 c 258
 71 69 l 258
 71 0 71 -136 42 -197 c 256
 23 -237 0 -254 -24 -260 c 257
 -26 -261 -35 -269 -35 -277 c 256
 -35 -284 -21 -287 -14 -287 c 256
101 514 m 256
 130 514 152 536 152 564 c 256
 152 593 130 615 101 615 c 256
 73 615 51 593 51 564 c 256
 51 536 73 514 101 514 c 256
101 514 m 256
 130 514 152 536 152 564 c 256
 152 593 130 615 101 615 c 256
 73 615 51 593 51 564 c 256
 51 536 73 514 101 514 c 256
EndSplineSet
Fore
Refer: 1751 567 N 1 0 0 1 0 0 2
Refer: 744 729 N 1 0 0 1 16 0 2
PickledDataWithLists: "(dp0
Vpublic.markColor
p1
V0.67,0.95,0.38,1
p2
s."
Substitution2: "'ss07' Style Set 7 lookup 36 subtable" j.hist
Substitution2: "'ss01' Style Set 1 lookup 29 subtable" J.pc
Substitution2: "'pcap' Lowercase to Petite Capitals lookup 24 subtable" j.pc
Substitution2: "'smcp' Lowercase to Small Capitals lookup 22 subtable" j.sc
Substitution2: "'hist' Historical Forms lookup 20 subtable" j.hist
Substitution2: "'ordn' Ordinals lookup 15 subtable" j.ordn
Substitution2: "'sups' Superscript lookup 9 subtable" j.sups
Substitution2: "'sinf' Scientific Inferiors lookup 8 subtable" j.sinf
Substitution2: "'subs' Subscript lookup 7 subtable" j.subs
Comment: "+AAoA-j+AAoA"
EndChar
StartChar: k
Encoding: 1042 107 1041
GlifName: k
Width: 469
VWidth: 0
Flags: W
AnchorPoint: "bottom" 234 -30 basechar 0
LayerCount: 2
Back
SplineSet
254 9 m 256
 254 -1 272 0 277 0 c 256
 340 0 407 -5 459 -5 c 256
 466 -5 479 -4 479 4 c 256
 479 14 467 18 456 22 c 257
 436 28 396 49 374 70 c 256
 353 89 279 167 227 230 c 257
 223 234 225 243 230 247 c 257
 278 289 345 345 358 353 c 256
 376 364 403 379 428 384 c 256
 437 386 448 397 448 405 c 256
 448 409 443 412 440 412 c 257
 413 409 380 400 344 400 c 258
 295 400 l 258
 291 400 273 398 273 386 c 256
 273 383 282 379 285 378 c 257
 299 375 311 368 311 361 c 256
 311 360 311 359 310 358 c 257
 299 342 250 292 196 245 c 256
 181 232 170 226 161 224 c 256
 157 223 155 224 155 231 c 258
 155 562 l 258
 155 647 164 682 164 696 c 256
 164 700 161 705 158 705 c 256
 157 705 157 704 156 704 c 257
 124 692 89 676 38 664 c 256
 34 663 31 658 31 652 c 256
 31 646 34 640 39 639 c 256
 72 632 85 613 85 566 c 258
 85 65 l 258
 85 38 62 30 42 24 c 257
 31 20 19 16 19 6 c 256
 19 -4 37 -3 42 -3 c 256
 81 -3 85 2 120 2 c 256
 155 2 151 -3 190 -3 c 256
 195 -3 213 -4 213 6 c 256
 213 16 201 20 190 24 c 257
 170 30 155 38 155 65 c 257
 154 88 154 112 154 135 c 256
 154 158 154 180 155 199 c 257
 155 207 162 208 165 205 c 257
 291 60 l 257
 295 55 298 50 298 46 c 256
 298 26 254 30 254 9 c 256
EndSplineSet
Fore
SplineSet
42 -3 m 256
 81 -3 85 2 120 2 c 256
 155 2 151 -3 190 -3 c 256
 195 -3 213 -2 213 8 c 256
 213 18 201 20 190 24 c 256
 170 30 155 38 155 65 c 256
 154 88 154 112 154 135 c 256
 154 158 154 180 155 199 c 257
 155 204 157 206 160 206 c 256
 164 206 166 204 170 199 c 258
 291 62 l 257
 295 57 298 52 298 48 c 256
 298 36 286 30 271 25 c 256
 262 22 254 17 254 9 c 256
 254 4 258 0 272 0 c 256
 340 0 407 -3 459 -3 c 256
 471 -3 479 -1 479 8 c 256
 479 18 463 21 449 26 c 256
 429 33 396 51 374 72 c 256
 353 91 278 166 227 230 c 256
 225 232 224 235 224 237 c 256
 224 240 226 243 230 247 c 256
 278 289 345 345 358 353 c 256
 376 364 399 377 424 384 c 256
 438 388 449 394 449 402 c 256
 449 408 444 412 435 412 c 256
 416 412 375 400 344 400 c 258
 295 400 l 258
 281 400 273 395 273 388 c 256
 273 382 276 380 285 378 c 256
 297 375 311 370 311 363 c 256
 311 360 309 356 302 348 c 256
 289 333 250 292 196 245 c 256
 181 232 168 225 160 225 c 256
 157 225 155 228 155 234 c 258
 155 562 l 258
 155 647 164 682 164 696 c 256
 164 702 162 705 158 705 c 256
 155 705 153 704 149 702 c 256
 119 689 90 676 39 664 c 256
 34 663 31 658 31 652 c 256
 31 646 34 640 40 639 c 256
 73 631 85 613 85 566 c 258
 85 65 l 258
 85 38 62 30 42 24 c 256
 31 20 19 18 19 8 c 256
 19 0 27 -3 42 -3 c 256
EndSplineSet
PickledDataWithLists: "(dp0
Vpublic.markColor
p1
V0.67,0.95,0.38,1
p2
s."
Substitution2: "'ss01' Style Set 1 lookup 29 subtable" K.pc
Substitution2: "'pcap' Lowercase to Petite Capitals lookup 24 subtable" k.pc
Substitution2: "'smcp' Lowercase to Small Capitals lookup 22 subtable" k.sc
Substitution2: "'ordn' Ordinals lookup 15 subtable" k.ordn
Substitution2: "'sups' Superscript lookup 9 subtable" k.sups
Substitution2: "'sinf' Scientific Inferiors lookup 8 subtable" k.sinf
Substitution2: "'subs' Subscript lookup 7 subtable" k.subs
Comment: "+AAoA-k+AAoA"
EndChar
StartChar: l
Encoding: 1062 108 1061
GlifName: l
Width: 240
VWidth: 0
Flags: W
AnchorPoint: "bottom" 121 -30 basechar 0
LayerCount: 2
Back
SplineSet
39 -3 m 256
 78 -3 85 2 120 2 c 256
 155 2 162 -3 201 -3 c 256
 208 -3 221 -2 221 6 c 256
 221 16 209 20 198 24 c 257
 178 30 155 35 155 62 c 258
 155 562 l 258
 155 652 162 686 162 698 c 256
 162 701 159 705 156 705 c 256
 155 705 155 704 154 704 c 257
 122 692 89 676 38 664 c 256
 34 663 31 658 31 652 c 256
 31 646 34 640 39 639 c 256
 72 632 85 605 85 566 c 258
 85 62 l 258
 85 35 62 30 42 24 c 257
 31 20 19 16 19 6 c 256
 19 -2 32 -3 39 -3 c 256
EndSplineSet
Fore
SplineSet
39 -3 m 256
 78 -3 85 2 120 2 c 256
 155 2 162 -3 201 -3 c 256
 208 -3 221 -2 221 6 c 256
 221 16 209 20 198 24 c 257
 178 30 155 35 155 62 c 258
 155 562 l 258
 155 652 162 686 162 698 c 256
 162 701 160 705 157 705 c 256
 155 705 153 704 151 703 c 256
 119 691 89 676 38 664 c 256
 34 663 31 658 31 652 c 256
 31 646 34 640 39 639 c 256
 72 632 85 605 85 566 c 258
 85 62 l 258
 85 35 62 30 42 24 c 257
 31 20 19 16 19 6 c 256
 19 -2 32 -3 39 -3 c 256
EndSplineSet
PickledDataWithLists: "(dp0
Vpublic.markColor
p1
V0.67,0.95,0.38,1
p2
s."
Substitution2: "'ss01' Style Set 1 lookup 29 subtable" L.pc
Substitution2: "'pcap' Lowercase to Petite Capitals lookup 24 subtable" l.pc
Substitution2: "'smcp' Lowercase to Small Capitals lookup 22 subtable" l.sc
Substitution2: "'ordn' Ordinals lookup 15 subtable" l.ordn
Substitution2: "'sups' Superscript lookup 9 subtable" l.sups
Substitution2: "'sinf' Scientific Inferiors lookup 8 subtable" l.sinf
Substitution2: "'subs' Subscript lookup 7 subtable" l.subs
Comment: "+AAoA-l+AAoA"
EndChar
StartChar: m
Encoding: 1121 109 1120
GlifName: m
Width: 778
VWidth: 0
Flags: W
AnchorPoint: "bottom" 390 -30 basechar 0
AnchorPoint: "top" 392 440 basechar 0
LayerCount: 2
Back
SplineSet
44 -3 m 256
 84 -3 90 2 125 2 c 256
 160 2 166 -3 206 -3 c 256
 218 -3 226 0 226 8 c 256
 226 18 214 20 203 24 c 256
 183 30 160 35 160 62 c 258
 160 268 l 258
 160 309 175 331 187 340 c 256
 212 360 240 367 274 367 c 256
 317 367 354 320 354 272 c 258
 354 62 l 258
 354 35 330 30 310 24 c 256
 299 20 287 18 287 8 c 256
 287 0 296 -3 307 -3 c 256
 347 -3 355 2 390 2 c 256
 425 2 432 -3 472 -3 c 256
 485 -3 492 0 492 8 c 256
 492 17 482 21 469 24 c 256
 449 29 424 35 424 62 c 258
 424 268 l 258
 424 308 440 331 452 340 c 256
 477 360 505 367 539 367 c 256
 582 367 619 320 619 272 c 258
 619 62 l 258
 619 35 597 29 576 24 c 256
 563 21 553 18 553 8 c 256
 553 0 561 -3 573 -3 c 256
 613 -3 621 2 656 2 c 256
 691 2 695 -3 735 -3 c 256
 750 -3 755 0 755 8 c 256
 755 17 745 20 732 24 c 256
 712 30 689 35 689 62 c 258
 689 275 l 258
 689 345 654 414 589 414 c 256
 524 414 470.597 381.87 445 358 c 256
 435 349 430 346 426 346 c 256
 422 346 419 347 416 354 c 256
 398.296 395.306 371 414 323 414 c 256
 244 414 192.06 372.234 165 347 c 257
 163.586 348.414 163 353 163 359 c 256
 163 378 168 414 168 423 c 256
 168 427 165 430 162 430 c 256
 158 430 155 427 153 426 c 256
 117 403 105 387 51 374 c 256
 46 373 43 370 43 362 c 256
 43 354 46 350 52 349 c 256
 86 343 90 313 90 277 c 258
 90 62 l 258
 90 35 66 30 47 24 c 256
 34 20 24 17 24 8 c 256
 24 -1 33 -3 44 -3 c 256
EndSplineSet
Fore
SplineSet
44 -3 m 256
 84 -3 90 2 125 2 c 256
 160 2 166 -3 206 -3 c 256
 218 -3 226 0 226 8 c 256
 226 18 214 20 203 24 c 256
 183 30 160 35 160 62 c 258
 160 268 l 258
 160 302 168 326 187 340 c 256
 212 360 240 367 274 367 c 256
 317 367 354 320 354 272 c 258
 354 62 l 258
 354 35 330 30 310 24 c 256
 299 20 287 18 287 8 c 256
 287 0 296 -3 307 -3 c 256
 347 -3 355 2 390 2 c 256
 425 2 432 -3 472 -3 c 256
 485 -3 492 0 492 8 c 256
 492 17 482 21 469 24 c 256
 449 29 424 35 424 62 c 258
 424 268 l 258
 424 303 434 326 452 340 c 256
 477 360 505 367 539 367 c 256
 582 367 619 320 619 272 c 258
 619 62 l 258
 619 35 597 29 576 24 c 256
 563 21 553 18 553 8 c 256
 553 0 561 -3 573 -3 c 256
 613 -3 621 2 656 2 c 256
 691 2 695 -3 735 -3 c 256
 750 -3 755 0 755 8 c 256
 755 17 745 20 732 24 c 256
 712 30 689 35 689 62 c 258
 689 275 l 258
 689 345 654 414 589 414 c 256
 524 414 469 383 426 345 c 257
 423 345 l 257
 402 396 371 414 323 414 c 256
 246 414 197 376 167 347 c 257
 165 347 l 257
 163.586 348.414 163 353 163 359 c 256
 163 378 168 414 168 423 c 256
 168 427 165 430 162 430 c 256
 158 430 155 427 153 426 c 256
 117 403 105 387 51 374 c 256
 46 373 43 370 43 362 c 256
 43 354 46 350 52 349 c 256
 86 343 90 313 90 277 c 258
 90 62 l 258
 90 35 66 30 47 24 c 256
 34 20 24 17 24 8 c 256
 24 -1 33 -3 44 -3 c 256
EndSplineSet
PickledDataWithLists: "(dp0
Vcom.schriftgestaltung.Glyphs.glyph.leftMetricsKey
p1
Vn
p2
sVcom.schriftgestaltung.Glyphs.glyph.rightMetricsKey
p3
g2
sVpublic.markColor
p4
V0.67,0.95,0.38,1
p5
s."
Substitution2: "'ss01' Style Set 1 lookup 29 subtable" M.pc
Substitution2: "'pcap' Lowercase to Petite Capitals lookup 24 subtable" m.pc
Substitution2: "'smcp' Lowercase to Small Capitals lookup 22 subtable" m.sc
Substitution2: "'ordn' Ordinals lookup 15 subtable" m.ordn
Substitution2: "'sups' Superscript lookup 9 subtable" m.sups
Substitution2: "'sinf' Scientific Inferiors lookup 8 subtable" m.sinf
Substitution2: "'subs' Subscript lookup 7 subtable" m.subs
Comment: "+AAoA-m+AAoA"
EndChar
StartChar: n
Encoding: 1136 110 1135
GlifName: n
Width: 528
VWidth: 0
Flags: W
AnchorPoint: "bottom" 266 -30 basechar 0
AnchorPoint: "top" 271 440 basechar 0
LayerCount: 2
Back
SplineSet
44 -3 m 256
 84 -3 90 2 125 2 c 256
 160 2 166 -3 206 -3 c 256
 219 -3 226 0 226 8 c 256
 226 16 219 20 203 24 c 256
 183 29 160 35 160 62 c 258
 160 268 l 258
 160 309 175 331 187 340 c 256
 212 360 245 366 279 366 c 256
 333 365 369 330 369 272 c 258
 369 62 l 258
 369 35 346 30 326 24 c 257
 315 20 303 16 303 6 c 256
 303 -2 316 -3 323 -3 c 256
 363 -3 370 2 405 2 c 256
 440 2 445 -3 485 -3 c 256
 493 -3 505 -2 505 6 c 256
 505 16 493 20 482 24 c 257
 462 30 439 35 439 62 c 258
 439 275 l 258
 439 353 391 414 326 414 c 256
 263 414 211.5 391.5 165 347 c 257
 163.586 348.414 163 353 163 359 c 256
 163 378 168 414 168 423 c 256
 168 427 164 430 161 430 c 257
 127 407 102 386 50 374 c 256
 46 373 43 368 43 362 c 256
 43 356 46 350 51 349 c 256
 85 342 90.167 313 90 277 c 258
 90 62 l 258
 90 35 67 29 47 24 c 256
 32 20 24 18 24 8 c 256
 24 0 32 -3 44 -3 c 256
EndSplineSet
Fore
SplineSet
44 -3 m 256
 84 -3 90 2 125 2 c 256
 160 2 166 -3 206 -3 c 256
 219 -3 226 0 226 8 c 256
 226 16 219 20 203 24 c 256
 183 29 160 35 160 62 c 258
 160 303 l 258
 160 311 163 321 168 326 c 256
 196 349 231 366 279 366 c 256
 333 365 369 330 369 272 c 258
 369 62 l 258
 369 35 346 30 326 24 c 256
 315 20 303 16 303 6 c 256
 303 -2 316 -3 323 -3 c 256
 363 -3 370 2 405 2 c 256
 440 2 445 -3 485 -3 c 256
 493 -3 505 -2 505 6 c 256
 505 16 493 20 482 24 c 257
 462 30 439 35 439 62 c 258
 439 275 l 258
 439 353 391 414 326 414 c 256
 263 414 211.5 391.5 165 347 c 257
 163.586 348.414 163 353 163 359 c 256
 163 378 168 414 168 423 c 256
 168 427 166 430 163 430 c 256
 159 430 156 428 152 425 c 256
 124 404 98 386 52 374 c 256
 46 373 43 369 43 362 c 256
 43 354 47 351 53 349 c 256
 87 340 90.167 313 90 277 c 258
 90 62 l 258
 90 35 67 29 47 24 c 256
 32 20 24 18 24 8 c 256
 24 0 32 -3 44 -3 c 256
EndSplineSet
Guideline: "" "" 326 414 0 0 0
PickledDataWithLists: "(dp0
Vpublic.markColor
p1
V0.67,0.95,0.38,1
p2
s."
Substitution2: "'ss01' Style Set 1 lookup 29 subtable" N.pc
Substitution2: "'pcap' Lowercase to Petite Capitals lookup 24 subtable" n.pc
Substitution2: "'smcp' Lowercase to Small Capitals lookup 22 subtable" n.sc
Substitution2: "'ordn' Ordinals lookup 15 subtable" n.ordn
Substitution2: "'sups' Superscript lookup 9 subtable" n.sups
Substitution2: "'sinf' Scientific Inferiors lookup 8 subtable" n.sinf
Substitution2: "'subs' Subscript lookup 7 subtable" n.subs
Comment: "+AAoA-n+AAoA"
EndChar
StartChar: o
Encoding: 1173 111 1172
GlifName: o
Width: 495
VWidth: 0
Flags: W
AnchorPoint: "bottom" 247 -30 basechar 0
AnchorPoint: "top" 254 440 basechar 0
LayerCount: 2
Fore
SplineSet
234 -14 m 256
 384 -14 460 96 460 213 c 256
 460 321 370 414 254 414 c 256
 131 414 35 298 35 187 c 256
 35 70 122 -14 234 -14 c 256
255 16 m 256
 175 16 117 111 117 210 c 256
 117 258 122 309 149 343 c 256
 173 374 201 383 237 383 c 256
 322 383 378 284 378 189 c 256
 378 150 374 102 358 71 c 256
 338 32 300 16 255 16 c 256
EndSplineSet
PickledDataWithLists: "(dp0
Vpublic.markColor
p1
V0.67,0.95,0.38,1
p2
s."
Substitution2: "'ss01' Style Set 1 lookup 29 subtable" O.pc
Substitution2: "'pcap' Lowercase to Petite Capitals lookup 24 subtable" o.pc
Substitution2: "'smcp' Lowercase to Small Capitals lookup 22 subtable" o.sc
Substitution2: "'ordn' Ordinals lookup 15 subtable" o.ordn
Substitution2: "'sups' Superscript lookup 9 subtable" o.sups
Substitution2: "'sinf' Scientific Inferiors lookup 8 subtable" o.sinf
Substitution2: "'subs' Subscript lookup 7 subtable" o.subs
Comment: "+AAoA-o+AAoA"
EndChar
StartChar: p
Encoding: 1236 112 1235
GlifName: p
Width: 519
VWidth: 0
Flags: W
AnchorPoint: "top" 263 440 basechar 0
LayerCount: 2
Back
SplineSet
40 -285 m 256
 79 -285 85 -280 120 -280 c 256
 155 -280 175 -285 214 -285 c 256
 222 -285 236 -284 236 -276 c 256
 236 -266 224 -262 213 -258 c 257
 193 -252 155 -247 155 -220 c 258
 155 -33 l 258
 155 -27 156 18 159 18 c 257
 179 0 231 -14 259 -14 c 256
 385 -14 484 106 484 225 c 256
 484 319 423 414 320 414 c 256
 257 414 177 367 158 348 c 257
 157 349 157 353 157 357 c 256
 157 373 162 405 162 417 c 256
 162 421 159 426 156 426 c 256
 155 426 155 425 154 425 c 257
 122 412 89 397 38 385 c 256
 34 384 31 379 31 373 c 256
 31 367 34 361 39 360 c 256
 72 353 85 302 85 287 c 258
 85 -220 l 258
 85 -247 62 -252 42 -258 c 257
 31 -262 19 -266 19 -276 c 256
 19 -284 33 -285 40 -285 c 256
274 17 m 256
 230 17 196 28 181 42 c 256
 162 60 158 97 157 115 c 256
 156 136 155 171 155 205 c 256
 155 229 156 252 156 269 c 257
 158 310 167 329 182 340 c 256
 207 359 234 369 268 369 c 256
 311 369 404 347 404 193 c 256
 404 59 313 17 274 17 c 256
EndSplineSet
Fore
SplineSet
40 -285 m 256
 79 -285 85 -280 120 -280 c 256
 155 -280 175 -285 214 -285 c 256
 222 -285 236 -284 236 -276 c 256
 236 -266 224 -262 213 -258 c 257
 193 -252 155 -247 155 -220 c 258
 155 -33 l 258
 155 -27 156 18 159 18 c 257
 179 0 231 -14 259 -14 c 256
 385 -14 484 106 484 225 c 256
 484 319 423 414 320 414 c 256
 257 414 177 367 158 348 c 257
 157 349 157 353 157 357 c 256
 157 373 162 405 162 417 c 256
 162 421 159 426 156 426 c 256
 155 426 155 425 154 425 c 257
 122 412 89 397 38 385 c 256
 34 384 31 379 31 373 c 256
 31 367 34 361 39 360 c 256
 72 353 85 302 85 287 c 258
 85 -220 l 258
 85 -247 62 -252 42 -258 c 257
 31 -262 19 -266 19 -276 c 256
 19 -284 33 -285 40 -285 c 256
274 17 m 256
 220 17 155 85 155 166 c 256
 155 190 158 259 158 317 c 256
 158 331 220 369 268 369 c 256
 311 369 404 347 404 193 c 256
 404 59 313 17 274 17 c 256
EndSplineSet
PickledDataWithLists: "(dp0
Vpublic.markColor
p1
V0.67,0.95,0.38,1
p2
s."
Substitution2: "'ss01' Style Set 1 lookup 29 subtable" P.pc
Substitution2: "'pcap' Lowercase to Petite Capitals lookup 24 subtable" p.pc
Substitution2: "'smcp' Lowercase to Small Capitals lookup 22 subtable" p.sc
Substitution2: "'ordn' Ordinals lookup 15 subtable" p.ordn
Substitution2: "'sups' Superscript lookup 9 subtable" p.sups
Substitution2: "'sinf' Scientific Inferiors lookup 8 subtable" p.sinf
Substitution2: "'subs' Subscript lookup 7 subtable" p.subs
Comment: "+AAoA-p+AAoA"
EndChar
StartChar: q
Encoding: 1301 113 1300
GlifName: q
Width: 522
VWidth: 0
Flags: W
LayerCount: 2
Fore
SplineSet
331 -285 m 256
 371 -285 377 -280 412 -280 c 256
 448 -280 462 -285 502 -285 c 256
 510 -285 522 -284 522 -276 c 256
 522 -266 510 -262 499 -258 c 257
 479 -252 447 -247 447 -220 c 258
 447 295 l 258
 447 352 459 398 459 411 c 256
 459 416 449 421 443 421 c 256
 440 421 437 418 436 417 c 257
 429 402 424 392 410 392 c 256
 405 392 350 414 282 414 c 256
 135 414 35 319 35 178 c 256
 35 54 131 -14 235 -14 c 256
 288 -14 345 26 362 41 c 256
 365 44 368 43 371 43 c 256
 375 43 377 36 377 13 c 258
 377 -220 l 258
 377 -247 354 -252 334 -258 c 257
 323 -262 311 -266 311 -276 c 256
 311 -284 324 -285 331 -285 c 256
272 39 m 256
 212 39 117 72 117 205 c 256
 117 320 185 382 257 382 c 256
 323 382 375 335 377 275 c 256
 378 250 378 116 378 80 c 257
 361 61 316 39 272 39 c 256
EndSplineSet
PickledDataWithLists: "(dp0
Vpublic.markColor
p1
V0.67,0.95,0.38,1
p2
s."
Substitution2: "'ss01' Style Set 1 lookup 29 subtable" Q.pc
Substitution2: "'pcap' Lowercase to Petite Capitals lookup 24 subtable" q.pc
Substitution2: "'smcp' Lowercase to Small Capitals lookup 22 subtable" q.sc
Substitution2: "'ordn' Ordinals lookup 15 subtable" q.ordn
Substitution2: "'sups' Superscript lookup 9 subtable" q.sups
Substitution2: "'sinf' Scientific Inferiors lookup 8 subtable" q.sinf
Substitution2: "'subs' Subscript lookup 7 subtable" q.subs
Comment: "+AAoA-q+AAoA"
EndChar
StartChar: r
Encoding: 1338 114 1337
GlifName: r
Width: 334
VWidth: 0
Flags: W
AnchorPoint: "bottom" 133 -30 basechar 0
AnchorPoint: "top" 191 440 basechar 0
LayerCount: 2
Back
SplineSet
49 -3 m 256
 89 -3 95 2 130 2 c 256
 165 2 177 -3 217 -3 c 256
 224 -3 237 -2 237 6 c 256
 237 16 225 20 214 24 c 257
 194 30 161 40 160 67 c 257
 160 264 l 258
 160 331 198 348 230 348 c 256
 250 348 273 330 290 330 c 256
 310 330 329 362 329 382 c 256
 329 400 309 414 281 414 c 256
 242 414 198 385 166 346 c 257
 165 346 164 347 164 348 c 257
 166 380 167 416 167 423 c 257
 167 427 164 430 161 430 c 256
 156 430 95 389 48 374 c 256
 44 373 39 368 39 362 c 256
 39 356 44 350 49 349 c 256
 82 342 90 313 90 277 c 258
 90 62 l 257
 89 35 72 30 52 24 c 257
 41 20 29 16 29 6 c 256
 29 -2 42 -3 49 -3 c 256
EndSplineSet
Fore
SplineSet
49 -3 m 256
 89 -3 95 2 130 2 c 256
 165 2 177 -3 217 -3 c 256
 231 -3 237 0 237 8 c 256
 237 17 228 20 214 24 c 256
 181 34 161 44 161 62 c 258
 161 264 l 258
 161 331 198 348 230 348 c 256
 240 348 251 343 262 339 c 256
 272 334 282 330 290 330 c 256
 310 330 329 362 329 382 c 256
 329 400 309 414 281 414 c 256
 242 414 198 385 166 346 c 257
 165 346 164 347 164 348 c 257
 166 380 167 416 167 423 c 257
 167 427 165 430 162 430 c 256
 159 430 155 428 147 423 c 256
 126 410 83 385 48 374 c 256
 44 373 39 368 39 362 c 256
 39 356 44 350 49 349 c 256
 82 342 90 313 90 277 c 258
 90 62 l 258
 90 43 77 30 52 24 c 256
 37 20 29 18 29 8 c 256
 29 0 35 -3 49 -3 c 256
EndSplineSet
PickledDataWithLists: "(dp0
Vpublic.markColor
p1
V0.67,0.95,0.38,1
p2
s."
Substitution2: "'ss01' Style Set 1 lookup 29 subtable" R.pc
Substitution2: "'pcap' Lowercase to Petite Capitals lookup 24 subtable" r.pc
Substitution2: "'smcp' Lowercase to Small Capitals lookup 22 subtable" r.sc
Substitution2: "'ordn' Ordinals lookup 15 subtable" r.ordn
Substitution2: "'sups' Superscript lookup 9 subtable" r.sups
Substitution2: "'sinf' Scientific Inferiors lookup 8 subtable" r.sinf
Substitution2: "'subs' Subscript lookup 7 subtable" r.subs
Comment: "+AAoA-r+AAoA"
EndChar
StartChar: s
Encoding: 1360 115 1359
GlifName: s
Width: 323
VWidth: 0
Flags: W
AnchorPoint: "bottom" 168 -30 basechar 0
AnchorPoint: "top" 176 440 basechar 0
LayerCount: 8
Back
SplineSet
176 388 m 256
 209 388 238 358 239 330 c 257
 239 321 263 309 273 309 c 256
 277 309 279 310 279 313 c 256
 279 341 274 376 262 391 c 257
 252 401 227 414 187 414 c 256
 89 414 53 353 53 296 c 256
 53 247 101 208 149 174 c 256
 193 143 225 119 225 83 c 256
 225 43 203 13 155 13 c 256
 114 13 69 51 62 85 c 256
 61 90 54 92 47 92 c 256
 39 92 30 89 30 83 c 257
 31 60 36 36 43 22 c 256
 49 9 95 -14 149 -14 c 256
 260 -14 293 37 293 106 c 256
 293 172 228 212 198 231 c 256
 166 251 113 282 113 322 c 256
 113 362 138 388 176 388 c 256
EndSplineSet
Fore
SplineSet
144 -14 m 256
 231 -14 291 36 291 108 c 256
 291 170 253 201 176 245 c 256
 122 276 107 296 107 327 c 256
 107 365 138 386 171 386 c 256
 209 386 234 362 252 318 c 256
 254 313 263 309 271 309 c 256
 276 309 281 311 281 316 c 256
 281 344 272 380 262 395 c 257
 249 404 222 414 182 414 c 256
 92 414 47 363 47 299 c 256
 47 249 74 217 142 175 c 256
 202 138 223 117 223 81 c 256
 223 42 192 13 153 13 c 256
 114 13 71 38 54 104 c 257
 53 109 47 111 42 111 c 256
 35 111 29 108 29 102 c 257
 30 79 33 36 40 22 c 257
 65 -1 103 -14 144 -14 c 256
EndSplineSet
PickledDataWithLists: "(dp0
Vpublic.markColor
p1
V0.67,0.95,0.38,1
p2
s."
Layer: 5
SplineSet
176 388 m 256
 209 388 238 358 239 330 c 257
 239 321 263 309 273 309 c 256
 277 309 279 310 279 313 c 256
 279 341 274 376 262 391 c 257
 252 401 227 414 187 414 c 256
 89 414 53 353 53 296 c 256
 53 247 101 208 149 174 c 256
 193 143 225 119 225 83 c 256
 225 43 203 13 155 13 c 256
 114 13 69 51 62 85 c 256
 61 90 54 92 47 92 c 256
 39 92 30 89 30 83 c 257
 31 60 36 36 43 22 c 256
 49 9 95 -14 149 -14 c 256
 260 -14 293 37 293 106 c 256
 293 172 228 212 198 231 c 256
 166 251 113 282 113 322 c 256
 113 362 138 388 176 388 c 256
EndSplineSet
PickledDataWithLists: "(dp0
Vpublic.markColor
p1
V0.67,0.95,0.38,1
p2
s."
Layer: 6
SplineSet
144 -14 m 256
 231 -14 291 36 291 115 c 256
 291 180 241 209 194 238 c 256
 153 263 115 283 115 318 c 256
 115 365 145 386 178 386 c 256
 216 386 240 362 258 318 c 257
 260 313 269 309 277 309 c 256
 282 309 287 311 287 316 c 256
 287 344 278 380 268 395 c 257
 255 404 229 414 189 414 c 256
 99 414 55 363 55 299 c 256
 55 235 102 204 146 174 c 256
 186 147 223 134 223 85 c 256
 223 42 192 13 153 13 c 256
 114 13 71 38 54 104 c 257
 53 109 47 111 42 111 c 256
 35 111 29 108 29 102 c 257
 30 79 33 36 40 22 c 257
 65 -1 103 -14 144 -14 c 256
EndSplineSet
PickledDataWithLists: "(dp0
Vpublic.markColor
p1
V0.67,0.95,0.38,1
p2
s."
Layer: 7
SplineSet
176 388 m 256
 209 388 238 358 239 330 c 257
 239 321 263 309 273 309 c 256
 277 309 279 310 279 313 c 256
 279 341 274 376 262 391 c 257
 252 401 227 414 187 414 c 256
 89 414 53 353 53 296 c 256
 53 247 101 208 149 174 c 256
 193 143 225 119 225 83 c 256
 225 43 203 13 155 13 c 256
 114 13 69 51 62 85 c 256
 61 90 54 92 47 92 c 256
 39 92 30 89 30 83 c 257
 31 60 36 36 43 22 c 256
 49 9 95 -14 149 -14 c 256
 260 -14 293 37 293 106 c 256
 293 172 228 212 198 231 c 256
 166 251 113 282 113 322 c 256
 113 362 138 388 176 388 c 256
EndSplineSet
Substitution2: "'ss07' Style Set 7 lookup 36 subtable" longs
Substitution2: "'ss01' Style Set 1 lookup 29 subtable" S.pc
Substitution2: "'pcap' Lowercase to Petite Capitals lookup 24 subtable" s.pc
Substitution2: "'smcp' Lowercase to Small Capitals lookup 22 subtable" s.sc
Substitution2: "'hist' Historical Forms lookup 20 subtable" longs
Substitution2: "'ordn' Ordinals lookup 15 subtable" s.ordn
Substitution2: "'sups' Superscript lookup 9 subtable" s.sups
Substitution2: "'sinf' Scientific Inferiors lookup 8 subtable" s.sinf
Substitution2: "'subs' Subscript lookup 7 subtable" s.subs
Comment: "+AAoA-s+AAoA"
EndChar
StartChar: t
Encoding: 1431 116 1430
GlifName: t
Width: 314
VWidth: 0
Flags: W
AnchorPoint: "bottom" 188 -30 basechar 0
AnchorPoint: "top" 136 440 basechar 0
LayerCount: 2
Back
SplineSet
189 -14 m 256
 250 -14 306 36 306 47 c 256
 306 54 304 61 299 61 c 256
 298 61 296 60 295 59 c 256
 278 47 260 41 221 41 c 256
 178 41 155 73 155 127 c 258
 155 324 l 258
 155 351 161 352 195 352 c 258
 294 352 l 258
 299 352 304 366 304 378 c 256
 304 390 299 400 294 400 c 258
 180 400 l 258
 163 400 153 404 156 419 c 258
 163 458 l 257
 164 467 156 469 150 469 c 256
 143 469 139 464 133 457 c 256
 115 435 80 390 40 379 c 257
 38 378 35 375 35 372 c 256
 35 362 40 352 47 352 c 258
 53 352 l 257
 79 352 85 348 85 337 c 258
 85 105 l 258
 85 26 124 -14 189 -14 c 256
EndSplineSet
Fore
SplineSet
189 -14 m 256
 250 -14 306 36 306 47 c 256
 306 54 304 61 299 61 c 256
 298 61 296 60 295 59 c 256
 278 47 260 41 221 41 c 256
 178 41 155 73 155 127 c 258
 155 324 l 258
 155 351 161 352 195 352 c 258
 294 352 l 258
 299 352 304 366 304 378 c 256
 304 390 299 400 294 400 c 258
 180 400 l 258
 163 400 154 404 156 419 c 258
 161 464 l 258
 162 473 154 475 148 475 c 256
 141 475 137 470 131 463 c 256
 113 441 81 410 42 383 c 256
 40 382 35 375 35 372 c 256
 35 362 40 352 47 352 c 258
 53 352 l 257
 79 352 85 348 85 337 c 258
 85 105 l 258
 85 26 124 -14 189 -14 c 256
EndSplineSet
PickledDataWithLists: "(dp0
Vpublic.markColor
p1
V0.67,0.95,0.38,1
p2
s."
Substitution2: "'ss01' Style Set 1 lookup 29 subtable" T.pc
Substitution2: "'pcap' Lowercase to Petite Capitals lookup 24 subtable" t.pc
Substitution2: "'smcp' Lowercase to Small Capitals lookup 22 subtable" t.sc
Substitution2: "'ordn' Ordinals lookup 15 subtable" t.ordn
Substitution2: "'sups' Superscript lookup 9 subtable" t.sups
Substitution2: "'sinf' Scientific Inferiors lookup 8 subtable" t.sinf
Substitution2: "'subs' Subscript lookup 7 subtable" t.subs
Comment: "+AAoA-t+AAoA"
EndChar
StartChar: u
Encoding: 1493 117 1492
GlifName: u
Width: 527
VWidth: 0
Flags: W
AnchorPoint: "bottom" 257 -30 basechar 0
AnchorPoint: "top" 252 440 basechar 0
LayerCount: 2
Back
SplineSet
362 -19 m 256
 368 -19 382 -15 386 -13 c 257
 415 -1 451 14 503 21 c 257
 508 21 517 24 517 35 c 256
 517 47 507 49 502 48 c 256
 492 46 466 45 456 45 c 256
 440 45 438 73 438 114 c 258
 438 326 l 258
 438 342 442 390 446 397 c 257
 451 405 443 415 434 415 c 258
 432 415 l 257
 396 405 404 402 303 397 c 257
 299 397 280 394 280 382 c 256
 280 368 298 365 303 365 c 257
 323 364 368 356 368 315 c 258
 368 132 l 258
 368 91 338 68 323 57 c 256
 298 38 273 37 239 37 c 256
 196 37 155 80 155 128 c 258
 155 323 l 258
 155 353 157 369 161 400 c 256
 162 410 157 415 147 414 c 257
 108 405 98 399 44 397 c 257
 39 396 29 393 29 380 c 256
 29 370 39 366 42 365 c 257
 72 353 85 337 85 308 c 258
 85 105 l 258
 85 27 134 -14 199 -14 c 256
 261 -14 312 6 364 57 c 257
 364 55 364 53 364 51 c 256
 364 34 359 -2 359 -15 c 256
 359 -18 358 -19 362 -19 c 256
EndSplineSet
Fore
SplineSet
366 -19 m 256
 372 -19 382 -15 386 -13 c 257
 415 -1 451 14 503 21 c 256
 511 22 517 24 517 35 c 256
 517 47 509 48 502 48 c 256
 492 48 466 45 456 45 c 256
 446 45 438 59 438 95 c 258
 438 326 l 258
 438 342 443 388 445 395 c 256
 446 399 447 402 447 404 c 256
 447 411 441 415 434 415 c 256
 431 415 427 414 424 413 c 257
 388 403 362 398 301 397 c 256
 290 397 280 394 280 382 c 256
 280 368 289 365 301 365 c 256
 321 365 368 356 368 315 c 258
 368 132 l 258
 368 91 338 68 323 57 c 256
 298 38 273 37 239 37 c 256
 196 37 155 80 155 128 c 258
 155 323 l 258
 155 353 157 369 161 400 c 256
 162 411 157 414 151 414 c 256
 148 414 147 414 143 413 c 256
 106 404 89 400 44 397 c 256
 36 396 29 393 29 381 c 256
 29 370 35 367 42 365 c 257
 72 353 85 337 85 308 c 258
 85 105 l 258
 85 27 134 -14 199 -14 c 256
 261 -14 312 6 364 57 c 257
 364 55 364 53 364 51 c 256
 364 34 359 2 359 -11 c 256
 359 -16 361 -19 366 -19 c 256
EndSplineSet
PickledDataWithLists: "(dp0
Vpublic.markColor
p1
V0.67,0.95,0.38,1
p2
s."
Substitution2: "'ss01' Style Set 1 lookup 29 subtable" U.pc
Substitution2: "'pcap' Lowercase to Petite Capitals lookup 24 subtable" u.pc
Substitution2: "'smcp' Lowercase to Small Capitals lookup 22 subtable" u.sc
Substitution2: "'ordn' Ordinals lookup 15 subtable" u.ordn
Substitution2: "'sups' Superscript lookup 9 subtable" u.sups
Substitution2: "'sinf' Scientific Inferiors lookup 8 subtable" u.sinf
Substitution2: "'subs' Subscript lookup 7 subtable" u.subs
Substitution2: "'locl' Localized Forms in Latin lookup 5 subtable" u.LAT
Comment: "+AAoA-u+AAoA"
EndChar
StartChar: v
Encoding: 118 118 22
GlifName: v
Width: 438
VWidth: 0
Flags: HMW
AnchorPoint: "below_accent" 218 -100 basechar 0
AnchorPoint: "top_accent" 218 550 basechar 0
LayerCount: 3
Back
Fore
SplineSet
294 378 m 0
 283 382 271 386 271 396 c 0
 271 404 284 405 291 405 c 0
 306 405 329 400 364 400 c 0
 399 400 404 405 423 405 c 0
 430 405 443 404 443 396 c 0
 443 386 431 382 420 378 c 0
 400 372 372 344 358 311 c 18
 280 123 l 2
 275 112 243 23 243 23 c 1
 243 23 221 -22 216 -22 c 0
 211 -22 199 8 196 17 c 2
 74 329 l 10
 64 353 48 372 28 378 c 0
 17 382 5 386 5 396 c 0
 5 404 18 405 25 405 c 0
 64 405 63 400 98 400 c 0
 133 400 134 405 173 405 c 0
 180 405 193 404 193 396 c 0
 193 386 181 382 170 378 c 0
 156 374 150 356 150 337 c 0
 150 328 151 318 154 310 c 2
 228 111 l 2
 233 97 235 96 240 110 c 2
 312 295 l 2
 317 308 319 320 319 331 c 0
 319 356 308 374 294 378 c 0
EndSplineSet
Validated: 1
Substitution2: "Smallcaps1 subtable" v.sc
Substitution2: "Single Substitution lookup 40 subtable" v.LATmedi
Substitution2: "sups subtable" v.sups
Substitution2: "sinf subtable" v.sinf
Substitution2: "ordn subtable" v.ordn
Substitution2: "subs subtable" v.subs
Position2: "rtbd subtable" dx=0 dy=0 dh=-22 dv=0
Position2: "lfbd subtable" dx=-22 dy=0 dh=-22 dv=0
EndChar
StartChar: w
Encoding: 3150 119 3149
GlifName: w
Width: 685
VWidth: 0
Flags: W
AnchorPoint: "bottom" 351 -30 basechar 0
AnchorPoint: "top" 343 440 basechar 0
LayerCount: 2
Back
SplineSet
226 -23 m 256
 229 -23 232 -20 234 -16 c 257
 343 241 l 258
 349 255 352 252 356 242 c 258
 460 -16 l 257
 462 -20 465 -23 468 -23 c 256
 472 -23 475 -20 477 -16 c 257
 614 312 l 258
 627 342 647 372 667 378 c 257
 678 382 690 386 690 396 c 256
 690 404 678 405 670 405 c 256
 648 405 649 400 612 400 c 256
 576 400 566 405 537 405 c 256
 530 405 517 404 517 396 c 256
 517 386 529 382 540 378 c 256
 555 373 575 355 575 326 c 256
 575 317 573 306 568 295 c 258
 492 118 l 258
 486 104 482 105 476 119 c 258
 401 312 l 258
 396 324 394 334 394 342 c 256
 394 366 413 373 428 378 c 256
 439 382 451 386 451 396 c 256
 451 404 438 405 431 405 c 256
 409 405 384 400 347 400 c 256
 310 400 290 405 272 405 c 256
 264 405 252 404 252 396 c 256
 252 386 264 381 275 378 c 256
 296 372 325 345 326 316 c 256
 326 307 323 289 319 278 c 257
 250 111 l 258
 249 108 247 107 245 107 c 256
 243 107 241 108 240 111 c 258
 162 312 l 258
 159 320 157 329 157 338 c 256
 157 357 164 374 178 378 c 257
 189 382 201 386 201 396 c 256
 201 404 186 405 181 405 c 256
 153 405 126 400 98 400 c 256
 72 400 50 405 25 405 c 256
 18 405 5 404 5 396 c 256
 5 386 17 382 28 378 c 257
 48 372 70 355 80 329 c 258
 219 -16 l 257
 220 -20 223 -23 226 -23 c 256
EndSplineSet
Fore
SplineSet
226 -23 m 256
 229 -23 232 -20 234 -16 c 257
 343 241 l 258
 346 248 348 251 350 251 c 256
 352 250 354 247 356 242 c 258
 460 -16 l 257
 462 -20 465 -23 468 -23 c 256
 472 -23 475 -20 477 -16 c 257
 614 312 l 258
 627 342 647 372 667 378 c 257
 678 382 690 386 690 396 c 256
 690 404 678 405 670 405 c 256
 648 405 649 400 612 400 c 256
 576 400 566 405 537 405 c 256
 530 405 517 404 517 396 c 256
 517 386 529 382 540 378 c 256
 555 373 575 358 575 334 c 256
 575 325 573 306 568 295 c 258
 492 118 l 258
 489 111 487 108 484 108 c 256
 482 108 479 112 476 119 c 258
 401 312 l 258
 396 324 394 334 394 342 c 256
 394 366 413 373 428 378 c 256
 439 382 451 386 451 396 c 256
 451 404 438 405 431 405 c 256
 409 405 384 400 347 400 c 256
 310 400 290 405 272 405 c 256
 264 405 252 404 252 396 c 256
 252 386 264 382 275 378 c 256
 298 369 326 350 326 321 c 256
 326 306 325 290 318 273 c 258
 250 111 l 258
 249 108 247 107 245 107 c 256
 243 107 241 108 240 111 c 258
 162 312 l 258
 159 320 157 329 157 338 c 256
 157 357 164 374 178 378 c 257
 189 382 201 386 201 396 c 256
 201 404 186 405 181 405 c 256
 153 405 126 400 98 400 c 256
 72 400 50 405 25 405 c 256
 18 405 5 404 5 396 c 256
 5 386 17 382 28 378 c 257
 48 372 70 355 80 329 c 258
 219 -16 l 257
 220 -20 223 -23 226 -23 c 256
EndSplineSet
PickledDataWithLists: "(dp0
Vpublic.markColor
p1
V0.67,0.95,0.38,1
p2
s."
Substitution2: "'ss01' Style Set 1 lookup 29 subtable" W.pc
Substitution2: "'pcap' Lowercase to Petite Capitals lookup 24 subtable" w.pc
Substitution2: "'smcp' Lowercase to Small Capitals lookup 22 subtable" w.sc
Substitution2: "'ordn' Ordinals lookup 15 subtable" w.ordn
Substitution2: "'sups' Superscript lookup 9 subtable" w.sups
Substitution2: "'sinf' Scientific Inferiors lookup 8 subtable" w.sinf
Substitution2: "'subs' Subscript lookup 7 subtable" w.subs
Comment: "+AAoA-w+AAoA"
EndChar
StartChar: x
Encoding: 3165 120 3164
GlifName: x
Width: 430
VWidth: 0
Flags: W
AnchorPoint: "top" 237 440 basechar 0
LayerCount: 13
Back
SplineSet
30 -4 m 256
 48 -4 60 1 97 1 c 256
 113 1 139 -1 150 -1 c 256
 155 -1 173 -2 173 8 c 256
 173 18 161 22 150 26 c 257
 140 29 136 39 136 48 c 256
 136 56 139 64 141 67 c 258
 207 166 l 258
 209 169 212 168 215 163 c 258
 272 70 l 258
 276 63 278 57 278 52 c 256
 278 24 225 32 225 8 c 256
 225 -2 243 -1 248 -1 c 256
 271 -1 297 0 321 0 c 256
 371 0 364 -4 405 -4 c 256
 413 -4 425 -3 425 5 c 256
 425 16 413 20 402 23 c 256
 382 29 369 39 353 65 c 258
 256 223 l 257
 253 227 253 233 255 236 c 258
 318 331 l 258
 337 358 369 372 389 378 c 257
 400 382 412 386 412 396 c 256
 412 404 400 405 392 405 c 256
 375 405 366 400 329 400 c 256
 313 400 289 403 279 403 c 256
 274 403 256 404 256 394 c 256
 256 384 268 380 279 376 c 257
 289 373 292 367 292 360 c 256
 292 353 289 345 284 338 c 257
 231 258 l 258
 229 255 228 255 223 263 c 258
 178 330 l 257
 170 343 165 355 165 362 c 256
 165 382 204 376 204 393 c 256
 204 403 186 402 181 402 c 256
 158 402 154 400 130 400 c 256
 81 400 90 404 51 404 c 256
 46 404 28 405 28 395 c 256
 28 384 40 380 51 377 c 256
 71 371 81 361 97 335 c 258
 179 210 l 258
 184 202 186 198 177 187 c 257
 100 80 l 258
 72 41 53 29 33 23 c 256
 22 20 10 16 10 5 c 256
 10 -3 22 -4 30 -4 c 256
EndSplineSet
Fore
SplineSet
30 -4 m 256
 48 -4 60 1 97 1 c 256
 113 1 139 -1 150 -1 c 256
 155 -1 173 -2 173 8 c 256
 173 18 161 22 150 26 c 257
 140 29 136 39 136 48 c 256
 136 56 139 64 141 67 c 258
 207 166 l 258
 208 167 212 167 213 166 c 258
 272 70 l 258
 276 63 278 57 278 52 c 256
 278 38 264 32 250 28 c 256
 234 24 225 20 225 8 c 256
 225 3 231 -2 248 -2 c 256
 271 -2 297 0 321 0 c 256
 371 0 364 -4 405 -4 c 256
 413 -4 425 -3 425 5 c 256
 425 16 413 20 402 23 c 256
 382 29 369 39 353 65 c 258
 256 223 l 258
 252 228 253 233 255 236 c 258
 318 331 l 258
 337 358 369 372 389 378 c 257
 400 382 412 386 412 396 c 256
 412 404 400 405 392 405 c 256
 375 405 366 400 329 400 c 256
 313 400 289 403 279 403 c 256
 274 403 256 404 256 394 c 256
 256 384 268 380 279 376 c 257
 289 373 292 367 292 360 c 256
 292 353 289 345 284 338 c 257
 233 261 l 258
 230 257 227 256 224 261 c 258
 178 330 l 257
 170 343 165 355 165 362 c 256
 165 373 176 376 186 379 c 256
 195 382 204 385 204 393 c 256
 204 403 186 402 181 402 c 256
 158 402 154 400 130 400 c 256
 81 400 90 404 51 404 c 256
 46 404 28 405 28 395 c 256
 28 384 40 380 51 377 c 256
 71 371 81 361 97 335 c 258
 179 210 l 258
 184 202 186 198 177 187 c 257
 100 80 l 258
 72 41 53 29 33 23 c 256
 22 20 10 16 10 5 c 256
 10 -3 22 -4 30 -4 c 256
EndSplineSet
PickledDataWithLists: "(dp0
Vpublic.markColor
p1
V0.67,0.95,0.38,1
p2
s."
Layer: 12
SplineSet
220 8 m 256
 220 -2 238 -1 243 -1 c 256
 266 -1 292 0 316 0 c 256
 366 0 359 -4 400 -4 c 256
 408 -4 420 -3 420 5 c 256
 420 16 408 20 397 23 c 256
 377 29 367 39 351 65 c 258
 254 226 l 257
 251 230 251 236 253 239 c 258
 318 331 l 258
 337 358 369 372 389 378 c 257
 400 382 412 386 412 396 c 256
 412 404 400 405 392 405 c 256
 375 405 366 400 329 400 c 256
 313 400 289 403 279 403 c 256
 274 403 256 404 256 394 c 256
 256 384 268 380 279 376 c 257
 289 373 292 367 292 360 c 256
 292 353 289 345 284 338 c 257
 235 263 l 258
 233 260 232 260 227 268 c 258
 187 330 l 258
 179 343 174 355 174 362 c 256
 174 382 213 376 213 393 c 256
 213 403 195 402 190 402 c 256
 167 402 163 400 139 400 c 256
 90 400 99 404 60 404 c 256
 55 404 37 405 37 395 c 256
 37 384 49 380 60 377 c 256
 80 371 90 361 106 335 c 258
 187 209 l 258
 192 201 194 197 185 186 c 258
 100 80 l 258
 69.988 42.539 53 29 33 23 c 256
 22 20 10 16 10 5 c 256
 10 -3 22 -4 30 -4 c 256
 48 -4 60 1 97 1 c 256
 113 1 139 -1 150 -1 c 256
 155 -1 173 -2 173 8 c 256
 173 18 161 22 150 26 c 257
 140 29 136 39 136 48 c 256
 136 56 139 64 141 67 c 258
 208 165 l 258
 210 168 213 167 216 162 c 258
 270 70 l 258
 274 63 276 57 276 52 c 256
 276 24 220 32 220 8 c 256
EndSplineSet
PickledDataWithLists: "(dp0
Vpublic.markColor
p1
V0.67,0.95,0.38,1
p2
s."
Substitution2: "'ss01' Style Set 1 lookup 29 subtable" X.pc
Substitution2: "'pcap' Lowercase to Petite Capitals lookup 24 subtable" x.pc
Substitution2: "'smcp' Lowercase to Small Capitals lookup 22 subtable" x.sc
Substitution2: "'ordn' Ordinals lookup 15 subtable" x.ordn
Substitution2: "'sups' Superscript lookup 9 subtable" x.sups
Substitution2: "'sinf' Scientific Inferiors lookup 8 subtable" x.sinf
Substitution2: "'subs' Subscript lookup 7 subtable" x.subs
Comment: "+AAoA-x+AAoA"
EndChar
StartChar: y
Encoding: 3174 121 3173
GlifName: y
Width: 438
VWidth: 0
Flags: W
AnchorPoint: "top" 242 440 basechar 0
LayerCount: 2
Back
SplineSet
64 -285 m 256
 93 -285 117 -271 129 -244 c 256
 170 -148 221 -22 225 -13 c 258
 361 311 l 258
 374 343 400 372 420 378 c 257
 431 382 443 386 443 396 c 256
 443 404 430 405 423 405 c 256
 401 405 401 400 364 400 c 256
 327 400 311 405 293 405 c 256
 286 405 273 402 273 394 c 256
 273 384 291 375 302 370 c 256
 314 365 322 357 322 332 c 256
 322 322 318 304 314 295 c 257
 245 112 l 258
 244 109 242 106 240 106 c 256
 237 106 235 109 234 112 c 258
 153 312 l 258
 150 319 145 332 145 340 c 256
 145 359 151 368 165 372 c 256
 176 375 194 384 194 394 c 256
 194 402 182 405 174 405 c 256
 134 405 133 400 98 400 c 256
 63 400 65 405 25 405 c 256
 18 405 5 404 5 396 c 256
 5 386 17 382 28 378 c 257
 48 372 63 353 73 329 c 258
 189 36 l 258
 192 28 193 18 193 7 c 256
 193 -2 192 -10 190 -16 c 257
 161 -93 120 -178 99 -214 c 256
 94 -222 88 -225 80 -225 c 256
 69 -225 55 -219 40 -219 c 256
 20 -219 13 -233 13 -249 c 256
 13 -271 40 -285 64 -285 c 256
EndSplineSet
Fore
SplineSet
64 -285 m 256
 93 -285 117 -271 129 -244 c 256
 170 -148 221 -22 225 -13 c 258
 361 311 l 258
 374 343 400 372 420 378 c 257
 431 382 443 386 443 396 c 256
 443 404 430 405 423 405 c 256
 401 405 401 400 364 400 c 256
 327 400 311 405 293 405 c 256
 286 405 273 402 273 394 c 256
 273 384 291 375 302 370 c 256
 314 365 322 357 322 332 c 256
 322 322 318 304 314 295 c 257
 245 112 l 258
 244 109 242 106 240 106 c 256
 237 106 235 109 234 112 c 258
 153 312 l 258
 150 319 145 332 145 340 c 256
 145 359 151 368 165 372 c 256
 176 375 194 384 194 394 c 256
 194 402 182 405 174 405 c 256
 134 405 133 400 98 400 c 256
 63 400 65 405 25 405 c 256
 18 405 5 404 5 396 c 256
 5 386 17 382 28 378 c 257
 48 372 63 353 73 329 c 258
 189 36 l 258
 192 28 193 18 193 7 c 256
 193 -2 192 -10 190 -16 c 257
 161 -93 127 -159 105 -194 c 256
 100 -202 94 -205 86 -205 c 256
 75 -205 61 -199 46 -199 c 256
 25 -199 13 -220 13 -244 c 256
 13 -274 38 -285 64 -285 c 256
EndSplineSet
PickledDataWithLists: "(dp0
Vpublic.markColor
p1
V0.67,0.95,0.38,1
p2
s."
Substitution2: "'ss01' Style Set 1 lookup 29 subtable" Y.pc
Substitution2: "'pcap' Lowercase to Petite Capitals lookup 24 subtable" y.pc
Substitution2: "'smcp' Lowercase to Small Capitals lookup 22 subtable" y.sc
Substitution2: "'ordn' Ordinals lookup 15 subtable" y.ordn
Substitution2: "'sups' Superscript lookup 9 subtable" y.sups
Substitution2: "'sinf' Scientific Inferiors lookup 8 subtable" y.sinf
Substitution2: "'subs' Subscript lookup 7 subtable" y.subs
Comment: "+AAoA-y+AAoA"
EndChar
StartChar: z
Encoding: 3191 122 3190
GlifName: z
Width: 377
VWidth: 0
Flags: W
AnchorPoint: "bottom" 179 -30 basechar 0
AnchorPoint: "top" 201 440 basechar 0
LayerCount: 2
Back
SplineSet
39 -5 m 256
 56 -5 91 0 119 0 c 256
 228 0 301 -5 330 -5 c 256
 336 -5 343 4 344 9 c 257
 349 25 372 105 372 113 c 256
 372 117 373 136 364 136 c 256
 352 136 345 117 342 112 c 257
 312 69 286 35 256 35 c 258
 139 35 l 258
 133 35 122 42 127 50 c 258
 320 343 l 258
 334 363 344 376 358 393 c 257
 361 397 356 405 351 405 c 256
 290 403 234 402 165 402 c 256
 156 402 142 401 127 401 c 256
 109 401 90 402 84 407 c 256
 78 412 72 416 69 416 c 256
 65 416 54 408 54 398 c 256
 54 373 45 327 37 308 c 257
 33 300 34 286 43 286 c 256
 53 286 65 305 70 311 c 257
 90 337 104 364 122 364 c 258
 239 364 l 258
 254 364 251 358 248 354 c 257
 175 238 129 166 62 70 c 256
 48 51 25 17 25 12 c 256
 25 7 34 -5 39 -5 c 256
EndSplineSet
Fore
SplineSet
39 -5 m 256
 56 -5 91 0 119 0 c 256
 228 0 299 -5 328 -5 c 256
 336 -5 342 0 344 9 c 256
 349 25 374 114 374 122 c 256
 374 133 358 138 352 129 c 256
 332 100 313 72 297 56 c 256
 282 41 267 33 252 33 c 258
 134 33 l 258
 125 33 119 38 125 48 c 258
 320 343 l 258
 333 363 344 376 358 393 c 257
 361 397 356 405 351 405 c 256
 290 403 234 402 165 402 c 256
 156 402 142 401 127 401 c 256
 109 401 90 402 84 407 c 256
 78 412 72 416 69 416 c 256
 65 416 54 408 54 398 c 256
 54 373 41 322 35 304 c 256
 31 293 49 286 57 294 c 256
 71 312 86 337 101 352 c 256
 109 360 126 372 145 371 c 258
 244 368 l 258
 259 368 256 362 253 358 c 257
 180 242 129 166 62 70 c 256
 48 51 25 17 25 12 c 256
 25 7 34 -5 39 -5 c 256
EndSplineSet
PickledDataWithLists: "(dp0
Vpublic.markColor
p1
V0.67,0.95,0.38,1
p2
s."
Substitution2: "'ss01' Style Set 1 lookup 29 subtable" Z.pc
Substitution2: "'pcap' Lowercase to Petite Capitals lookup 24 subtable" z.pc
Substitution2: "'smcp' Lowercase to Small Capitals lookup 22 subtable" z.sc
Substitution2: "'ordn' Ordinals lookup 15 subtable" z.ordn
Substitution2: "'sups' Superscript lookup 9 subtable" z.sups
Substitution2: "'sinf' Scientific Inferiors lookup 8 subtable" z.sinf
Substitution2: "'subs' Subscript lookup 7 subtable" z.subs
Comment: "+AAoA-z+AAoA"
EndChar
StartChar: braceleft
Encoding: 613 123 612
GlifName: braceleft
Width: 376
VWidth: 0
Flags: W
LayerCount: 2
Back
SplineSet
335 -152 m 256
 344 -153 353 -146 353 -137 c 256
 353 -126 338 -126 327 -125 c 256
 263 -119 218 -99 218 -26 c 256
 218 42 231 89 231 147 c 256
 231 213 158 270 125 279 c 257
 122 280 119 281 123 283 c 257
 165 300 231 348 231 414 c 256
 231 472 218 519 218 587 c 256
 218 660 266 678 330 686 c 256
 341 687 356 689 356 700 c 256
 356 709 347 715 338 715 c 256
 244 711 153 676 153 582 c 256
 153 512 166 466 166 404 c 256
 166 346 124 315 71 301 c 256
 56 297 50 288 50 282 c 256
 50 274 60 267 69 265 c 256
 112 255 166 215 166 157 c 256
 166 95 153 49 153 -21 c 256
 153 -115 241 -146 335 -152 c 256
EndSplineSet
Fore
SplineSet
335 -152 m 256
 344 -153 353 -146 353 -137 c 256
 353 -126 338 -126 327 -125 c 256
 263 -119 228 -99 228 -26 c 256
 228 42 241 89 241 147 c 256
 241 213 158 270 125 279 c 257
 122 280 119 281 123 283 c 257
 165 300 241 348 241 414 c 256
 241 472 228 519 228 587 c 256
 228 660 266 678 330 686 c 256
 341 687 356 689 356 700 c 256
 356 709 347 715 338 715 c 256
 244 711 143 676 143 582 c 256
 143 512 156 466 156 404 c 256
 156 346 124 315 71 301 c 256
 56 297 50 288 50 282 c 256
 50 274 60 267 69 265 c 256
 112 255 156 215 156 157 c 256
 156 95 143 49 143 -21 c 256
 143 -115 241 -146 335 -152 c 256
EndSplineSet
PickledDataWithLists: "(dp0
Vpublic.markColor
p1
V0.67,0.95,0.38,1
p2
s."
Substitution2: "'smcp' Lowercase to Small Capitals lookup 22 subtable" braceleft.sc
Substitution2: "'c2sc' Capitals to Small Capitals lookup 21 subtable" braceleft.sc
Substitution2: "'ordn' Ordinals lookup 15 subtable" braceleft.ordn
Substitution2: "'sups' Superscript lookup 9 subtable" braceleft.sups
Substitution2: "'sinf' Scientific Inferiors lookup 8 subtable" braceleft.sinf
Substitution2: "'subs' Subscript lookup 7 subtable" braceleft.subs
Comment: "+AAoA-braceleft+AAoA"
EndChar
StartChar: asciitilde
Encoding: 567 126 566
GlifName: asciitilde
Width: 500
VWidth: 0
Flags: W
LayerCount: 2
Back
SplineSet
65 261 m 256
 70 261 113 308 158 308 c 256
 186 308 217 295 247 283 c 256
 275 271 302 260 325 260 c 256
 374 260 450 348 450 362 c 256
 450 368 445 382 440 382 c 256
 435 382 382 333 337 333 c 256
 307 333 280 343 256 354 c 256
 226 367 200 381 175 381 c 256
 130 381 50 289 50 279 c 256
 50 272 57 261 65 261 c 256
EndSplineSet
Fore
SplineSet
337 260 m 256
 386 260 450 321 450 362 c 256
 450 375 435 382 430 382 c 256
 425 382 382 319 337 319 c 256
 310 319 285 334 259 350 c 256
 233 365 205 381 171 381 c 256
 101 381 50 306 50 279 c 256
 50 272 61 265 69 265 c 256
 74 265 110 320 160 320 c 256
 189 320 216 306 243 291 c 256
 272 276 302 260 337 260 c 256
EndSplineSet
PickledDataWithLists: "(dp0
Vpublic.markColor
p1
V0.67,0.95,0.38,1
p2
s."
Substitution2: "'smcp' Lowercase to Small Capitals lookup 22 subtable" asciitilde.sc
Substitution2: "'c2sc' Capitals to Small Capitals lookup 21 subtable" asciitilde.sc
Substitution2: "'ordn' Ordinals lookup 15 subtable" asciitilde.ordn
Substitution2: "'sups' Superscript lookup 9 subtable" asciitilde.sups
Substitution2: "'sinf' Scientific Inferiors lookup 8 subtable" asciitilde.sinf
Substitution2: "'subs' Subscript lookup 7 subtable" asciitilde.subs
Comment: "+AAoA-asciitilde+AAoA"
EndChar
StartChar: exclamdown
Encoding: 840 161 839
GlifName: exclamdown
Width: 250
VWidth: 0
Flags: W
LayerCount: 21
Back
SplineSet
162 -180 m 256
 195 -180 210 -144 210 -108 c 256
 210 -21 195 95 183 211 c 256
 181 233 171 263 161 263 c 256
 146 263 135 234 133 205 c 256
 123 87 110 -43 110 -106 c 256
 110 -145 126 -180 162 -180 c 256
161 374 m 256
 194 374 221 401 221 434 c 256
 221 467 194 494 161 494 c 256
 128 494 101 467 101 434 c 256
 101 401 128 374 161 374 c 256
EndSplineSet
Fore
Refer: 832 33 N 1 0 0 -1 0 480 2
PickledDataWithLists: "(dp0
Vcom.schriftgestaltung.Glyphs.glyph.leftMetricsKey
p1
V=|exclam
p2
sVcom.schriftgestaltung.Glyphs.glyph.rightMetricsKey
p3
V=|exclam
p4
sVpublic.markColor
p5
V0.67,0.95,0.38,1
p6
s."
Layer: 19
SplineSet
126 -180 m 256
 159 -180 174 -144 174 -108 c 256
 174 -21 159 95 147 211 c 256
 145 233 135 263 125 263 c 256
 110 263 99 234 97 205 c 256
 87 87 74 -43 74 -106 c 256
 74 -145 90 -180 126 -180 c 256
125 374 m 256
 158 374 185 401 185 434 c 256
 185 467 158 494 125 494 c 256
 92 494 65 467 65 434 c 256
 65 401 92 374 125 374 c 256
EndSplineSet
Refer: 43691 -1 N 1 0 0 -1 -36 480 2
PickledDataWithLists: "(dp0
Vcom.schriftgestaltung.Glyphs.glyph.leftMetricsKey
p1
V=|exclam
p2
sVcom.schriftgestaltung.Glyphs.glyph.rightMetricsKey
p3
V=|exclam
p4
sVpublic.markColor
p5
V0.67,0.95,0.38,1
p6
s."
Layer: 20
SplineSet
126 -180 m 256
 159 -180 174 -144 174 -108 c 256
 174 -21 159 95 147 211 c 256
 145 233 135 263 125 263 c 256
 110 263 99 234 97 205 c 256
 87 87 74 -43 74 -106 c 256
 74 -145 90 -180 126 -180 c 256
125 374 m 256
 158 374 185 401 185 434 c 256
 185 467 158 494 125 494 c 256
 92 494 65 467 65 434 c 256
 65 401 92 374 125 374 c 256
EndSplineSet
Substitution2: "'smcp' Lowercase to Small Capitals lookup 22 subtable" exclamdown.sc
Substitution2: "'c2sc' Capitals to Small Capitals lookup 21 subtable" exclamdown.sc
Comment: "+AAoA-exclamdown+AAoA"
EndChar
StartChar: cent
Encoding: 672 162 671
GlifName: cent
Width: 422
VWidth: 0
Flags: W
LayerCount: 2
Fore
SplineSet
202 -13 m 256
 211 -13 220 -7 221 2 c 258
 228 76 l 257
 300 78 349 105 386 167 c 257
 387 168 387 170 387 171 c 256
 387 177 381 183 374 183 c 256
 370 183 367 181 365 178 c 256
 340 140 292 135 250 135 c 256
 245 135 240 135 235 136 c 257
 269 469 l 257
 296 462 312 444 326 419 c 257
 329 413 338 409 347 409 c 256
 361 409 384 430 384 443 c 256
 384 447 383 451 380 455 c 257
 353 488 312 501 273 503 c 257
 277 562 l 258
 278 570 272 579 264 579 c 256
 253 579 243 573 242 562 c 258
 238 502 l 257
 119 491 35 391 35 278 c 256
 35 179 109 93 194 78 c 257
 186 2 l 258
 185 -7 193 -13 202 -13 c 256
200 143 m 257
 142 165 102 225 102 312 c 256
 102 387 153 474 233 474 c 258
 235 474 l 257
 200 143 l 257
EndSplineSet
PickledDataWithLists: "(dp0
Vcom.schriftgestaltung.Glyphs.glyph.leftMetricsKey
p1
Vc
p2
sVcom.schriftgestaltung.Glyphs.glyph.rightMetricsKey
p3
g2
sVpublic.markColor
p4
V0.67,0.95,0.38,1
p5
s."
Substitution2: "'smcp' Lowercase to Small Capitals lookup 22 subtable" cent.sc
Substitution2: "'c2sc' Capitals to Small Capitals lookup 21 subtable" cent.sc
Comment: "+AAoA-cent+AAoA"
EndChar
StartChar: sterling
Encoding: 1428 163 1427
GlifName: sterling
Width: 490
VWidth: 0
Flags: W
LayerCount: 2
Back
SplineSet
130 341 m 258
 130 336 l 257
 55 331 l 258
 42 330 31 314 31 305 c 256
 31 299 38 293 45 293 c 257
 129 299 l 257
 126 218 114 134 97 103 c 257
 94 97 92 92 86 91 c 256
 35 81 -10 37 -10 17 c 256
 -10 0 3 -14 20 -14 c 256
 34 -14 48 -9 56 6 c 256
 70 32 94 55 100 55 c 256
 110 55 142 42 164 26 c 256
 219 -12 257 -36 324 -36 c 256
 405 -36 477 28 477 105 c 256
 477 133 459 155 430 158 c 256
 421 159 421 147 421 138 c 257
 422 118 434 106 434 87 c 256
 434 57 407 32 377 32 c 256
 280 32 259 93 139 93 c 256
 132 93 132 100 135 102 c 257
 160 123 206 217 216 305 c 257
 333 313 l 257
 348 313 364 332 364 339 c 256
 364 344 358 351 351 351 c 257
 218 342 l 257
 219 504 261 600 326 600 c 256
 360 600 394 560 395 527 c 256
 395 519 394 511 394 505 c 256
 394 496 396 491 406 491 c 256
 419 491 448 520 448 547 c 256
 448 593 425 629 347 629 c 256
 200 629 130 476 130 341 c 258
EndSplineSet
Fore
SplineSet
45 297 m 258
 333 317 l 258
 348 318 364 332 364 339 c 256
 364 344 358 351 351 351 c 258
 55 331 l 258
 42 330 31 318 31 309 c 256
 31 303 38 297 45 297 c 258
EndSplineSet
Refer: 240 -1 N 1 0 0 1 0 0 2
PickledDataWithLists: "(dp0
Vpublic.markColor
p1
V0.67,0.95,0.38,1
p2
s."
Substitution2: "'smcp' Lowercase to Small Capitals lookup 22 subtable" sterling.sc
Substitution2: "'c2sc' Capitals to Small Capitals lookup 21 subtable" sterling.sc
Comment: "+AAoA-sterling+AAoA"
EndChar
StartChar: currency
Encoding: 706 164 705
GlifName: currency
Width: 506
VWidth: 0
Flags: W
LayerCount: 2
Back
SplineSet
80 67 m 256
 83 67 86 68 88 70 c 258
 135 116 l 257
 167 90 208 75 253 75 c 256
 298 75 339 90 371 116 c 257
 417 70 l 258
 419 68 422 67 425 67 c 256
 438 67 456 85 456 98 c 256
 456 101 455 103 453 105 c 258
 406 152 l 257
 431 185 445 226 445 270 c 256
 445 314 431 355 406 388 c 257
 451 433 l 258
 454 436 455 439 455 443 c 256
 455 457 437 473 425 473 c 256
 422 473 419 472 417 470 c 258
 371 424 l 257
 339 450 298 465 253 465 c 256
 208 465 167 449 134 424 c 257
 89 469 l 258
 87 471 84 472 81 472 c 256
 68 472 50 454 50 441 c 256
 50 438 51 436 53 434 c 258
 100 387 l 257
 75 355 61 314 61 270 c 256
 61 226 75 185 100 152 c 257
 53 105 l 258
 51 103 50 100 50 97 c 256
 50 84 67 67 80 67 c 256
253 125 m 256
 174 125 111 191 111 270 c 256
 111 349 174 415 253 415 c 256
 332 415 395 349 395 270 c 256
 395 191 332 125 253 125 c 256
EndSplineSet
Fore
SplineSet
70 57 m 256
 73 57 76 58 78 60 c 258
 135 116 l 257
 167 90 208 75 253 75 c 256
 298 75 339 90 371 116 c 257
 427 60 l 258
 429 58 432 57 435 57 c 256
 448 57 466 75 466 88 c 256
 466 91 465 93 463 95 c 258
 406 152 l 257
 431 185 445 226 445 270 c 256
 445 314 431 355 406 388 c 257
 461 443 l 258
 464 446 465 449 465 453 c 256
 465 467 447 483 435 483 c 256
 432 483 429 482 427 480 c 258
 371 424 l 257
 339 450 298 465 253 465 c 256
 208 465 167 449 134 424 c 257
 79 479 l 258
 77 481 74 482 71 482 c 256
 58 482 40 464 40 451 c 256
 40 448 41 446 43 444 c 258
 100 387 l 257
 75 355 61 314 61 270 c 256
 61 226 75 185 100 152 c 257
 43 95 l 258
 41 93 40 90 40 87 c 256
 40 74 57 57 70 57 c 256
253 125 m 256
 174 125 111 191 111 270 c 256
 111 349 174 415 253 415 c 256
 332 415 395 349 395 270 c 256
 395 191 332 125 253 125 c 256
EndSplineSet
PickledDataWithLists: "(dp0
Vpublic.markColor
p1
V0.67,0.95,0.38,1
p2
s."
Substitution2: "'smcp' Lowercase to Small Capitals lookup 22 subtable" currency.sc
Substitution2: "'c2sc' Capitals to Small Capitals lookup 21 subtable" currency.sc
Comment: "+AAoA-currency+AAoA"
EndChar
StartChar: yen
Encoding: 3187 165 3186
GlifName: yen
Width: 570
VWidth: 0
Flags: W
LayerCount: 2
Fore
SplineSet
182 -5 m 256
 236 -5 260 0 310 0 c 256
 356 0 373 -5 427 -5 c 256
 444 -5 456 -2 456 6 c 256
 456 15 446 20 423 24 c 256
 373 33 345 63 345 108 c 258
 345 197 l 257
 453 197 l 258
 468 197 484 211 484 221 c 256
 484 229 478 232 471 232 c 258
 345 232 l 257
 345 280 l 257
 454 280 l 258
 469 280 485 294 485 304 c 256
 485 310 479 315 472 315 c 258
 350 315 l 257
 353 323 360 334 368 346 c 257
 368 346 426 444 480 526 c 256
 501 557 545 615 580 622 c 256
 603 627 613 633 613 642 c 256
 613 650 601 653 584 653 c 256
 561 653 525 650 488 650 c 256
 459 650 443 651 413 651 c 256
 396 651 384 648 384 640 c 256
 384 631 403 624 417 620 c 256
 436 615 447 593 447 568 c 256
 447 557 445 545 440 534 c 256
 413 477 357 395 357 395 c 257
 342 370 334 356 326 356 c 256
 319 356 311 369 296 395 c 258
 203 560 l 257
 196 571 194 580 194 588 c 256
 194 608 211 617 222 621 c 257
 244 628 255 632 255 641 c 256
 255 649 243 652 226 652 c 256
 205 652 177 650 146 650 c 256
 100 650 59 653 29 653 c 256
 12 653 0 650 0 642 c 256
 0 633 11 627 33 620 c 256
 64 611 102 552 122 522 c 257
 255 315 l 257
 149 315 l 258
 136 315 125 301 125 292 c 256
 125 286 132 280 139 280 c 258
 263 280 l 257
 264 273 265 265 265 256 c 258
 265 232 l 257
 149 232 l 258
 136 232 125 218 125 209 c 256
 125 203 132 197 139 197 c 258
 265 197 l 257
 264 108 l 258
 264 60 236 33 186 24 c 256
 163 20 153 15 153 6 c 256
 153 -2 165 -5 182 -5 c 256
EndSplineSet
PickledDataWithLists: "(dp0
Vcom.schriftgestaltung.Glyphs.glyph.leftMetricsKey
p1
VY
p2
sVcom.schriftgestaltung.Glyphs.glyph.rightMetricsKey
p3
g2
sVpublic.markColor
p4
V0.67,0.95,0.38,1
p5
s."
Substitution2: "'smcp' Lowercase to Small Capitals lookup 22 subtable" yen.sc
Substitution2: "'c2sc' Capitals to Small Capitals lookup 21 subtable" yen.sc
Comment: "+AAoA-yen+AAoA"
EndChar
StartChar: brokenbar
Encoding: 638 166 637
GlifName: brokenbar
Width: 260
VWidth: 0
Flags: W
LayerCount: 2
Fore
SplineSet
112 -290 m 256
 121 -290 160 -287 160 -266 c 258
 160 157 l 258
 160 167 153 179 146 179 c 256
 140 179 100 166 100 156 c 258
 100 -276 l 258
 100 -283 106 -290 112 -290 c 256
112 276 m 256
 121 276 160 287 160 297 c 258
 160 692 l 258
 160 699 153 705 146 705 c 256
 140 705 100 696 100 674 c 258
 100 299 l 258
 100 289 106 276 112 276 c 256
EndSplineSet
PickledDataWithLists: "(dp0
Vpublic.markColor
p1
V0.67,0.95,0.38,1
p2
s."
Substitution2: "'smcp' Lowercase to Small Capitals lookup 22 subtable" brokenbar.sc
Substitution2: "'c2sc' Capitals to Small Capitals lookup 21 subtable" brokenbar.sc
Substitution2: "'ordn' Ordinals lookup 15 subtable" brokenbar.ordn
Substitution2: "'sups' Superscript lookup 9 subtable" brokenbar.sups
Substitution2: "'sinf' Scientific Inferiors lookup 8 subtable" brokenbar.sinf
Substitution2: "'subs' Subscript lookup 7 subtable" brokenbar.subs
Comment: "+AAoA-brokenbar+AAoA"
EndChar
StartChar: section
Encoding: 1377 167 1376
GlifName: section
Width: 400
VWidth: 0
Flags: W
LayerCount: 2
Back
SplineSet
123 -148 m 256
 141 -148 162 -146 177 -137 c 256
 217 -113 262 -70 296 -11 c 256
 330 49 346 86 346 159 c 256
 346 247 325 310 241 385 c 256
 182 438 137 496 137 533 c 256
 137 565 158 596 198 596 c 256
 216 596 240 580 260 562 c 257
 264 558 269 556 273 556 c 256
 294 556 311 599 311 603 c 256
 311 611 305 616 299 621 c 257
 288 631 254 640 229 640 c 256
 158 640 105 571 90 513 c 257
 52 467 24 418 24 329 c 256
 24 270 56 212 118 149 c 256
 170 95 232 38 232 -12 c 256
 232 -64 214 -94 180 -94 c 256
 157 -94 128 -85 111 -70 c 257
 106 -66 96 -59 89 -64 c 256
 66 -81 61 -107 61 -116 c 256
 61 -134 88 -148 123 -148 c 256
286 51 m 257
 270 97 205 161 163 204 c 256
 103 266 73 316 73 385 c 256
 73 412 77 431 84 458 c 256
 85 462 92 463 94 458 c 257
 110 412 175 348 217 305 c 256
 277 243 307 193 307 124 c 256
 307 97 303 78 296 51 c 256
 295 47 288 46 286 51 c 257
EndSplineSet
Fore
SplineSet
123 -148 m 256
 141 -148 162 -146 177 -137 c 256
 270 -81 346 42 346 159 c 256
 346 247 325 310 241 385 c 256
 182 438 137 496 137 533 c 256
 137 565 158 596 198 596 c 256
 216 596 240 580 260 562 c 257
 264 558 269 556 273 556 c 256
 294 556 311 599 311 603 c 256
 311 611 305 616 299 621 c 257
 288 631 254 640 229 640 c 256
 158 640 105 571 90 513 c 257
 52 467 24 418 24 329 c 256
 24 270 56 212 118 149 c 256
 170 95 232 38 232 -12 c 256
 232 -64 214 -94 180 -94 c 256
 157 -94 128 -85 111 -70 c 257
 106 -66 96 -59 89 -64 c 256
 66 -81 61 -107 61 -116 c 256
 61 -134 88 -148 123 -148 c 256
286 51 m 257
 270 97 205 161 163 204 c 256
 103 266 73 316 73 385 c 256
 73 412 77 431 84 458 c 256
 85 462 92 463 94 458 c 257
 110 412 175 348 217 305 c 256
 277 243 307 193 307 124 c 256
 307 97 303 78 296 51 c 256
 295 47 288 46 286 51 c 257
EndSplineSet
PickledDataWithLists: "(dp0
Vpublic.markColor
p1
V0.67,0.95,0.38,1
p2
s."
Substitution2: "'smcp' Lowercase to Small Capitals lookup 22 subtable" section.sc
Substitution2: "'c2sc' Capitals to Small Capitals lookup 21 subtable" section.sc
Substitution2: "'ordn' Ordinals lookup 15 subtable" section.ordn
Substitution2: "'sups' Superscript lookup 9 subtable" section.sups
Substitution2: "'sinf' Scientific Inferiors lookup 8 subtable" section.sinf
Substitution2: "'subs' Subscript lookup 7 subtable" section.subs
Comment: "+AAoA-section+AAoA"
EndChar
StartChar: dieresis
Encoding: 733 168 732
GlifName: dieresis
Width: 300
VWidth: 0
Flags: W
AnchorPoint: "top" 150 440 mark 0
LayerCount: 2
Back
SplineSet
107 593 m 256
 82 593 57 568 57 543 c 256
 57 518 82 493 107 493 c 256
 132 493 157 518 157 543 c 256
 157 568 132 593 107 593 c 256
284 593 m 256
 259 593 234 568 234 543 c 256
 234 518 259 493 284 493 c 256
 309 493 334 518 334 543 c 256
 334 568 309 593 284 593 c 256
EndSplineSet
Fore
Refer: 1929 776 N 1 0 0 1 150 19 2
PickledDataWithLists: "(dp0
Vpublic.markColor
p1
V0.67,0.95,0.38,1
p2
s."
Substitution2: "'smcp' Lowercase to Small Capitals lookup 22 subtable" dieresis.sc
Substitution2: "'c2sc' Capitals to Small Capitals lookup 21 subtable" dieresis.sc
Comment: "+AAoA-dieresis+AAoA"
EndChar
StartChar: copyright
Encoding: 704 169 703
GlifName: copyright
Width: 665
VWidth: 0
Flags: W
LayerCount: 2
Fore
SplineSet
345 24 m 256
 512 24 649 160 649 327 c 256
 649 494 513 630 346 630 c 256
 179 630 43 494 43 327 c 256
 43 160 178 24 345 24 c 256
359 154 m 256
 394 154 430 157 452 167 c 256
 464 176 461 172 469 184 c 256
 476 196 484 217 484 227 c 256
 484 236 483 240 479 240 c 256
 475 240 467 235 462 225 c 256
 446 193 413 184 376 184 c 256
 298 184 258 258 258 331 c 256
 258 404 303 464 371 464 c 256
 394 464 413 458 428 448 c 256
 442 439 451 427 456 413 c 256
 459 405 462 398 468 398 c 257
 473 397 478 405 478 409 c 257
 479 422 480 452 476 468 c 256
 474 479 470 478 460 481 c 256
 437 488 404 494 380 494 c 256
 281 494 188 427 188 328 c 256
 188 239 264 154 359 154 c 256
345 58 m 256
 199 58 83 181 83 327 c 256
 83 472 201 596 346 596 c 256
 491 596 609 472 609 327 c 256
 609 180 492 58 345 58 c 256
EndSplineSet
PickledDataWithLists: "(dp0
Vpublic.markColor
p1
V0.67,0.95,0.38,1
p2
s."
Substitution2: "'smcp' Lowercase to Small Capitals lookup 22 subtable" copyright.sc
Substitution2: "'c2sc' Capitals to Small Capitals lookup 21 subtable" copyright.sc
Comment: "+AAoA-copyright+AAoA"
EndChar
StartChar: ordfeminine
Encoding: 1227 170 1226
GlifName: ordfeminine
Width: 310
VWidth: 0
Flags: W
LayerCount: 2
Fore
SplineSet
265 196 m 258
 59 196 l 258
 46 196 35 182 35 173 c 256
 35 167 42 161 49 161 c 258
 247 161 l 258
 262 161 271 169 278 182 c 257
 278 183 279 184 279 185 c 256
 279 191 271 196 265 196 c 258
EndSplineSet
Refer: 497 -1 N 1 0 0 1 10 -7 2
PickledDataWithLists: "(dp0
Vcom.schriftgestaltung.Glyphs.glyph.leftMetricsKey
p1
Va.ordn
p2
sVcom.schriftgestaltung.Glyphs.glyph.rightMetricsKey
p3
Va.ordn
p4
sVpublic.markColor
p5
V0.67,0.95,0.38,1
p6
s."
Substitution2: "'smcp' Lowercase to Small Capitals lookup 22 subtable" ordfeminine.sc
Comment: "+AAoA-ordfeminine+AAoA"
EndChar
StartChar: logicalnot
Encoding: 1090 172 1089
GlifName: logicalnot
Width: 600
VWidth: 0
Flags: W
LayerCount: 2
Back
SplineSet
64 322 m 258
 476 322 l 258
 486 322 490 314 490 304 c 258
 490 57 l 258
 490 50 496 43 502 43 c 256
 511 43 550 46 550 67 c 258
 550 368 l 258
 550 375 544 382 537 382 c 258
 74 382 l 258
 53 382 50 343 50 334 c 256
 50 328 57 322 64 322 c 258
EndSplineSet
Fore
SplineSet
502 43 m 256
 511 43 550 46 550 67 c 258
 550 368 l 258
 550 375 544 382 537 382 c 258
 74 382 l 258
 53 382 50 343 50 334 c 256
 50 328 57 322 64 322 c 258
 476 322 l 258
 486 322 490 314 490 304 c 258
 490 57 l 258
 490 50 496 43 502 43 c 256
EndSplineSet
PickledDataWithLists: "(dp0
Vpublic.markColor
p1
V0.67,0.95,0.38,1
p2
s."
Substitution2: "'smcp' Lowercase to Small Capitals lookup 22 subtable" logicalnot.sc
Substitution2: "'c2sc' Capitals to Small Capitals lookup 21 subtable" logicalnot.sc
Comment: "+AAoA-logicalnot+AAoA"
EndChar
StartChar: registered
Encoding: 174 174 1069
Width: 665
VWidth: 0
Flags: MW
LayerCount: 3
Fore
SplineSet
410 413 m 0
 410 445 377 467 342 467 c 0
 312 467 304 455 304 437 c 2
 304 372 l 2
 304 353 317 352 331 352 c 0
 370 352 410 374 410 413 c 0
366 496 m 2
 418 496 474 470 474 417 c 0
 474 376 445 349 421 339 c 0
 412 335 417 329 421 322 c 2
 487 211 l 2
 495 197 506 194 518 194 c 0
 522 194 534 198 534 190 c 0
 534 172 509 163 490 163 c 0
 466 163 443.811448797 173.264507168 432 193 c 2
 374 290 l 2
 363 308 345 320 320 320 c 0
 312 320 304 316 304 309 c 2
 305 233 l 2
 305 211 323 206 339 201 c 0
 348 198 358 191 358 183 c 0
 358 177 348 172 342 172 c 0
 310 172 305 176 277 176 c 0
 249 176 244 172 212 172 c 0
 206 172 196 177 196 183 c 0
 196 191 206 198 215 201 c 0
 231 206 240 211 240 233 c 2
 240 422 l 2
 240 463 237 459 217 464 c 0
 203 468 198 474 198 482 c 0
 198 490 205 496 218 496 c 2
 366 496 l 2
346 590 m 24
 201 590 83 472 83 327 c 24
 83 181 199 58 345 58 c 24
 492 58 609 180 609 327 c 24
 609 472 491 590 346 590 c 24
346 630 m 24
 513 630 649 494 649 327 c 24
 649 160 512 24 345 24 c 24
 178 24 43 160 43 327 c 24
 43 494 179 630 346 630 c 24
EndSplineSet
EndChar
StartChar: degree
Encoding: 729 176 728
GlifName: degree
Width: 290
VWidth: 0
Flags: W
LayerCount: 2
Fore
SplineSet
145 402 m 256
 208 402 265 464 265 528 c 256
 265 592 208 645 145 645 c 256
 82 645 25 590 25 526 c 256
 25 462 82 402 145 402 c 256
145 444 m 256
 103 444 68 481 68 523 c 256
 68 567 103 602 145 602 c 256
 187 602 222 567 222 523 c 256
 222 481 187 444 145 444 c 256
EndSplineSet
PickledDataWithLists: "(dp0
Vpublic.markColor
p1
V0.67,0.95,0.38,1
p2
s."
Substitution2: "'smcp' Lowercase to Small Capitals lookup 22 subtable" degree.sc
Substitution2: "'c2sc' Capitals to Small Capitals lookup 21 subtable" degree.sc
Comment: "+AAoA-degree+AAoA"
EndChar
StartChar: mu
Encoding: 1133 181 1132
GlifName: mu
Width: 537
VWidth: 0
Flags: W
LayerCount: 2
Back
SplineSet
153 -285 m 256
 172 -285 202 -274 202 -254 c 256
 202 -236 123 -217 121 -131 c 256
 120 -94 117 -1 117 28 c 256
 117 49 120 62 124 62 c 256
 127 62 137 44 154 26 c 256
 172 6 199 -15 237 -15 c 256
 287 -15 358 102 365 118 c 257
 367 118 l 257
 368 104 369 91 371 79 c 256
 382 20 410 -15 441 -15 c 256
 484 -15 532 25 532 100 c 256
 532 105 526 109 521 109 c 256
 513 109 485 75 448 75 c 256
 403 75 385 125 385 162 c 257
 412 254 433 336 433 377 c 256
 433 389 397 415 366 415 c 256
 349 415 345 410 345 400 c 256
 345 320 338 204 323 152 c 257
 283 77 257 53 205 53 c 256
 161 53 145 106 145 132 c 256
 145 172 176 344 176 386 c 256
 176 395 141 414 112 414 c 256
 91 414 85 410 85 396 c 256
 85 352 92 125 92 92 c 256
 92 60 85 17 85 0 c 256
 85 -75 91 -210 100 -234 c 256
 112 -265 121 -285 153 -285 c 256
EndSplineSet
Fore
SplineSet
153 -285 m 256
 172 -285 202 -274 202 -254 c 256
 202 -236 123 -217 121 -131 c 256
 120 -94 117 -1 117 28 c 256
 117 49 120 62 124 62 c 256
 127 62 137 44 154 26 c 256
 172 6 199 -15 237 -15 c 256
 287 -15 358 102 365 118 c 257
 367 118 l 257
 368 104 369 91 371 79 c 256
 382 20 410 -15 441 -15 c 256
 484 -15 532 25 532 100 c 256
 532 105 526 109 521 109 c 256
 513 109 485 75 448 75 c 256
 403 75 385 125 385 162 c 257
 412 254 433 336 433 377 c 256
 433 389 397 415 366 415 c 256
 349 415 345 410 345 400 c 256
 345 320 338 204 323 152 c 257
 283 77 257 53 205 53 c 256
 161 53 145 106 145 132 c 256
 145 172 176 344 176 386 c 256
 176 395 141 414 112 414 c 256
 91 414 85 410 85 396 c 256
 85 352 86 116 86 0 c 256
 86 -75 91 -210 100 -234 c 256
 112 -265 121 -285 153 -285 c 256
EndSplineSet
PickledDataWithLists: "(dp0
Vpublic.markColor
p1
V0.67,0.95,0.38,1
p2
s."
Comment: "+AAoA-mu+AAoA"
EndChar
StartChar: paragraph
Encoding: 1244 182 1243
GlifName: paragraph
Width: 595
VWidth: 0
Flags: W
LayerCount: 2
Back
SplineSet
274 -287 m 256
 395 -287 425 -205 425 -112 c 258
 425 590 l 258
 425 599 433 608 443 608 c 256
 494 608 542 592 548 592 c 256
 556 592 562 613 562 622 c 256
 562 631 557 640 547 642 c 257
 532 644 462 648 407 648 c 256
 234 648 55 555 55 382 c 256
 55 221 212 119 373 119 c 256
 384 119 386 104 386 94 c 258
 386 -112 l 258
 386 -209 355 -253 281 -253 c 256
 233 -253 200 -219 200 -186 c 256
 200 -161 220 -135 236 -135 c 256
 257 -135 263 -163 291 -163 c 256
 314 -163 334 -143 334 -114 c 256
 334 -82 303 -61 262 -61 c 256
 209 -61 158 -124 158 -179 c 256
 158 -241 212 -287 274 -287 c 256
EndSplineSet
Fore
SplineSet
282 -289 m 256
 351 -289 425 -239 425 -112 c 258
 425 590 l 258
 425 599 433 608 443 608 c 256
 494 608 542 592 548 592 c 256
 556 592 562 613 562 622 c 256
 562 631 557 640 547 642 c 257
 532 644 462 648 407 648 c 256
 183 648 45 571 45 383 c 256
 45 202 194 119 373 119 c 256
 384 119 386 104 386 94 c 258
 386 -112 l 258
 386 -219 335 -254 286 -254 c 256
 242 -254 200 -225 200 -186 c 256
 200 -152 220 -135 236 -135 c 256
 247 -135 254 -143 262 -150 c 256
 269 -157 278 -163 291 -163 c 256
 314 -163 334 -143 334 -114 c 256
 334 -84 313 -61 268 -61 c 256
 213 -61 158 -112 158 -179 c 256
 158 -247 218 -289 282 -289 c 256
EndSplineSet
PickledDataWithLists: "(dp0
Vpublic.markColor
p1
V0.67,0.95,0.38,1
p2
s."
Substitution2: "'smcp' Lowercase to Small Capitals lookup 22 subtable" paragraph.sc
Substitution2: "'c2sc' Capitals to Small Capitals lookup 21 subtable" paragraph.sc
Substitution2: "'ordn' Ordinals lookup 15 subtable" paragraph.ordn
Substitution2: "'sups' Superscript lookup 9 subtable" paragraph.sups
Substitution2: "'sinf' Scientific Inferiors lookup 8 subtable" paragraph.sinf
Substitution2: "'subs' Subscript lookup 7 subtable" paragraph.subs
Comment: "+AAoA-paragraph+AAoA"
EndChar
StartChar: cedilla
Encoding: 670 184 669
GlifName: cedilla
Width: 200
VWidth: 0
Flags: W
LayerCount: 2
Back
SplineSet
131 -129 m 256
 138 -129 144 -123 157 -123 c 256
 192 -123 216 -144 216 -180 c 256
 216 -206 203 -225 177 -225 c 256
 144 -225 131 -214 124 -214 c 256
 120 -214 111 -219 111 -233 c 256
 111 -252 114 -274 141 -274 c 256
 177 -274 266 -219 266 -139 c 256
 266 -106 237 -77 205 -63 c 257
 201 -62 194 -57 194 -51 c 256
 194 -49 196 -45 198 -43 c 257
 237 8 l 257
 206 8 l 257
 118 -104 l 258
 115 -108 113 -111 113 -114 c 256
 113 -123 124 -129 131 -129 c 256
EndSplineSet
Fore
Refer: 1996 807 N 1 0 0 1 101 0 2
PickledDataWithLists: "(dp0
Vpublic.markColor
p1
V0.67,0.95,0.38,1
p2
s."
Substitution2: "'smcp' Lowercase to Small Capitals lookup 22 subtable" cedilla.sc
Substitution2: "'c2sc' Capitals to Small Capitals lookup 21 subtable" cedilla.sc
Comment: "+AAoA-cedilla+AAoA"
EndChar
StartChar: ordmasculine
Encoding: 1229 186 1228
GlifName: ordmasculine
Width: 309
VWidth: 0
Flags: W
LayerCount: 2
Fore
SplineSet
271 196 m 258
 49 196 l 258
 36 196 25 182 25 173 c 256
 25 167 32 161 39 161 c 258
 253 161 l 258
 268 161 277 169 284 182 c 257
 284 183 285 184 285 185 c 256
 285 191 277 196 271 196 c 258
EndSplineSet
Refer: 1173 -1 N 1 0 0 1 0 -7 2
PickledDataWithLists: "(dp0
Vpublic.markColor
p1
V0.67,0.95,0.38,1
p2
s."
Substitution2: "'smcp' Lowercase to Small Capitals lookup 22 subtable" ordmasculine.sc
Comment: "+AAoA-ordmasculine+AAoA"
EndChar
StartChar: onehalf
Encoding: 1221 189 1220
GlifName: onehalf
Width: 717
VWidth: 0
Flags: W
LayerCount: 2
Back
SplineSet
171 626 m 257
 159 620 119 586 68 581 c 257
 63 580 58 574 58 567 c 256
 58 562 61 557 69 554 c 256
 86 548 123 534 123 507 c 258
 123 354 l 258
 123 313 96 310 69 308 c 257
 61 308 58 303 58 297 c 256
 58 290 62 283 69 283 c 256
 123 283 119 288 151 288 c 256
 183 288 176 283 233 283 c 256
 241 283 245 289 245 295 c 256
 245 301 241 307 233 308 c 256
 189 314 184 315 183 354 c 257
 183 378 182 403 182 433 c 256
 182 464 183 500 183 544 c 256
 183 576 185 600 187 614 c 256
 188 622 184 628 178 628 c 256
 176 628 174 627 171 626 c 257
550 638 m 258
 138 -11 l 257
 133 -18 145 -26 154 -26 c 256
 169 -26 182 -24 190 -11 c 258
 602 638 l 257
 603 639 603 641 603 642 c 256
 603 648 596 655 589 655 c 256
 572 655 559 652 550 638 c 258
460 232 m 257
 488 262 503 270 539 270 c 256
 569 270 596 244 596 207 c 256
 596 142 501 64 485 48 c 258
 446 8 l 258
 439 1 441 -9 446 -8 c 257
 497 -6 521 -6 569 -6 c 256
 602 -6 602 -6 653 -9 c 257
 657 -10 663 -10 665 4 c 257
 671 35 679 59 692 95 c 257
 692 96 693 98 693 99 c 256
 693 102 692 104 689 104 c 257
 683 105 676 101 674 96 c 257
 659 66 630 46 600 46 c 258
 531 46 l 258
 527 46 515 48 519 52 c 257
 526 60 596 119 618 152 c 256
 635 177 652 197 652 231 c 256
 652 282 612 324 561 324 c 256
 491 324 444 257 444 237 c 256
 444 226 455 222 460 232 c 257
EndSplineSet
Fore
Refer: 1212 -1 N 1 0 0 1 0 0 2
Refer: 897 8260 N 1 0 0 1 338 0 2
Refer: 1483 -1 N 1 0 0 1 417 -294 2
PickledDataWithLists: "(dp0
Vcom.schriftgestaltung.Glyphs.ComponentInfo
p1
(lp2
(dp3
Valignment
p4
I-1
sVindex
p5
I0
sVname
p6
Vone.ordn
p7
sa(dp8
g4
I-1
sg5
I1
sg6
Vfraction
p9
sa(dp10
g4
I-1
sg5
I2
sg6
Vtwo.ordn
p11
sasVcom.schriftgestaltung.Glyphs.glyph.leftMetricsKey
p12
Vone.ordn
p13
sVcom.schriftgestaltung.Glyphs.glyph.rightMetricsKey
p14
Vtwo.ordn
p15
sVpublic.markColor
p16
V0.67,0.95,0.38,1
p17
s."
Comment: "+AAoA-onehalf+AAoA"
EndChar
StartChar: questiondown
Encoding: 1316 191 1315
GlifName: questiondown
Width: 376
VWidth: 0
Flags: W
LayerCount: 22
Fore
Refer: 1309 63 N -1 0 0 -1 376 480 2
PickledDataWithLists: "(dp0
Vcom.schriftgestaltung.Glyphs.glyph.leftMetricsKey
p1
V=|question
p2
sVcom.schriftgestaltung.Glyphs.glyph.rightMetricsKey
p3
V=|question
p4
sVpublic.markColor
p5
V0.67,0.95,0.38,1
p6
s."
Layer: 21
SplineSet
245 -181 m 256
 262 -181 285 -164 285 -145 c 256
 285 -118 264 -89 243 -89 c 256
 224 -89 215 -93 196 -93 c 256
 128 -92 95 -44 95 22 c 256
 95 51 128 79 156 93 c 256
 219 125 257 149 257 183 c 256
 257 228 247 249 241 270 c 256
 237 286 226 299 219 299 c 256
 209 299 204 286 204 276 c 256
 203 244 202 231 174 213 c 256
 142 192 128 184 84 160 c 256
 64 149 40 114 40 65 c 256
 40 14 81 -75 137 -131 c 256
 170 -164 212 -181 245 -181 c 256
205 374 m 256
 238 374 265 401 265 434 c 256
 265 467 238 494 205 494 c 256
 172 494 145 467 145 434 c 256
 145 401 172 374 205 374 c 256
EndSplineSet
Refer: 43691 -1 N -1 0 0 -1 385 480 2
PickledDataWithLists: "(dp0
Vcom.schriftgestaltung.Glyphs.glyph.leftMetricsKey
p1
V=|question
p2
sVcom.schriftgestaltung.Glyphs.glyph.rightMetricsKey
p3
V=|question
p4
sVpublic.markColor
p5
V0.67,0.95,0.38,1
p6
s."
Substitution2: "'smcp' Lowercase to Small Capitals lookup 22 subtable" questiondown.sc
Substitution2: "'c2sc' Capitals to Small Capitals lookup 21 subtable" questiondown.sc
Comment: "+AAoA-questiondown+AAoA"
EndChar
StartChar: AE
Encoding: 8 198 8
GlifName: A_E_
Width: 872
VWidth: 0
Flags: W
AnchorPoint: "top.cap" 543 675 basechar 0
LayerCount: 2
Back
SplineSet
374 -5 m 256
 428 -5 444 1 489 1 c 256
 589 1 688 -5 816 -5 c 256
 824 -5 828 3 830 12 c 257
 837 38 847 97 847 115 c 256
 847 123 841 125 834 126 c 256
 827 127 824 124 820 116 c 256
 812 99 796 67 778 53 c 256
 765 43 752 35 702 35 c 258
 598 35 l 258
 553 35 532 51 532 102 c 258
 532 294 l 258
 532 317 543 320 566 320 c 258
 659 320 l 258
 685 320 698 306 705 275 c 256
 710 254 718 243 728 243 c 256
 736 243 737 251 737 260 c 256
 737 268 735 317 735 337 c 256
 735 353 738 398 738 407 c 256
 738 417 730 423 725 423 c 256
 717 423 711 416 707 401 c 256
 697 364 688 352 649 352 c 258
 550 352 l 258
 540 352 532 362 532 374 c 258
 532 586 l 258
 532 605 557 618 568 618 c 258
 699 618 l 258
 724 618 747 612 766 591 c 256
 775 581 782 558 788 536 c 256
 790 529 792 526 799 526 c 256
 805 526 813 529 813 541 c 256
 813 568 805 606 798 644 c 257
 797 651 787 653 780 653 c 256
 775 653 740 652 695 651 c 256
 653 650 602 650 558 650 c 256
 488 650 456 653 381 653 c 256
 364 653 352 650 352 642 c 256
 352 633 362 626 385 622 c 256
 435 613 452 597 452 549 c 258
 452 99 l 258
 452 51 428 33 378 24 c 256
 355 20 345 15 345 6 c 256
 345 -2 357 -5 374 -5 c 256
EndSplineSet
Fore
SplineSet
24 -5 m 256
 57 -5 105 1 150 1 c 256
 186 1 221 -1 239 -1 c 256
 256 -1 268 2 268 10 c 256
 268 19 258 24 235 30 c 256
 206 37 170 50 170 82 c 256
 170 91 173 101 179 112 c 256
 211 174 235 217 261 262 c 256
 268 275 276 285 291 285 c 258
 432 285 l 258
 452 285 454 277 454 267 c 258
 454 96 l 258
 454 50 430 33 381 24 c 256
 358 20 348 15 348 6 c 256
 348 -2 360 -5 377 -5 c 256
 431 -5 447 1 492 1 c 256
 606 1 702 -5 816 -5 c 256
 826 -5 828 4 830 12 c 256
 838 43 847 77 847 115 c 256
 847 121 841 125 834 126 c 256
 827 127 824 124 820 116 c 256
 812 99 796 67 778 53 c 256
 765 43 707 35 702 35 c 258
 598 35 l 258
 553 35 533 73 533 111 c 258
 533 269 l 258
 533 285 544 292 556 292 c 256
 595 292 617 292 659 290 c 256
 675 289 696 277 706 246 c 256
 708 239 716 223 729 223 c 256
 737 223 738 231 738 240 c 257
 736 269 735 290 735 313 c 256
 735 331 736 349 738 372 c 256
 739 381 730 388 725 388 c 256
 712 388 708 363 690 347 c 256
 678 336 665 330 646 329 c 256
 622 328 592 327 550 327 c 256
 540 327 533 338 533 349 c 258
 533 592 l 258
 533 610 557 618 568 618 c 258
 699 618 l 258
 724 618 747 612 766 591 c 256
 775 581 782 564 789 542 c 256
 791 535 793 532 800 532 c 256
 806 532 814 535 814 541 c 257
 813 576 809 606 802 644 c 257
 801 651 791 653 784 653 c 256
 733 653 584 648 475 648 c 256
 407 648 342 651 300 651 c 256
 294 651 290 645 290 639 c 256
 290 634 293 629 300 626 c 257
 388 611 l 257
 401 610 410 602 405 594 c 258
 132 126 l 258
 104 78 62 38 28 28 c 256
 6 21 -5 15 -5 6 c 256
 -5 -2 7 -5 24 -5 c 256
314 328 m 258
 303 328 298 329 298 333 c 256
 298 335 299 338 302 343 c 258
 438 581 l 258
 451 604 454 604 454 580 c 258
 454 343 l 258
 454 328 453 328 438 328 c 258
 314 328 l 258
EndSplineSet
PickledDataWithLists: "(dp0
Vcom.schriftgestaltung.Glyphs.glyph.rightMetricsKey
p1
VE
p2
sVpublic.markColor
p3
V0.67,0.95,0.38,1
p4
s."
Substitution2: "'c2sc' Capitals to Small Capitals lookup 21 subtable" AE.sc
Comment: "+AAoA-AE+AAoA"
EndChar
StartChar: Ccedilla
Encoding: 56 199 56
GlifName: C_cedilla
Width: 710
VWidth: 0
Flags: W
AnchorPoint: "bottom.cap" 392 -30 basechar 0
AnchorPoint: "top.cap" 401 675 basechar 0
LayerCount: 2
Back
SplineSet
326 -115 m 256
 326 -121 335 -132 352 -132 c 256
 361 -132 366 -129 378 -129 c 256
 413 -129 425 -159 425 -183 c 256
 425 -212 400 -222 383 -222 c 256
 334 -222 328 -209 320 -209 c 256
 312 -209 304 -220 304 -243 c 256
 304 -258 314 -275 349 -275 c 256
 394 -275 478 -227 478 -159 c 256
 478 -112 440 -82 412 -70 c 256
 407 -68 397 -61 402 -54 c 257
 443 8 l 257
 412 8 l 257
 332 -100 l 258
 329 -104 326 -108 326 -115 c 256
586 137 m 256
 560 86 512 16 400 16 c 256
 244 16 146 184 146 347 c 256
 146 494 247 632 394 632 c 256
 486 632 531 591 541 581 c 257
 553 570 571 548 576 508 c 257
 580 485 591 472 602 471 c 256
 612 470 614 485 613 494 c 257
 612 546 609 572 605 603 c 257
 604 617 600 632 592 633 c 256
 572 636 534 645 516 651 c 256
 498 657 442 663 410 663 c 256
 216 663 46 517 46 323 c 256
 46 141 187 -15 369 -15 c 256
 429 -15 502 -6 537 5 c 256
 562 13 581 18 586 26 c 256
 601 49 615 105 619 130 c 257
 619 132 620 135 620 138 c 256
 620 147 617 157 613 157 c 256
 612 157 612 157 611 156 c 257
 606 152 592 148 586 137 c 256
EndSplineSet
Fore
Refer: 44 67 N 1 0 0 1 0 0 2
Refer: 1997 -1 N 1 0 0 1 377 0 2
PickledDataWithLists: "(dp0
Vcom.schriftgestaltung.Glyphs.glyph.leftMetricsKey
p1
VC
p2
sVcom.schriftgestaltung.Glyphs.glyph.rightMetricsKey
p3
g2
sVpublic.markColor
p4
V0.67,0.95,0.38,1
p5
s."
Substitution2: "'c2sc' Capitals to Small Capitals lookup 21 subtable" Ccedilla.sc
Comment: "+AAoA-Ccedilla+AAoA"
EndChar
StartChar: Igrave
Encoding: 196 204 196
GlifName: I_grave
Width: 340
VWidth: 0
Flags: W
AnchorPoint: "bottom.cap" 170 -30 basechar 0
AnchorPoint: "top.cap" 170 675 basechar 0
LayerCount: 2
Back
SplineSet
213 685 m 256
 217 685 219 688 219 691 c 256
 219 695 217 701 214 706 c 256
 190 746 164 786 137 825 c 256
 130 835 121 838 110 838 c 256
 96 838 52 829 52 815 c 256
 52 808 56 804 65 796 c 256
 105 762 155 724 195 694 c 256
 204 687 210 685 213 685 c 256
130 550 m 258
 130 98 l 258
 130 51 102 33 52 24 c 256
 29 20 19 15 19 6 c 256
 19 -2 31 -5 48 -5 c 256
 102 -5 126 0 176 0 c 256
 222 0 239 -5 293 -5 c 256
 310 -5 322 -2 322 6 c 256
 322 15 312 20 289 24 c 256
 239 33 210 51 210 98 c 258
 210 550 l 258
 210 597 231 613 281 622 c 256
 304 626 314 633 314 642 c 256
 314 650 302 653 285 653 c 256
 231 653 219 650 176 650 c 256
 130 650 113 653 59 653 c 256
 42 653 30 650 30 642 c 256
 30 633 40 626 63 622 c 256
 113 613 130 597 130 550 c 258
EndSplineSet
Fore
Refer: 177 73 N 1 0 0 1 0 0 2
Refer: 932 -1 N 1 0 0 1 125 0 2
PickledDataWithLists: "(dp0
Vpublic.markColor
p1
V0.67,0.95,0.38,1
p2
s."
Substitution2: "'c2sc' Capitals to Small Capitals lookup 21 subtable" Igrave.sc
Comment: "+AAoA-Igrave+AAoA"
EndChar
StartChar: Iacute
Encoding: 186 205 186
GlifName: I_acute
Width: 340
VWidth: 0
Flags: W
AnchorPoint: "bottom.cap" 170 -30 basechar 0
AnchorPoint: "top.cap" 170 675 basechar 0
LayerCount: 2
Back
SplineSet
149 685 m 256
 152 685 158 687 167 694 c 256
 207 724 257 762 297 796 c 256
 306 804 310 808 310 815 c 256
 310 829 266 838 252 838 c 256
 241 838 232 835 225 825 c 256
 198 786 172 746 148 706 c 256
 145 701 143 695 143 691 c 256
 143 688 145 685 149 685 c 256
130 550 m 258
 130 98 l 258
 130 51 102 33 52 24 c 256
 29 20 19 15 19 6 c 256
 19 -2 31 -5 48 -5 c 256
 102 -5 126 0 176 0 c 256
 222 0 239 -5 293 -5 c 256
 310 -5 322 -2 322 6 c 256
 322 15 312 20 289 24 c 256
 239 33 210 51 210 98 c 258
 210 550 l 258
 210 597 231 613 281 622 c 256
 304 626 314 633 314 642 c 256
 314 650 302 653 285 653 c 256
 231 653 219 650 176 650 c 256
 130 650 113 653 59 653 c 256
 42 653 30 650 30 642 c 256
 30 633 40 626 63 622 c 256
 113 613 130 597 130 550 c 258
EndSplineSet
Fore
Refer: 177 73 N 1 0 0 1 0 0 2
Refer: 512 -1 N 1 0 0 1 215 0 2
PickledDataWithLists: "(dp0
Vpublic.markColor
p1
V0.67,0.95,0.38,1
p2
s."
Substitution2: "'c2sc' Capitals to Small Capitals lookup 21 subtable" Iacute.sc
Comment: "+AAoA-Iacute+AAoA"
EndChar
StartChar: Icircumflex
Encoding: 190 206 190
GlifName: I_circumflex
Width: 340
VWidth: 0
Flags: W
AnchorPoint: "bottom.cap" 170 -30 basechar 0
AnchorPoint: "top.cap" 170 675 basechar 0
LayerCount: 2
Back
SplineSet
43 681 m 256
 56 681 138 721 164 736 c 256
 173 741 175 741 184 736 c 256
 210 721 292 680 305 680 c 256
 314 680 319 685 319 691 c 256
 319 695 318 699 313 703 c 258
 215 786 l 258
 196 803 189 808 174 808 c 256
 159 808 152 803 133 786 c 258
 35 703 l 258
 30 699 28 695 28 691 c 256
 28 685 34 681 43 681 c 256
130 550 m 258
 130 98 l 258
 130 51 102 33 52 24 c 256
 29 20 19 15 19 6 c 256
 19 -2 31 -5 48 -5 c 256
 102 -5 126 0 176 0 c 256
 222 0 239 -5 293 -5 c 256
 310 -5 322 -2 322 6 c 256
 322 15 312 20 289 24 c 256
 239 33 210 51 210 98 c 258
 210 550 l 258
 210 597 231 613 281 622 c 256
 304 626 314 633 314 642 c 256
 314 650 302 653 285 653 c 256
 231 653 219 650 176 650 c 256
 130 650 113 653 59 653 c 256
 42 653 30 650 30 642 c 256
 30 633 40 626 63 622 c 256
 113 613 130 597 130 550 c 258
EndSplineSet
Fore
Refer: 177 73 N 1 0 0 1 0 0 2
Refer: 1906 -1 N 1 0 0 1 169 0 2
PickledDataWithLists: "(dp0
Vpublic.markColor
p1
V0.67,0.95,0.38,1
p2
s."
Substitution2: "'c2sc' Capitals to Small Capitals lookup 21 subtable" Icircumflex.sc
Comment: "+AAoA-Icircumflex+AAoA"
EndChar
StartChar: Idieresis
Encoding: 192 207 192
GlifName: I_dieresis
Width: 340
VWidth: 0
Flags: W
AnchorPoint: "bottom.cap" 170 -30 basechar 0
AnchorPoint: "top.cap" 170 675 basechar 0
LayerCount: 2
Back
SplineSet
72 795 m 256
 44 795 22 773 22 745 c 256
 22 717 44 695 72 695 c 256
 100 695 122 717 122 745 c 256
 122 773 100 795 72 795 c 256
267 795 m 256
 239 795 217 773 217 745 c 256
 217 717 239 695 267 695 c 256
 295 695 317 717 317 745 c 256
 317 773 295 795 267 795 c 256
130 550 m 258
 130 98 l 258
 130 51 102 33 52 24 c 256
 29 20 19 15 19 6 c 256
 19 -2 31 -5 48 -5 c 256
 102 -5 126 0 176 0 c 256
 222 0 239 -5 293 -5 c 256
 310 -5 322 -2 322 6 c 256
 322 15 312 20 289 24 c 256
 239 33 210 51 210 98 c 258
 210 550 l 258
 210 597 231 613 281 622 c 256
 304 626 314 633 314 642 c 256
 314 650 302 653 285 653 c 256
 231 653 219 650 176 650 c 256
 130 650 113 653 59 653 c 256
 42 653 30 650 30 642 c 256
 30 633 40 626 63 622 c 256
 113 613 130 597 130 550 c 258
EndSplineSet
Fore
Refer: 177 73 N 1 0 0 1 0 0 2
Refer: 1930 -1 N 1 0 0 1 170 0 2
PickledDataWithLists: "(dp0
Vpublic.markColor
p1
V0.67,0.95,0.38,1
p2
s."
Substitution2: "'c2sc' Capitals to Small Capitals lookup 21 subtable" Idieresis.sc
Comment: "+AAoA-Idieresis+AAoA"
EndChar
StartChar: Oacute
Encoding: 288 211 287
GlifName: O_acute
Width: 763
VWidth: 0
Flags: W
AnchorPoint: "bottom.cap" 372 -30 basechar 0
AnchorPoint: "top.cap" 391 675 basechar 0
LayerCount: 2
Back
SplineSet
351 685 m 256
 354 685 360 687 369 694 c 256
 409 724 459 762 499 796 c 256
 508 804 512 808 512 815 c 256
 512 829 468 838 454 838 c 256
 443 838 434 835 427 825 c 256
 400 786 374 746 350 706 c 256
 347 701 345 695 345 691 c 256
 345 688 347 685 351 685 c 256
45 320 m 256
 45 130 205 -14 382 -14 c 256
 601 -14 718 155 718 335 c 256
 718 532 564 664 390 664 c 256
 166 664 45 501 45 320 c 256
375 625 m 256
 535 625 621 495 621 305 c 256
 621 134 545 25 395 25 c 256
 247 25 142 179 142 350 c 256
 142 490 227 625 375 625 c 256
EndSplineSet
Fore
Refer: 278 79 N 1 0 0 1 0 0 2
Refer: 512 -1 N 1 0 0 1 436 0 2
PickledDataWithLists: "(dp0
Vpublic.markColor
p1
V0.67,0.95,0.38,1
p2
s."
Substitution2: "'c2sc' Capitals to Small Capitals lookup 21 subtable" Oacute.sc
Comment: "+AAoA-Oacute+AAoA"
EndChar
StartChar: Ocircumflex
Encoding: 292 212 291
GlifName: O_circumflex
Width: 763
VWidth: 0
Flags: W
AnchorPoint: "bottom.cap" 372 -30 basechar 0
AnchorPoint: "top.cap" 391 675 basechar 0
LayerCount: 2
Back
SplineSet
252 681 m 256
 265 681 347 721 373 736 c 256
 382 741 384 741 393 736 c 256
 419 721 501 680 514 680 c 256
 523 680 528 685 528 691 c 256
 528 695 527 699 522 703 c 258
 424 786 l 258
 405 803 398 808 383 808 c 256
 368 808 361 803 342 786 c 258
 244 703 l 258
 239 699 237 695 237 691 c 256
 237 685 243 681 252 681 c 256
45 320 m 256
 45 130 205 -14 382 -14 c 256
 601 -14 718 155 718 335 c 256
 718 532 564 664 390 664 c 256
 166 664 45 501 45 320 c 256
375 625 m 256
 535 625 621 495 621 305 c 256
 621 134 545 25 395 25 c 256
 247 25 142 179 142 350 c 256
 142 490 227 625 375 625 c 256
EndSplineSet
Fore
Refer: 278 79 N 1 0 0 1 0 0 2
Refer: 1906 -1 N 1 0 0 1 390 0 2
PickledDataWithLists: "(dp0
Vpublic.markColor
p1
V0.67,0.95,0.38,1
p2
s."
Substitution2: "'c2sc' Capitals to Small Capitals lookup 21 subtable" Ocircumflex.sc
Comment: "+AAoA-Ocircumflex+AAoA"
EndChar
StartChar: Odieresis
Encoding: 294 214 293
GlifName: O_dieresis
Width: 763
VWidth: 0
Flags: W
AnchorPoint: "bottom.cap" 372 -30 basechar 0
AnchorPoint: "top.cap" 391 675 basechar 0
LayerCount: 2
Back
SplineSet
285 795 m 256
 257 795 235 773 235 745 c 256
 235 717 257 695 285 695 c 256
 313 695 335 717 335 745 c 256
 335 773 313 795 285 795 c 256
480 795 m 256
 452 795 430 773 430 745 c 256
 430 717 452 695 480 695 c 256
 508 695 530 717 530 745 c 256
 530 773 508 795 480 795 c 256
45 320 m 256
 45 130 205 -14 382 -14 c 256
 601 -14 718 155 718 335 c 256
 718 532 564 664 390 664 c 256
 166 664 45 501 45 320 c 256
375 625 m 256
 535 625 621 495 621 305 c 256
 621 134 545 25 395 25 c 256
 247 25 142 179 142 350 c 256
 142 490 227 625 375 625 c 256
EndSplineSet
Fore
Refer: 278 79 N 1 0 0 1 0 0 2
Refer: 1930 -1 N 1 0 0 1 391 0 2
PickledDataWithLists: "(dp0
Vpublic.markColor
p1
V0.67,0.95,0.38,1
p2
s."
Substitution2: "'c2sc' Capitals to Small Capitals lookup 21 subtable" Odieresis.sc
Substitution2: "'locl' Localized Forms in Latin lookup 4 subtable" Odieresis.deu
Comment: "+AAoA-Odieresis+AAoA"
EndChar
StartChar: multiply
Encoding: 1134 215 1133
GlifName: multiply
Width: 600
VWidth: 0
Flags: W
LayerCount: 2
Back
SplineSet
249 250 m 257
 251 252 251 253 249 255 c 258
 118 386 l 258
 113 391 111 396 111 401 c 256
 111 413 121 428 128 441 c 257
 130 444 134 446 137 446 c 256
 141 446 144 444 147 441 c 258
 291 298 l 258
 293 296 293 294 298 299 c 1280
342 258 m 257
 338 254 337 252 341 248 c 258
 475 114 l 258
 478 111 480 106 480 102 c 256
 480 87 463 68 458 63 c 256
 454 59 445 59 440 64 c 258
 297 207 l 258
 295 209 292 209 290 207 c 1280
EndSplineSet
Fore
SplineSet
456 60 m 256
 467 60 486 84 486 102 c 256
 486 107 484 111 481 114 c 258
 345 250 l 258
 343 252 343 253 345 255 c 258
 476 386 l 258
 481 391 483 396 483 401 c 256
 483 413 473 428 466 441 c 257
 464 444 460 446 457 446 c 256
 453 446 450 444 447 441 c 258
 303 298 l 258
 301 296 301 294 296 299 c 258
 153 441 l 258
 148 446 139 446 134 441 c 257
 131 437 118 416 118 400 c 256
 118 395 119 390 123 386 c 258
 252 258 l 258
 256 254 257 252 253 248 c 258
 119 114 l 258
 116 111 114 106 114 102 c 256
 114 87 131 68 136 63 c 256
 140 59 149 59 154 64 c 258
 297 207 l 258
 299 209 302 209 304 207 c 258
 446 64 l 258
 449 61 452 60 456 60 c 256
EndSplineSet
PickledDataWithLists: "(dp0
Vpublic.markColor
p1
V0.67,0.95,0.38,1
p2
s."
Substitution2: "'smcp' Lowercase to Small Capitals lookup 22 subtable" multiply.sc
Substitution2: "'c2sc' Capitals to Small Capitals lookup 21 subtable" multiply.sc
Comment: "+AAoA-multiply+AAoA"
EndChar
